<svg width="157" height="27" xmlns="http://www.w3.org/2000/svg" xmlns:xlink="http://www.w3.org/1999/xlink"><defs><path id="a" d="M0 26.31h156.854V0H0z"/></defs><g fill="none" fill-rule="evenodd"><path d="M11.839 0C5.3 0 0 4.472 0 9.989c0 3.01 1.595 5.719 4.09 7.55a.8.8 0 0 1 .29.906l-.533 2.014c-.025.095-.064.193-.064.293 0 .22.177.399.395.399a.44.44 0 0 0 .227-.074l2.593-1.515a1.163 1.163 0 0 1 .977-.131 13.846 13.846 0 0 0 4.514.531 7.793 7.793 0 0 1-.398-2.448c0-5.03 4.834-9.11 10.798-9.11.216 0 .271.007.483.018C22.481 3.649 17.745 0 11.84 0M7.893 8.21c-.774 0-1.4-.635-1.4-1.418 0-.782.626-1.417 1.4-1.417.773 0 1.4.635 1.4 1.417 0 .783-.627 1.417-1.4 1.417m7.892 0c-.773 0-1.4-.634-1.4-1.417 0-.782.627-1.416 1.4-1.416.773 0 1.4.634 1.4 1.416 0 .783-.627 1.417-1.4 1.417" fill="#FFF"/><path d="M29.312 23.83c2.08-1.519 3.41-3.765 3.41-6.26 0-4.576-4.419-8.284-9.869-8.284s-9.868 3.708-9.868 8.283c0 4.575 4.418 8.284 9.868 8.284 1.126 0 2.213-.162 3.221-.454a.979.979 0 0 1 .29-.044c.19 0 .362.058.524.153l2.16 1.256c.061.035.12.062.19.062a.33.33 0 0 0 .33-.331c0-.083-.033-.164-.054-.243l-.444-1.67a.663.663 0 0 1 .242-.75m-9.749-7.673c-.68 0-1.232-.555-1.232-1.24 0-.686.552-1.242 1.232-1.242.681 0 1.233.556 1.233 1.241 0 .686-.552 1.241-1.233 1.241m6.58 0c-.681 0-1.232-.555-1.232-1.24 0-.686.551-1.242 1.231-1.242.681 0 1.233.556 1.233 1.241 0 .686-.552 1.241-1.233 1.241M69.082 2.58l1.554.62a39.756 39.756 0 0 1-1.547 4.538v15.476h-1.631V11.058a33.819 33.819 0 0 1-1.801 2.736l-1.253-1.179c2.05-2.732 3.779-6.227 4.678-10.036M78.018 2.58c.347.628 1.122 2.083 1.586 3.014h6.094v1.628H70.636V5.594h6.999c-.44-.815-.861-1.609-1.162-2.121l1.545-.894z" fill="#FFF"/><mask id="b" fill="#fff"><use xlink:href="#a"/></mask><path fill="#FFF" mask="url(#b)" d="M72.714 10.318H84.14V8.77H72.714zM72.714 13.929H84.14V12.38H72.714zM74.432 21.24h7.99v-3.775h-7.99v3.776zm-1.718-5.248V22.7H84.14v-6.707H72.714zM43.832 7.738l1.354.771c-.42.911-.708 1.49-1.293 2.471l.014 12.234h-1.543l-.014-9.897c-.63.864-1.029 1.368-1.66 2.07l-1.217-1.136c1.582-1.642 3.307-4.223 4.359-6.513M43.729 2.58l1.457.797c-1.051 1.809-2.868 4.191-4.47 5.909l-1.243-1.1c1.554-1.626 3.3-3.889 4.256-5.607M45.706 11.865h7.271v-1.547h-7.271zM47.64 4.247v3.612h1.435v-5.28h1.505v5.28h1.434V4.242l1.483.004v5.04h-7.272v-5.04zM53.966 16.228s-1.173 1.123-1.506 1.41v-4.225h-6.286l-.001 3.267c0 2.354-.523 3.385-1.506 4.45l1.128 1.053c1.532-1.667 1.856-2.99 1.856-5.185v-2.071h3.323s.063 3.626-.049 4.18l1.006.944s2.389-2.178 3.124-2.801l-1.089-1.022z"/><path d="M57.904 15.013c-.78-1.858-1.127-2.907-1.6-4.905.233-.776.459-2.015.548-3.042h2.333c-.116 3.396-.555 6.053-1.281 7.947m.897 1.781c1.09-2.336 1.712-5.548 1.768-9.729l1.046.002V5.498l-4.539.006c.06-.867.04-1.859.04-2.409h-1.46c.018 2.225-.234 4.347-.562 5.84-.366 1.663-.949 3.28-1.597 4.24l1.138 1.006c.325-.509.6-1.014.941-1.74.588 2.112.851 2.691 1.576 4.3a26.688 26.688 0 0 1-3.532 5.397l1.233 1.076c.602-.734 1.935-2.498 3.168-4.857.555 1.025 1.716 2.817 3.075 4.823l1.23-1.238c-1.103-1.368-2.633-3.462-3.525-5.148M101.757 18.853c1.263-.7 2.282-1.574 3.346-2.71h-6.537c.997 1.136 1.995 2.01 3.191 2.71m-1.84-14.775.577 1.356c-1.064.393-2.172.742-2.948.917v1.902h2.726v1.29h-2.726v2.01h3.48V3.095h1.551v8.458h3.59v-2.01h-2.859v-1.29h2.86v-2.01h-2.904V4.864h4.41v8.087h-5.097v1.857h4.565v1.311c-1.152 1.487-2.304 2.602-3.767 3.52 1.485.611 3.302 1.026 5.696 1.42l-.466 1.595c-2.925-.568-5.097-1.202-6.892-2.142-1.817.83-4.078 1.508-7.136 2.186l-.51-1.552c2.593-.48 4.543-.94 6.094-1.551-1.196-.831-2.26-1.836-3.324-3.104l.466-.35h-1.419V14.81h5.142v-1.857h-4.964V5.193c1.085-.218 2.526-.634 3.856-1.115m-8.2 8.699V8.668H89.17V7.095h2.548V3.139h1.529v3.956h2.105v1.573h-2.105V12.1l1.795-.787.2 1.616c-.554.241-1.263.526-1.995.853v6.49c0 1.64-.487 2.055-2.393 2.055h-1.419l-.31-1.552h1.285c1.086 0 1.308-.218 1.308-1.092v-5.267l-2.704 1.18-.2-1.639a88.164 88.164 0 0 0 2.904-1.18M113.226 13.413h18.698v-2.064h-18.698zM149.54 18.853c1.264-.7 2.283-1.574 3.347-2.71h-6.537c.997 1.136 1.994 2.01 3.19 2.71m-1.839-14.775.576 1.356c-1.064.393-2.171.742-2.947.917v1.902h2.726v1.29h-2.726v2.01h3.48V3.095h1.55v8.458h3.591v-2.01h-2.859v-1.29h2.86v-2.01h-2.904V4.864h4.41v8.087h-5.098v1.857h4.566v1.311c-1.153 1.487-2.305 2.602-3.768 3.52 1.485.611 3.303 1.026 5.696 1.42l-.466 1.595c-2.925-.568-5.097-1.202-6.892-2.142-1.817.83-4.078 1.508-7.136 2.186l-.51-1.552c2.593-.48 4.544-.94 6.095-1.551-1.197-.831-2.26-1.836-3.324-3.104l.465-.35h-1.418V14.81h5.141v-1.857h-4.964V5.193c1.086-.218 2.526-.634 3.856-1.115m-8.2 8.699V8.668h-2.548V7.095h2.548V3.139h1.53v3.956h2.105v1.573h-2.105V12.1l1.795-.787.199 1.616c-.554.241-1.263.526-1.994.853v6.49c0 1.64-.488 2.055-2.394 2.055h-1.419l-.31-1.552h1.285c1.086 0 1.308-.218 1.308-1.092v-5.267l-2.703 1.18-.2-1.639a88.58 88.58 0 0 0 2.903-1.18" fill="#FFF" mask="url(#b)"/></g></svg>