<svg width="1024" height="320" xmlns="http://www.w3.org/2000/svg" xmlns:xlink="http://www.w3.org/1999/xlink"><defs><mask id="mask-2" maskContentUnits="userSpaceOnUse" maskUnits="objectBoundingBox" x="0" y="0" width="23" height="7" fill="#fff"><use xlink:href="#path-1"/></mask><mask id="mask-7" maskContentUnits="userSpaceOnUse" maskUnits="objectBoundingBox" x="0" y="0" width="319.448" height="208.044" fill="#fff"><use xlink:href="#path-6"/></mask><mask id="mask-9" maskContentUnits="userSpaceOnUse" maskUnits="objectBoundingBox" x="0" y="0" width="46.72" height="92.474" fill="#fff"><use xlink:href="#path-8"/></mask><mask id="mask-11" maskContentUnits="userSpaceOnUse" maskUnits="objectBoundingBox" x="0" y="0" width="33.19" height="40" fill="#fff"><use xlink:href="#path-10"/></mask><mask id="mask-13" maskContentUnits="userSpaceOnUse" maskUnits="objectBoundingBox" x="0" y="0" width="33.19" height="40" fill="#fff"><use xlink:href="#path-12"/></mask><mask id="mask-15" maskContentUnits="userSpaceOnUse" maskUnits="objectBoundingBox" x="0" y="0" width="33.19" height="40" fill="#fff"><use xlink:href="#path-14"/></mask><mask id="mask-17" maskContentUnits="userSpaceOnUse" maskUnits="objectBoundingBox" x="0" y="0" width="41.687" height="50.865" fill="#fff"><use xlink:href="#path-16"/></mask><mask id="mask-19" maskContentUnits="userSpaceOnUse" maskUnits="objectBoundingBox" x="0" y="0" width="33.272" height="31.692" fill="#fff"><use xlink:href="#path-18"/></mask><mask id="mask-21" maskContentUnits="userSpaceOnUse" maskUnits="objectBoundingBox" x="0" y="0" width="33.19" height="40" fill="#fff"><use xlink:href="#path-20"/></mask><mask id="mask-23" maskContentUnits="userSpaceOnUse" maskUnits="objectBoundingBox" x="0" y="0" width="41.687" height="50.865" fill="#fff"><use xlink:href="#path-22"/></mask><mask id="mask-25" maskContentUnits="userSpaceOnUse" maskUnits="objectBoundingBox" x="0" y="0" width="33.19" height="40" fill="#fff"><use xlink:href="#path-24"/></mask><mask id="mask-27" maskContentUnits="userSpaceOnUse" maskUnits="objectBoundingBox" x="0" y="0" width="41.687" height="50.865" fill="#fff"><use xlink:href="#path-26"/></mask><mask id="mask-29" maskContentUnits="userSpaceOnUse" maskUnits="objectBoundingBox" x="0" y="0" width="33.19" height="40" fill="#fff"><use xlink:href="#path-28"/></mask><mask id="mask-31" maskContentUnits="userSpaceOnUse" maskUnits="objectBoundingBox" x="0" y="0" width="41.687" height="50.865" fill="#fff"><use xlink:href="#path-30"/></mask><mask id="mask-33" maskContentUnits="userSpaceOnUse" maskUnits="objectBoundingBox" x="0" y="0" width="33.19" height="40" fill="#fff"><use xlink:href="#path-32"/></mask><mask id="mask-35" maskContentUnits="userSpaceOnUse" maskUnits="objectBoundingBox" x="0" y="0" width="41.687" height="50.865" fill="#fff"><use xlink:href="#path-34"/></mask><mask id="mask-37" maskContentUnits="userSpaceOnUse" maskUnits="objectBoundingBox" x="0" y="0" width="8" height="23" fill="#fff"><use xlink:href="#path-36"/></mask><mask id="mask-39" maskContentUnits="userSpaceOnUse" maskUnits="objectBoundingBox" x="0" y="0" width="8" height="57" fill="#fff"><use xlink:href="#path-38"/></mask><mask id="mask-41" maskContentUnits="userSpaceOnUse" maskUnits="objectBoundingBox" x="0" y="0" width="78.486" height="46.044" fill="#fff"><use xlink:href="#path-40"/></mask><rect id="path-10" x="532" y="18" width="33.19" height="40" rx="4"/><rect id="path-12" x="491" y="18" width="33.19" height="40" rx="4"/><rect id="path-14" x="451" y="18" width="33.19" height="40" rx="4"/><rect id="path-16" x="475" y="107" width="41.687" height="50.865" rx="4"/><rect id="path-20" x="411" y="18" width="33.19" height="40" rx="4"/><rect id="path-22" x="428" y="107" width="41.687" height="50.865" rx="4"/><rect id="path-24" x="370" y="18" width="33.19" height="40" rx="4"/><rect id="path-26" x="382" y="107" width="41.687" height="50.865" rx="4"/><rect id="path-28" x="329" y="18" width="33.19" height="40" rx="4"/><rect id="path-30" x="336" y="107" width="41.687" height="50.865" rx="4"/><rect id="path-32" x="289" y="18" width="33.19" height="40" rx="4"/><rect id="path-34" x="289" y="107" width="41.687" height="50.865" rx="4"/><rect id="path-40" x="1.757" y="0" width="78.486" height="46.044" rx="4"/><path id="path-1" d="M266 194h23v7h-23z"/><path d="M272 24.002C272 10.746 282.74 0 295.991 0H558.69c13.25 0 23.964 10.737 23.93 23.99l-.171 68.236-7.41 5.116 10.934 51.97 3.026 2.157c1.353.964 2.45 3.087 2.45 4.753v43.835a7.976 7.976 0 01-8 7.987l-63.562-.137-7.476-11.018h-31.658l-6.902 11.018h-98.76l-7.87-11.018h-31.658l-7.296 11.018h-48.264c-4.42 0-8.002-3.587-8.002-7.991V24.002z" id="path-6"/><path id="path-8" d="M525 107l39.473.058 7.247 34.416v58H525z"/><path d="M531.5 117.28a3.957 3.957 0 013.999-3.97l19.502.159c2.209.018 4.362 1.794 4.81 3.958l4.879 23.649c.447 2.168-.982 3.926-3.19 3.926h-26c-2.209 0-4-1.797-4-4.002v-23.72z" id="path-18"/><path d="M583 163.006a4.006 4.006 0 014-4.006h4v23h-4c-2.21 0-4-1.786-4-4.006v-14.988z" id="path-36"/><path d="M272 123h4c2.21 0 4 1.8 4 4.008v48.984a4.007 4.007 0 01-4 4.008h-4v-57z" id="path-38"/><path id="path-42" d="M395 66h65.5v35H395z"/><linearGradient x1="15.522%" y1="10.344%" x2="71.803%" y2="88.123%" id="linearGradient-3"><stop stop-color="#686868" offset="0%"/><stop stop-color="#3C3C3C" offset="100%"/></linearGradient><linearGradient x1="0%" y1="0%" x2="100%" y2="100%" id="linearGradient-4"><stop stop-color="#9E9E9E" offset="0%"/><stop stop-color="#858585" offset="100%"/></linearGradient><linearGradient x1="0%" y1="0%" x2="102%" y2="101%" id="linearGradient-5"><stop stop-color="#5EA2FF" offset="0%"/><stop stop-color="#00D5FF" offset="62.596%"/><stop stop-color="#00E3FF" offset="100%"/></linearGradient><filter x="-50%" y="-50%" width="200%" height="200%" filterUnits="objectBoundingBox" id="filter-43"><feGaussianBlur stdDeviation="1" in="SourceAlpha" result="shadowBlurInner1"/><feOffset in="shadowBlurInner1" result="shadowOffsetInner1"/><feComposite in="shadowOffsetInner1" in2="SourceAlpha" operator="arithmetic" k2="-1" k3="1" result="shadowInnerInner1"/><feColorMatrix values="0 0 0 0 0 0 0 0 0 0.403668827 0 0 0 0 0.592208759 0 0 0 1 0" in="shadowInnerInner1"/></filter></defs><g id="模版中心" stroke="none" stroke-width="1" fill="none" fill-rule="evenodd"><g id="404班车-1024*320"><g id="Group-2-Copy" transform="translate(11 22)"><path d="M483.472 166.288c-59.43 0-134.936 14.29-162.215 14.29-27.28 0-62.353 7.566-111.067 7.566-48.713 0-88.658 14.71-48.713 23.957s43.355 16.392 0 16.392-142.243 5.464-159.78 24.378c-17.536 18.913 109.118 18.913 220.185 18.913 111.066 0 153.529-8.768 241.618-8.768 88.088 0 95.478 19.696 180.239 19.696 84.761 0 46.278-17.232 137.859-17.232 91.58 0 233.337-2.069 220.184-12.61-13.153-10.54-83.3-14.71-147.114-18.913-63.815-4.203-71.122-3.783-84.762-9.457-13.64-5.674 8.769-6.935 26.793-16.602 18.024-9.667-70.147-19.754-152.96-19.754s-100.837-21.856-160.267-21.856z" id="Path-7" fill="#E9E9E9"/><path id="Rectangle-29-Copy-5" fill="#BFBFBF" d="M397 218h100v2H397z"/><use id="Rectangle-34" stroke="#626262" mask="url(#mask-2)" stroke-width="4" fill="#9B9B9B" xlink:href="#path-1"/><circle id="Oval-3" stroke="#626262" stroke-width="2" fill="url(#linearGradient-3)" cx="351.887" cy="205.887" r="18.887"/><circle id="Oval-3" stroke="#626262" stroke-width="2" fill="url(#linearGradient-4)" cx="351.509" cy="205.509" r="11.509"/><circle id="Oval-3-Copy" stroke="#626262" stroke-width="2" fill="url(#linearGradient-3)" cx="496.887" cy="205.887" r="18.887"/><circle id="Oval-3-Copy-2" stroke="#626262" stroke-width="2" fill="url(#linearGradient-4)" cx="496.509" cy="205.509" r="11.509"/><use id="Rectangle-30" stroke="#0FB3FF" mask="url(#mask-7)" stroke-width="4" fill="url(#linearGradient-5)" xlink:href="#path-6"/><use id="Rectangle-31" stroke="#07AEFC" mask="url(#mask-9)" stroke-width="4" fill="url(#linearGradient-3)" xlink:href="#path-8"/><path id="Rectangle-31" fill="url(#linearGradient-5)" d="M528.674 110.875h32.711l6.443 31.224.347 53.686h-39.63z"/><use id="Rectangle-31-Copy-2" stroke="#07AEFC" mask="url(#mask-11)" stroke-width="4" fill="url(#linearGradient-3)" xlink:href="#path-10"/><use id="Rectangle-31-Copy-3" stroke="#07AEFC" mask="url(#mask-13)" stroke-width="4" fill="url(#linearGradient-3)" xlink:href="#path-12"/><use id="Rectangle-31-Copy-4" stroke="#07AEFC" mask="url(#mask-15)" stroke-width="4" fill="url(#linearGradient-3)" xlink:href="#path-14"/><use id="Rectangle-31-Copy-9" stroke="#07AEFC" mask="url(#mask-17)" stroke-width="4" fill="url(#linearGradient-3)" xlink:href="#path-16"/><use id="Rectangle-31-Copy-14" stroke="#07AEFC" mask="url(#mask-19)" stroke-width="4" fill="url(#linearGradient-3)" xlink:href="#path-18"/><use id="Rectangle-31-Copy-5" stroke="#07AEFC" mask="url(#mask-21)" stroke-width="4" fill="url(#linearGradient-3)" xlink:href="#path-20"/><use id="Rectangle-31-Copy-10" stroke="#07AEFC" mask="url(#mask-23)" stroke-width="4" fill="url(#linearGradient-3)" xlink:href="#path-22"/><use id="Rectangle-31-Copy-6" stroke="#07AEFC" mask="url(#mask-25)" stroke-width="4" fill="url(#linearGradient-3)" xlink:href="#path-24"/><use id="Rectangle-31-Copy-11" stroke="#07AEFC" mask="url(#mask-27)" stroke-width="4" fill="url(#linearGradient-3)" xlink:href="#path-26"/><use id="Rectangle-31-Copy-7" stroke="#07AEFC" mask="url(#mask-29)" stroke-width="4" fill="url(#linearGradient-3)" xlink:href="#path-28"/><use id="Rectangle-31-Copy-12" stroke="#07AEFC" mask="url(#mask-31)" stroke-width="4" fill="url(#linearGradient-3)" xlink:href="#path-30"/><use id="Rectangle-31-Copy-8" stroke="#07AEFC" mask="url(#mask-33)" stroke-width="4" fill="url(#linearGradient-3)" xlink:href="#path-32"/><use id="Rectangle-31-Copy-13" stroke="#07AEFC" mask="url(#mask-35)" stroke-width="4" fill="url(#linearGradient-3)" xlink:href="#path-34"/><path id="Rectangle-29-Copy-3" fill="#BFBFBF" d="M231 225h341.45v2.892H231z"/><path id="Rectangle-29-Copy-4" fill="#B3B3B3" d="M331 227h305v2.892H331z"/><path d="M569 105.059c0-1.1.838-2.3 1.882-2.686l11.294-4.167c1.56-.575 3.537.093 4.423 1.503l6.738 10.72c1.47 2.339 1.135 5.872-.755 7.898L589 122.165l-9-16-9.109 3.244c-1.044.372-1.891-.215-1.891-1.318v-3.032z" id="Path-5" stroke="#07AEFC" stroke-width="2" stroke-linejoin="round" fill="url(#linearGradient-5)"/><path id="Rectangle-32-Copy" fill="#F6F6F6" d="M289 84h274v17H289z"/><path id="Rectangle-32-Copy-2" fill="#F6F6F6" d="M289 75h274.195v4H289z"/><path id="Rectangle-32-Copy-3" fill="#F6F6F6" d="M289 164h227.527v4H289z"/><path id="Rectangle-32-Copy-4" fill="#F6F6F6" d="M531 164h34.527v4H531z"/><use id="Rectangle-35" stroke="#FFA614" mask="url(#mask-37)" stroke-width="4" fill="#FFD650" xlink:href="#path-36"/><use id="Rectangle-2" stroke="#FF597D" mask="url(#mask-39)" stroke-width="4" fill="#FF87A1" xlink:href="#path-38"/><path d="M693 237s.5-17 20-24" id="Path-3" stroke="#757575"/><path d="M678 237s.25-9.917 10-14" id="Path-3-Copy-2" stroke="#757575" transform="matrix(-1 0 0 1 1366 0)"/><path d="M695 237.5s1.313-10.185 14-12.5" id="Path-3-Copy" stroke="#757575"/><g id="Group-3" transform="translate(649 98)"><use id="Rectangle-28" stroke="#00A1EC" mask="url(#mask-41)" stroke-width="4" fill="url(#linearGradient-5)" xlink:href="#path-40"/><path d="M30 30.592h8.02v2.874h2.756v-2.874h1.53v-2.609h-1.53v-5.548h-2.757v5.548h-5.025l6.502-13.824h-3.073L30 27.983v2.61zm23.846-2.688V19.72c-.053-1.933-.954-2.917-2.704-2.952-1.758.035-2.655 1.02-2.69 2.952v8.184c.035 1.95.932 2.935 2.69 2.953 1.75-.018 2.651-1.002 2.704-2.953zm-8.151.159v-8.515c.018-1.783.585-3.156 1.701-4.118 1.047-.953 2.295-1.43 3.746-1.43 1.495 0 2.766.477 3.812 1.43 1.064.962 1.613 2.335 1.649 4.118v8.515c-.036 1.774-.585 3.143-1.65 4.105-1.045.953-2.316 1.439-3.81 1.456-1.452-.017-2.7-.503-3.747-1.456-1.116-.962-1.683-2.33-1.701-4.105zm14.297 2.53h8.02v2.873h2.756v-2.874h1.53v-2.609h-1.53v-5.548H68.01v5.548h-5.025l6.502-13.824h-3.073l-6.423 13.824v2.61z" id="404" fill="#FFF"/><path d="M0 23.003l.018 18.818c.006 6.17 4.988 11.171 11.133 11.171h59.725c6.145 0 11.12-5.002 11.115-11.174L81.972 23l-3.514.003.019 18.818c.004 4.223-3.398 7.643-7.6 7.643H11.15c-4.205 0-7.614-3.422-7.618-7.646L3.514 23 0 23.003z" id="Path-2" fill="#9B9B9B" fill-rule="nonzero"/><path id="Rectangle-27" fill="#757575" d="M22 51h39.243v4.116H22z"/><path id="Rectangle-27-Copy-3" fill="#757575" d="M32 137h20v4.116H32z"/><path id="Rectangle-27-Copy-2" fill="url(#linearGradient-3)" d="M40 67h4v70h-4z"/><path id="Rectangle-27-Copy" fill="#757575" d="M39 53h6v15.877h-6z"/></g><path d="M756.511 244H655.5" id="Path-4" stroke="#6F6F6F"/><path id="Rectangle-29" fill="#A3A3A3" d="M617 238h89v4h-89z"/><path id="Rectangle-29-Copy" fill="#919191" d="M678 241h100v3H678z"/><path id="Rectangle-29-Copy-2" fill="#A5A5A5" d="M518.553 249H645.65v5H518.553z"/><path d="M692.39 253.5H566.527" id="Path-4-Copy" stroke="#757575"/><path d="M159.928 178.399C154.182 176.655 150 171.316 150 165c0-7.732 6.268-14 14-14 5.911 0 10.966 3.663 13.02 8.844A18.433 18.433 0 01189.5 155c10.217 0 18.5 8.283 18.5 18.5s-8.283 18.5-18.5 18.5c-4.886 0-9.33-1.894-12.637-4.989A9.5 9.5 0 01159 182.5c0-1.469.333-2.86.928-4.101z" id="Combined-Shape" stroke="#07AEFC" fill="url(#linearGradient-5)"/><circle id="Oval-5-Copy-3" stroke="#07AEFC" fill="url(#linearGradient-5)" cx="195.5" cy="142.5" r="5.5"/><circle id="Oval-5-Copy-4" stroke="#07AEFC" fill="url(#linearGradient-5)" cx="225.5" cy="192.5" r="8.5"/><circle id="Oval-5-Copy-5" stroke="#07AEFC" fill="url(#linearGradient-5)" cx="249.5" cy="195.5" r="4.5"/><g id="Rectangle-32"><use fill="url(#linearGradient-5)" xlink:href="#path-42"/><use fill="#000" filter="url(#filter-43)" xlink:href="#path-42"/></g><path d="M403 72h3.429v3.429H403V72zm17.143 0h3.428v3.429h-3.428V72zm3.428 0H427v3.429h-3.429V72zM403 75.429h3.429v3.428H403V75.43zm17.143 0h3.428v3.428h-3.428V75.43zM403 78.857h3.429v3.429H403v-3.429zm17.143 0h3.428v3.429h-3.428v-3.429zM403 82.286h3.429v3.428H403v-3.428zm17.143 0h3.428v3.428h-3.428v-3.428zm-13.714 0h3.428v3.428h-3.428v-3.428zm13.714 3.428h3.428v3.429h-3.428v-3.429zm0 3.429h3.428v3.428h-3.428v-3.428zm0 3.428h3.428V96h-3.428v-3.429zm3.428 0H427V96h-3.429v-3.429zM427 72h3.429v3.429H427V72zm-17.143 10.286h3.429v3.428h-3.429v-3.428zM427 92.57h3.429V96H427v-3.429zM413.286 72h3.428v3.429h-3.428V72zm17.143 0h3.428v3.429h-3.428V72zm-17.143 3.429h3.428v3.428h-3.428V75.43zm17.143 0h3.428v3.428h-3.428V75.43zm-17.143 3.428h3.428v3.429h-3.428v-3.429zm17.143 0h3.428v3.429h-3.428v-3.429zm-17.143 3.429h3.428v3.428h-3.428v-3.428zm17.143 0h3.428v3.428h-3.428v-3.428zm-17.143 3.428h3.428v3.429h-3.428v-3.429zm17.143 0h3.428v3.429h-3.428v-3.429zm-17.143 3.429h3.428v3.428h-3.428v-3.428zm17.143 0h3.428v3.428h-3.428v-3.428zm-17.143 3.428h3.428V96h-3.428v-3.429zm17.143 0h3.428V96h-3.428v-3.429zM437.286 72h3.428v3.429h-3.428V72zm0 3.429h3.428v3.428h-3.428V75.43zm0 3.428h3.428v3.429h-3.428v-3.429zm0 3.429h3.428v3.428h-3.428v-3.428zm3.428 0h3.429v3.428h-3.429v-3.428zm3.429 0h3.428v3.428h-3.428v-3.428zM447.57 72H451v3.429h-3.429V72zm0 3.429H451v3.428h-3.429V75.43zm0 3.428H451v3.429h-3.429v-3.429zm0 3.429H451v3.428h-3.429v-3.428zm0 3.428H451v3.429h-3.429v-3.429zm0 3.429H451v3.428h-3.429v-3.428zm0 3.428H451V96h-3.429v-3.429z" id="Combined-Shape" fill="#FFF"/></g><g id="Page-1" transform="translate(669 131)" fill="#FFF"><path d="M13.568 16.742a.934.934 0 01-.945-.923c0-.51.424-.923.945-.923.521 0 .944.413.944.923s-.423.923-.944.923m1.42-2.51c.627.684.931.043 1.389.76.7 1.092-1.56 3.62-4.519 4.99-2.958 1.37-6.804.948-7.94-.76-.807-1.214-.667-2.635-.003-3.952l-2.833 1.3-1.055-2.456 3.683-1.649L0 6.05 9.934.46l3.245 8.055 2.31-1.191 1.088 2.131-2.341 1.075c.168.091.311.203.425.337 1.39 1.648-.3 2.682.327 3.365zM3.916 15.27c-.39.774-.6 1.585-.542 2.369l10.643-7.006-10.1 4.637z" id="Combined-Shape"/><path id="Fill-4" d="M4.5 20.534l.915 3.275h9.421l.532-5.161L8.89 22.57z"/></g></g></g></svg>