<svg version="1.1" id="Layer" xmlns="http://www.w3.org/2000/svg" x="0" y="0" viewBox="0 0 335.99 235.19" xml:space="preserve"><style>.st9{fill:#42245e}.st10{fill:#4f2775}.st11{opacity:.62;fill:#fff}.st12{fill:#5a5959}.st13{fill:#742e86}.st14{fill:#8d4c98}.st15{fill:#fddfc2}.st16{fill:#fff}.st17{fill:#312247}.st18{opacity:.5;fill:#fff}.st19,.st20{opacity:.1;fill:#fff}.st20{opacity:.25}</style><switch><g><linearGradient id="SVGID_1_" gradientUnits="userSpaceOnUse" x1="168.067" y1="188.925" x2="168.067" y2=".056"><stop offset="0" stop-color="#fddfc2"/><stop offset=".219" stop-color="#d8d5de"/><stop offset=".343" stop-color="#c5d0ea"/><stop offset=".377" stop-color="#c3c7e4"/><stop offset=".53" stop-color="#bb9eca"/><stop offset=".644" stop-color="#b781b7"/><stop offset=".704" stop-color="#b576b0"/><stop offset=".797" stop-color="#b375af"/><stop offset=".847" stop-color="#ac70aa"/><stop offset=".886" stop-color="#a067a1"/><stop offset=".92" stop-color="#8f5c95"/><stop offset=".95" stop-color="#794f87"/><stop offset=".978" stop-color="#604178"/><stop offset="1" stop-color="#47366a"/></linearGradient><path fill="url(#SVGID_1_)" d="M.13.06H336v188.87H.13z"/><radialGradient id="SVGID_2_" cx="77.118" cy="157.587" r="76.986" gradientUnits="userSpaceOnUse"><stop offset=".262" stop-color="#fdf9d7"/><stop offset=".602" stop-color="#fefbe7" stop-opacity=".54"/><stop offset="1" stop-color="#fff" stop-opacity="0"/></radialGradient><circle cx="77.12" cy="157.59" r="76.99" fill="url(#SVGID_2_)"/><linearGradient id="SVGID_3_" gradientUnits="userSpaceOnUse" x1="180.664" y1="186.783" x2="244.231" y2="76.682"><stop offset="0" stop-color="#efcfc8"/><stop offset=".059" stop-color="#e3c2c8"/><stop offset=".176" stop-color="#d1acc7"/><stop offset=".303" stop-color="#c59ec4"/><stop offset=".445" stop-color="#bd95c3"/><stop offset=".635" stop-color="#bb92c2"/><stop offset=".867" stop-color="#9e79b2"/><stop offset="1" stop-color="#8d6aa9"/></linearGradient><path fill="url(#SVGID_3_)" d="M269.05 81.3l-66.83 62.05L135.4 81.3 22.94 188.98l45.62-.05h267.32v-45.57z"/><linearGradient id="SVGID_4_" gradientUnits="userSpaceOnUse" x1="134.436" y1="119.478" x2="202.223" y2="119.478"><stop offset="0" stop-color="#bb92c2"/><stop offset="1" stop-color="#8d6aa9"/></linearGradient><path d="M202.22 143.35l-66.79-62.02c-2.15 8.42-3.18 28.07 23.01 50.68 9.24 7.98 19.22 17.32 28.81 25.61l14.97-14.27z" fill="url(#SVGID_4_)"/><linearGradient id="SVGID_5_" gradientUnits="userSpaceOnUse" x1="268.12" y1="119.463" x2="335.989" y2="119.463"><stop offset="0" stop-color="#8d6aa9"/><stop offset="1" stop-color="#715697"/></linearGradient><path d="M335.97 143.44l-66.85-62.11c-2.15 8.42-3.18 28.07 23.01 50.68 9.24 7.98 19.94 17.29 29.53 25.58h14.33l-.02-14.15z" fill="url(#SVGID_5_)"/><path d="M113.99 188.46c-3.52-.78-14.14-4.73-15.75-5.43-.19-.08-.39-.15-.59-.22l-3.27-13.41-2.49 10.22-1.97-8.09-1.68 6.9-1-4.09-1.48 6.1c-.32 0-.63.05-.94.12l-2.03-8.35-1.92 7.89c-.01 0-.01-.01-.02-.01l-3.02-12.4-2.55 10.49c-.16-.08-.31-.16-.48-.24l-1.92-7.89-1.66 6.83c-.4-.08-.79-.17-1.19-.25l-2.46-10.09-2.29 9.41-1.12-4.58-1.25 5.15c-.01 0-.03-.01-.04-.01-.32 0-.65.01-.97.01l-.89-3.65-.97 3.98c-.11.03-.21.07-.32.09-.03.01-.06.01-.09.02l-.52-2.12-.58 2.39c-.51.13-1.02.25-1.53.37l-1.04-4.26-1.12 4.58-2.29-9.41-2.56 10.53c-.12.03-.25.05-.37.07-.21.04-.41.09-.62.15l-1.76-7.24-2.19 8.98-2.76-11.35-1.57 6.44-1.25-5.14-2.68 11.01h-.16l-2.11-8.65-2.12 8.71h-.21l-2.98-12.23-2.29 9.41-1.12-4.58-1.76 7.22-1.39-5.71-1.19 4.87-.7-2.89-1.39 5.71-1.76-7.22-1.12 4.58-2.29-9.41-3.08 12.67-2.23-9.15-2.19 8.98-2.76-11.35-3.8 15.6h7.6l-.02-.09h106.27z" fill="#e4b9ba"/><path d="M290.01 188.46l-.02.09h7.6l-3.8-15.6-2.76 11.35-2.19-8.98-2.23 9.15-3.08-12.67-2.29 9.41-1.12-4.58-1.76 7.22-1.39-5.71-.7 2.89-1.19-4.87-1.39 5.71-1.76-7.22-1.12 4.58-2.29-9.41-2.98 12.23h-.21l-2.12-8.71-2.11 8.65h-.16l-2.68-11.01-1.25 5.14-1.57-6.44-2.76 11.35-2.19-8.98-1.76 7.24c-.2-.05-.41-.1-.62-.15-.12-.03-.25-.05-.37-.07l-2.56-10.53-2.29 9.41-1.12-4.58-1.04 4.26c-.51-.12-1.02-.24-1.53-.37l-.58-2.39-.52 2.12c-.03-.01-.06-.01-.09-.02l-.32-.09-.97-3.98-.89 3.65c-.32 0-.65-.01-.97-.01-.01 0-.02.01-.04.01l-1.25-5.15-1.12 4.58-2.29-9.41-2.46 10.09c-.4.08-.8.17-1.19.25l-1.66-6.83-1.92 7.89c-.16.07-.32.16-.48.24l-2.55-10.49-3.02 12.4c-.01 0-.01.01-.02.01l-1.92-7.89-2.03 8.35c-.31-.07-.62-.13-.94-.12l-1.48-6.1-1 4.09-1.68-6.9-1.97 8.09-2.49-10.22-3.27 13.41c-.19.08-.4.14-.59.22-1.61.7-3.79 4.64-7.31 5.43h97.83z" fill="#b576b0"/><linearGradient id="SVGID_6_" gradientUnits="userSpaceOnUse" x1="-.029" y1="211.883" x2="335.989" y2="211.883"><stop offset=".03" stop-color="#b15799"/><stop offset=".29" stop-color="#ac5699"/><stop offset=".629" stop-color="#a15299"/><stop offset="1" stop-color="#8d4c98"/></linearGradient><path fill="url(#SVGID_6_)" d="M-.03 188.52h336.02v46.73H-.03z"/><linearGradient id="SVGID_7_" gradientUnits="userSpaceOnUse" x1=".069" y1="173.056" x2="335.989" y2="173.056"><stop offset="0" stop-color="#58316c"/><stop offset=".239" stop-color="#573179"/><stop offset=".486" stop-color="#563081"/><stop offset=".738" stop-color="#553087"/><stop offset="1" stop-color="#552f88"/></linearGradient><path d="M335.99 188.52V157.6H.07v30.92h9.17v-20.5c0-3 4.04-5.42 9.03-5.42 4.99 0 9.03 2.43 9.03 5.42v20.5h9.19v-20.5c0-3 4.04-5.42 9.03-5.42 4.99 0 9.03 2.43 9.03 5.42v20.5h9.19v-20.5c0-3 4.04-5.42 9.03-5.42 4.99 0 9.03 2.43 9.03 5.42v20.5h9.19v-20.5c0-3 4.04-5.42 9.03-5.42 4.99 0 9.03 2.43 9.03 5.42v20.5h9.19v-20.5c0-3 4.04-5.42 9.03-5.42 4.99 0 9.03 2.43 9.03 5.42v20.5h9.24v-20.5c0-3 4.04-5.42 9.03-5.42 4.99 0 9.03 2.43 9.03 5.42v20.5h9.19v-20.5c0-3 4.04-5.42 9.03-5.42 4.99 0 9.03 2.43 9.03 5.42v20.5h9.19v-20.5c0-3 4.04-5.42 9.03-5.42 4.99 0 9.03 2.43 9.03 5.42v20.5h9.19v-20.5c0-3 4.04-5.42 9.03-5.42 4.99 0 9.03 2.43 9.03 5.42v20.5h9.19v-20.5c0-3 4.04-5.42 9.03-5.42 4.99 0 9.03 2.43 9.03 5.42v20.5h9.24v-20.5c0-3 4.04-5.42 9.03-5.42 4.99 0 9.03 2.43 9.03 5.42v20.5h9.19v-20.5c0-3 4.04-5.42 9.03-5.42 4.99 0 9.03 2.43 9.03 5.42v20.5h8.84z" fill="url(#SVGID_7_)"/><path class="st9" d="M302.93 185.07l1.95.05h.11l-3.27-7.62h1.61l-2.74-6.6h.99l-2.11-5.43h.94l-1.79-5.07.95-.02-1.86-5.66.75-.02c-1.56-4.21-2.51-11-2.51-11s-.02.14-.06.38c-.04-.24-.06-.38-.06-.38s-.95 6.79-2.51 11l.75.02-1.86 5.66.95.02-1.79 5.07.94-.01-2.11 5.43h.99l-2.74 6.6h1.61l-3.27 7.62 2.06-.05-4.14 9.28h22.34l-4.12-9.27zm-26.57 1.44l1.64.04h.1l-2.76-6.44h1.37l-2.32-5.58h.84l-1.78-4.59h.8l-1.52-4.29.8-.01-1.57-4.78.63-.02c-1.32-3.56-2.12-9.29-2.12-9.29s-.02.12-.05.32c-.03-.2-.05-.32-.05-.32s-.8 5.74-2.12 9.29l.63.02-1.57 4.78.8.01-1.52 4.29h.79l-1.78 4.59h.84l-2.32 5.58h1.36l-2.76 6.44 1.74-.04-3.49 7.84h18.88l-3.49-7.84zm-33.64 0l1.74.04-2.76-6.44h1.36l-2.32-5.58h.84l-1.78-4.59h.79l-1.52-4.29.8-.01-1.57-4.78.63-.02c-1.32-3.56-2.12-9.29-2.12-9.29s-.8 5.74-2.12 9.29l.63.02-1.57 4.78.8.01-1.52 4.29h.79l-1.78 4.59h.84l-2.32 5.58h1.36l-2.76 6.44 1.74-.04-3.49 7.84h18.78l-3.47-7.84z"/><path class="st10" d="M237.38 160.79l1.11 4.98-.8-.11 1.1 4.49-.79-.12 1.34 4.83-.83-.12 1.78 5.89-1.35-.21 2.14 6.81-1.72-.31 2.45 7.43h4.51l-3.49-7.84 1.74.04-2.76-6.44h1.36l-2.32-5.58h.84l-1.78-4.59h.79l-1.52-4.29.8-.01-1.57-4.78.63-.02c-1.32-3.56-2.12-9.29-2.12-9.29s-.03.24-.1.63c.11 1.76.44 5.82 1.18 8.68l-.62-.07z"/><path class="st9" d="M129.44 183.09l1.22.03-1.94-4.51h.96l-1.63-3.91h.59l-1.25-3.22h.56l-1.06-3.01.56-.01-1.1-3.35.44-.01c-.92-2.49-1.49-6.52-1.49-6.52s-.56 4.02-1.49 6.52l.44.01-1.1 3.35.56.01-1.06 3.01h.56l-1.25 3.22h.59l-1.63 3.91h.96l-1.94 4.51 1.22-.03-2.45 5.5h13.16l-2.43-5.5z"/><path class="st10" d="M125.69 165.06l.78 3.49-.56-.08.77 3.15-.55-.09.94 3.39-.58-.09 1.25 4.13-.95-.14 1.5 4.77-1.21-.22 1.72 5.21h3.16l-2.45-5.5 1.22.03-1.94-4.51h.96l-1.63-3.91h.59l-1.25-3.22h.56l-1.06-3.01.56-.01-1.1-3.35.44-.01c-.92-2.49-1.49-6.52-1.49-6.52s-.02.17-.07.44c.08 1.23.31 4.08.83 6.08l-.44-.03z"/><path class="st9" d="M259.1 183.09l1.15.03h.07l-1.94-4.51h.96l-1.63-3.91h.59l-1.25-3.22h.56l-1.06-3.01.56-.01-1.1-3.35.44-.01c-.92-2.49-1.49-6.52-1.49-6.52l-.03.23c-.02-.14-.03-.23-.03-.23s-.56 4.02-1.49 6.52l.44.01-1.1 3.35.56.01-1.06 3.01h.56l-1.25 3.22h.59l-1.63 3.91h.96l-1.94 4.51 1.22-.03-2.45 5.5h13.24l-2.45-5.5z"/><g id="snowing_1_"><path class="st11" d="M280.19 15.02c-.11.04-.17.16-.13.28.04.12.16.18.28.14.12-.04.17-.17.14-.28-.05-.12-.18-.18-.29-.14zM1.55 42.6c-.17.32-.03.7.28.86.31.16.69.04.85-.27a.62.62 0 00-.28-.85c-.3-.17-.69-.04-.85.26zm100.09 50.21a.842.842 0 01-1.05-.57.845.845 0 111.05.57zm77.14-23.71a.64.64 0 01-.79-.43c-.1-.33.09-.68.42-.78.33-.1.68.09.78.42a.63.63 0 01-.41.79zm27.37-36.42c-.1-.33-.47-.51-.8-.41a.64.64 0 00-.41.8c.11.33.46.52.79.41.35-.11.53-.46.42-.8zm64.27-11.75a.648.648 0 00-.8-.41c-.33.11-.51.46-.41.79.11.33.46.52.8.41.33-.1.51-.45.41-.79zM154.37 80.2c.17-.32.55-.43.86-.27.31.16.42.55.26.86-.17.31-.55.43-.86.26a.626.626 0 01-.26-.85zm37.32 37.68c.17-.3.54-.41.86-.25.3.16.42.55.26.85-.16.31-.55.42-.86.26a.624.624 0 01-.26-.86zm-59.04-76.6c.16-.31.54-.42.86-.27.3.17.42.56.26.87a.65.65 0 01-.86.26.638.638 0 01-.26-.86zm63.12 108.91a.648.648 0 00-.8-.41c-.33.11-.51.46-.41.79.11.33.46.51.8.41.33-.1.51-.46.41-.79zM95.4 136.35c-.1-.33-.47-.51-.8-.41-.33.11-.52.46-.41.8.11.33.46.52.79.41.34-.11.53-.46.42-.8zm108.13-.2a.648.648 0 00-.8-.41c-.33.11-.51.47-.41.8.11.33.46.51.8.41a.64.64 0 00.41-.8zm-43.87-11.55a.648.648 0 00-.8-.41c-.33.11-.51.46-.41.79.11.34.46.52.8.41.33-.09.51-.45.41-.79zm-6.61 22.13a.625.625 0 00-.79-.41c-.33.1-.51.46-.41.79.11.33.47.51.79.41.33-.1.52-.46.41-.79zm108.65-48.9a.648.648 0 00-.8-.41c-.33.11-.51.47-.41.8.11.33.46.51.8.41.33-.11.51-.46.41-.8zm6.18-37.52c-.11-.33-50.52 25.47-50.85 25.56-.33.11-.51.46-.41.79.11.33.46.52.8.41.33-.09 50.56-26.42 50.46-26.76zm-33.36 85.86a.84.84 0 00-1.06-.54.85.85 0 00-.55 1.06c.15.45.62.68 1.07.55.44-.15.68-.62.54-1.07zm-118.01 1.57c.17-.31.55-.43.86-.27.31.16.42.55.26.86a.64.64 0 01-.86.26.626.626 0 01-.26-.85zm-36.45-41.1c.16-.31.54-.42.86-.27.3.17.42.56.26.87a.65.65 0 01-.86.26.638.638 0 01-.26-.86zm15.46 44.34c.17-.31.55-.43.86-.26.31.17.43.55.26.86a.63.63 0 01-.86.26.644.644 0 01-.26-.86zm170.8-3.66c-.1-.33-.47-.51-.8-.41-.33.11-.52.46-.41.8.11.33.46.52.79.41.34-.11.52-.46.42-.8zm64.26-11.75a.648.648 0 00-.8-.41c-.33.11-.51.46-.41.79.11.33.46.52.8.41.33-.09.51-.45.41-.79zm-137.77 20.36c.16-.31.54-.43.86-.27.3.17.42.56.26.86a.64.64 0 01-.86.26.629.629 0 01-.26-.85zM31.3 63.6c-.1-.33-.47-.51-.8-.41a.64.64 0 00-.41.8c.11.33.46.51.79.41.34-.12.53-.47.42-.8zm-.51 48.69a.63.63 0 00-.79-.41c-.33.11-.51.46-.41.79.11.33.47.51.79.41.33-.1.51-.46.41-.79zm34.05 19.16a.637.637 0 00-.8-.42c-.33.11-.51.47-.41.8.1.33.47.52.79.41.35-.1.53-.46.42-.79zm76.05-14.98a.625.625 0 00-.79-.41c-.33.11-.51.46-.41.8a.63.63 0 001.2-.39zm-1.46-53.08a.648.648 0 00-.8-.41c-.33.12-.51.47-.41.8.11.34.47.52.8.41.34-.11.52-.47.41-.8zM95.57 51.85a.648.648 0 00-.8-.41c-.33.11-.51.46-.41.79a.633.633 0 001.21-.38zm-87.61 83.8c.22-.41.73-.57 1.14-.34.42.22.57.73.36 1.14-.23.42-.73.57-1.14.35a.862.862 0 01-.36-1.15zm222.83 2.22a.836.836 0 00-1.07-.54c-.44.14-.69.62-.54 1.06.14.44.62.68 1.07.55.44-.16.68-.64.54-1.07zm82.63-101.32a.636.636 0 10-1.21.39c.11.32.46.52.79.41a.63.63 0 00.42-.8zm-37.05 49.7c.17-.31.55-.43.86-.26.31.16.42.55.26.85a.63.63 0 01-.86.26.626.626 0 01-.26-.85zm22.59 35.5c.17-.31.55-.42.86-.27.3.17.42.55.25.86-.16.31-.55.42-.85.25-.32-.14-.43-.53-.26-.84zm-59.04-76.6a.63.63 0 01.86-.26c.3.17.42.55.26.86-.17.3-.54.42-.85.26a.633.633 0 01-.27-.86zm72.52 33.25a.62.62 0 01.85-.26c.31.16.43.55.26.86-.16.31-.55.42-.85.26a.64.64 0 01-.26-.86zm-22.35 30.2c.21-.42.73-.57 1.14-.35.41.22.57.73.35 1.15-.23.41-.73.57-1.14.34a.844.844 0 01-.35-1.14zM43.91 27.04a.416.416 0 01-.53-.28c-.07-.22.06-.46.29-.54.23-.07.46.06.53.28.06.23-.07.47-.29.54zm18.61.02a.567.567 0 01-.71-.38.59.59 0 01.38-.72c.3-.09.62.08.71.38.09.31-.09.63-.38.72zm-6.66-6.79c-.44.14-.9-.11-1.04-.55-.13-.44.11-.9.55-1.03.44-.14.91.11 1.04.55.14.43-.11.89-.55 1.03zm64.98 78.51c-.16.32-.03.7.27.85a.627.627 0 10.57-1.12c-.3-.17-.68-.04-.84.27zM56.47 55.6c-.17.32-.04.7.27.86.31.16.69.03.86-.27.16-.31.04-.69-.27-.86a.63.63 0 00-.86.27zm-23.21 84.76c-.16.31-.04.7.28.86.31.15.69.03.85-.28.17-.31.04-.69-.28-.85a.63.63 0 00-.85.27zm40.1-61.17c-.21.41-.05.93.37 1.14.41.2.92.05 1.14-.38.21-.41.05-.92-.36-1.13a.86.86 0 00-1.15.37zm93.69 41.26c-.34.1-.68-.09-.79-.42a.639.639 0 011.22-.37c.1.33-.09.69-.43.79zM43.74 156.57a.86.86 0 01-1.05-.57c-.13-.45.11-.92.56-1.06.45-.13.92.12 1.05.57a.86.86 0 01-.56 1.06zM224.47 23.28a.847.847 0 01-1.05-.57c-.14-.44.12-.92.56-1.05a.85.85 0 011.05.56c.15.45-.11.92-.56 1.06z"/><path class="st11" d="M224.47 23.28a.847.847 0 01-1.05-.57c-.14-.44.12-.92.56-1.05a.85.85 0 011.05.56c.15.45-.11.92-.56 1.06zm-41.81 22.15c-.1.14-.3.17-.44.07a.307.307 0 01-.07-.44c.1-.14.3-.17.44-.07.13.1.17.29.07.44zm-8.8-37.17c-.11.14-.3.18-.45.08a.33.33 0 01-.08-.45c.1-.14.3-.17.45-.08.14.11.18.31.08.45zm-9.84 42.35c-.1.14-.3.18-.44.08a.31.31 0 01-.08-.44c.1-.15.3-.18.44-.08.15.1.18.3.08.44zm-16.19-28.98c-.1.14-.3.18-.44.08a.33.33 0 01-.08-.45c.1-.15.3-.18.44-.08.15.1.18.3.08.45zm-29.58-3.8a.4.4 0 00.49.33c.23-.04.39-.26.34-.49a.414.414 0 00-.49-.34c-.24.05-.39.27-.34.5zm40.7-9.41c.03.18.2.29.37.25.18-.03.28-.2.26-.38a.326.326 0 00-.37-.25c-.18.03-.29.2-.26.38zm-13.37 32.99c.05.23.27.38.5.34a.426.426 0 00-.15-.84c-.24.05-.39.27-.35.5z"/></g><path class="st9" d="M4.4 153.56h.4v4.02h-.4z"/><path transform="rotate(90 168.005 155.573)" class="st9" d="M167.8-12.42h.4v335.98h-.4z"/><path class="st9" d="M24.44 153.56h.4v4.02h-.4zm18.26 0h.4v4.02h-.4zm20.04 0h.4v4.02h-.4zm18.26 0h.4v4.02H81zm20.04 0h.4v4.02h-.4zm18.26 0h.4v4.02h-.4zm20.04 0h.4v4.02h-.4zm18.26 0h.4v4.02h-.4zm20.04 0h.4v4.02h-.4zm18.26 0h.4v4.02h-.4zm20.04 0h.4v4.02h-.4zm18.26 0h.4v4.02h-.4zm20.04 0h.4v4.02h-.4zm18.26 0h.4v4.02h-.4zm20.04 0h.4v4.02h-.4zm18.26 0h.4v4.02h-.4zm20.04 0h.4v4.02h-.4z"/><g id="train"><path class="st12" d="M88.22 156.12a1.261 1.261 0 01-2.52 0c0-.7.57-1.26 1.26-1.26.69 0 1.26.57 1.26 1.26z"/><path class="st12" d="M86.95 157.61c-.82 0-1.48-.66-1.48-1.48s.66-1.48 1.48-1.48 1.48.66 1.48 1.48c.01.81-.66 1.48-1.48 1.48zm0-2.53a1.05 1.05 0 100 2.1 1.05 1.05 0 000-2.1zm6.97 1.04a1.261 1.261 0 01-2.52 0c0-.7.57-1.26 1.26-1.26.69 0 1.26.57 1.26 1.26z"/><path class="st12" d="M92.65 157.61c-.82 0-1.48-.66-1.48-1.48s.66-1.48 1.48-1.48 1.48.66 1.48 1.48c0 .81-.66 1.48-1.48 1.48zm0-2.53a1.05 1.05 0 100 2.1 1.05 1.05 0 000-2.1zm16.69 1.04a1.261 1.261 0 01-2.52 0c0-.7.57-1.26 1.26-1.26.69 0 1.26.57 1.26 1.26z"/><path class="st12" d="M108.07 157.61c-.82 0-1.48-.66-1.48-1.48s.66-1.48 1.48-1.48 1.48.66 1.48 1.48c.01.81-.66 1.48-1.48 1.48zm0-2.53a1.05 1.05 0 100 2.1 1.05 1.05 0 000-2.1zm6.97 1.04a1.261 1.261 0 01-2.52 0c0-.7.57-1.26 1.26-1.26.69 0 1.26.57 1.26 1.26z"/><path class="st12" d="M113.77 157.61c-.82 0-1.48-.66-1.48-1.48s.66-1.48 1.48-1.48 1.48.66 1.48 1.48c0 .81-.66 1.48-1.48 1.48zm0-2.53a1.05 1.05 0 100 2.1 1.05 1.05 0 000-2.1zm-79.52 1.04a1.261 1.261 0 01-2.52 0c0-.7.57-1.26 1.26-1.26.69 0 1.26.57 1.26 1.26z"/><path class="st12" d="M32.99 157.61c-.82 0-1.48-.66-1.48-1.48s.66-1.48 1.48-1.48 1.48.66 1.48 1.48c0 .81-.67 1.48-1.48 1.48zm0-2.53a1.05 1.05 0 101.05 1.05c-.01-.58-.48-1.05-1.05-1.05zm6.96 1.04a1.261 1.261 0 01-2.52 0c0-.7.57-1.26 1.26-1.26.69 0 1.26.57 1.26 1.26z"/><path class="st12" d="M38.69 157.61c-.82 0-1.48-.66-1.48-1.48s.66-1.48 1.48-1.48 1.48.66 1.48 1.48c0 .81-.67 1.48-1.48 1.48zm0-2.53a1.05 1.05 0 101.05 1.05c-.01-.58-.48-1.05-1.05-1.05zm10.53 1.04a1.261 1.261 0 01-2.52 0c0-.7.57-1.26 1.26-1.26.69 0 1.26.57 1.26 1.26z"/><path class="st12" d="M47.95 157.61c-.82 0-1.48-.66-1.48-1.48s.66-1.48 1.48-1.48 1.48.66 1.48 1.48c0 .81-.66 1.48-1.48 1.48zm0-2.53a1.05 1.05 0 100 2.1 1.05 1.05 0 000-2.1zm6.97 1.04a1.261 1.261 0 01-2.52 0c0-.7.57-1.26 1.26-1.26.69 0 1.26.57 1.26 1.26z"/><path class="st12" d="M53.65 157.61c-.82 0-1.48-.66-1.48-1.48s.66-1.48 1.48-1.48 1.48.66 1.48 1.48c0 .81-.66 1.48-1.48 1.48zm0-2.53a1.05 1.05 0 100 2.1 1.05 1.05 0 000-2.1zm11.09 1.04a1.261 1.261 0 01-2.52 0 1.261 1.261 0 012.52 0z"/><path class="st12" d="M63.48 157.61c-.82 0-1.48-.66-1.48-1.48s.66-1.48 1.48-1.48 1.48.66 1.48 1.48c0 .81-.67 1.48-1.48 1.48zm0-2.53a1.05 1.05 0 100 2.1 1.05 1.05 0 000-2.1zm6.96 1.04a1.261 1.261 0 11-1.26-1.26c.7 0 1.26.57 1.26 1.26z"/><path class="st12" d="M69.18 157.61c-.82 0-1.48-.66-1.48-1.48s.66-1.48 1.48-1.48 1.48.66 1.48 1.48c0 .81-.67 1.48-1.48 1.48zm0-2.53a1.05 1.05 0 101.05 1.05c-.01-.58-.48-1.05-1.05-1.05z"/><path class="st13" d="M76.47 143.97h47.79v10.59H76.47z"/><path class="st14" d="M76.45 145.68h47.91v6.82H76.45z"/><path class="st13" d="M26.09 152.74c.09 1.15.41 1.96 2.23 1.96h47.21v-2.2H26.09s-.01.09 0 .24z"/><path class="st15" d="M78.17 147.5h7.34v3.23h-7.34zm9.33 0h7.34v3.23H87.5zm9.34 0h7.34v3.23h-7.34zm9.34 0h7.34v3.23h-7.34zm9.34 0h7.34v3.23h-7.34z"/><path class="st16" d="M26.42 150.89h15.37v-5.21h-9.41c-4.05 2.05-5.96 5.21-5.96 5.21z"/><path class="st14" d="M41.79 145.71v5.18H26.42c-.29.43-.35.95-.35 1.62-.01-.03 49.46-.01 49.46-.01v-6.79H41.79z"/><path class="st13" d="M41.79 143.97h-2.05c-2.97 0-5.41.73-7.36 1.71h43.15v-1.71H41.79z"/><path class="st15" d="M66.45 147.5h7.34v3.23h-7.34zm-10.31 0h7.34v3.23h-7.34zm-10.31 0h7.34v3.23h-7.34z"/><path class="st12" d="M166.8 156.12a1.261 1.261 0 101.26-1.26c-.69 0-1.26.57-1.26 1.26z"/><path class="st12" d="M166.59 156.12c0-.82.66-1.48 1.48-1.48s1.48.66 1.48 1.48-.66 1.48-1.48 1.48a1.47 1.47 0 01-1.48-1.48zm.43 0a1.05 1.05 0 102.1 0 1.05 1.05 0 00-2.1 0zm-5.92 0a1.261 1.261 0 101.26-1.26c-.69 0-1.26.57-1.26 1.26z"/><path class="st12" d="M160.89 156.12c0-.82.66-1.48 1.48-1.48s1.48.66 1.48 1.48-.67 1.48-1.48 1.48a1.47 1.47 0 01-1.48-1.48zm.43 0a1.05 1.05 0 101.05-1.05c-.58.01-1.05.48-1.05 1.05zm-9.48 0a1.261 1.261 0 102.522-.002 1.261 1.261 0 00-2.522.002z"/><path class="st12" d="M151.62 156.12c0-.82.66-1.48 1.48-1.48s1.48.66 1.48 1.48-.66 1.48-1.48 1.48a1.47 1.47 0 01-1.48-1.48zm.43 0a1.05 1.05 0 101.05-1.05c-.58.01-1.05.48-1.05 1.05zm-5.91 0a1.261 1.261 0 002.52 0 1.261 1.261 0 00-2.52 0z"/><path class="st12" d="M145.92 156.12c0-.82.66-1.48 1.48-1.48s1.48.66 1.48 1.48-.66 1.48-1.48 1.48a1.47 1.47 0 01-1.48-1.48zm.43 0a1.05 1.05 0 101.05-1.05c-.58.01-1.05.48-1.05 1.05zm-10.04 0a1.261 1.261 0 101.26-1.26c-.69 0-1.26.57-1.26 1.26z"/><path class="st12" d="M136.09 156.12c0-.82.66-1.48 1.48-1.48s1.48.66 1.48 1.48-.66 1.48-1.48 1.48c-.81.01-1.48-.66-1.48-1.48zm.44 0a1.05 1.05 0 101.05-1.05c-.58.01-1.05.48-1.05 1.05zm-5.92 0a1.261 1.261 0 101.26-1.26c-.69 0-1.26.57-1.26 1.26z"/><path class="st12" d="M130.4 156.12c0-.82.66-1.48 1.48-1.48s1.48.66 1.48 1.48-.67 1.48-1.48 1.48a1.47 1.47 0 01-1.48-1.48zm.43 0a1.05 1.05 0 101.05-1.05c-.58.01-1.05.48-1.05 1.05z"/><path class="st13" d="M174.97 152.74c-.09 1.15-.41 1.96-2.23 1.96h-47.21v-2.2h49.45c-.01 0 0 .09-.01.24z"/><path class="st16" d="M174.63 150.89h-15.37v-5.21h9.41c4.06 2.05 5.96 5.21 5.96 5.21z"/><path class="st14" d="M174.63 150.89h-15.37v-5.18h-33.74v6.79s49.47-.02 49.46.01c0-.67-.06-1.19-.35-1.62z"/><path class="st13" d="M159.26 143.97h2.05c2.97 0 5.41.73 7.36 1.71h-43.15v-1.71h33.74z"/><path class="st15" d="M127.27 147.5h7.34v3.23h-7.34zm10.3 0h7.34v3.23h-7.34zm10.31 0h7.34v3.23h-7.34z"/></g><path class="st9" d="M108.84 185.07l2.06.05-3.27-7.62h1.61l-2.74-6.6h.99l-2.11-5.43.94.01-1.79-5.07.95-.02-1.86-5.66.75-.02c-1.56-4.21-2.51-11-2.51-11s-.95 6.79-2.51 11l.75.02-1.86 5.66.95.02-1.79 5.07.94-.01-2.11 5.43h.99l-2.74 6.6h1.61l-3.27 7.62 2.06-.05-4.14 9.28h22.22l-4.12-9.28z"/><path class="st10" d="M102.52 154.64l1.32 5.9-.95-.13 1.31 5.31-.93-.15 1.58 5.71-.99-.15 2.11 6.97-1.6-.24 2.53 8.06-2.04-.36 2.89 8.8h5.34l-4.14-9.28 2.06.05-3.27-7.62h1.61l-2.74-6.6h.99l-2.11-5.43.94.01-1.79-5.07.95-.02-1.86-5.66.75-.02c-1.56-4.21-2.51-11-2.51-11s-.04.28-.11.75c.13 2.08.52 6.89 1.4 10.27l-.74-.1z"/><path class="st17" d="M257.91 200.06h.1l8.15 4.72h1.46l7.03 4.09h.93l5.86 3.36h.89l5.58 3.14.94.01 6.3 3.5.77.01c4.47 2.61 13.2 6.81 13.2 6.81s-.22-.09-.6-.24c.3.15.49.24.49.24s-10.63-4.21-18.16-6.81l.71-.01-9.83-3.5.9-.01-8.89-3.14h.9l-9.63-3.37h.92l-11.78-4.09h1.46l-13.57-4.72 1.88.03-16.48-5.75h18.88l9.96 5.74 1.63-.01zm-120.72-7.42h.07l3.1 3.31h1.03l2.69 2.86h.65l2.28 2.36h.61l2.22 2.2.65.01 2.54 2.45.52.01c1.75 1.83 5.62 4.77 5.62 4.77s-.11-.06-.29-.17c.13.1.21.17.21.17s-5.17-2.95-9.03-4.77l.5-.01-5-2.46.63-.01-4.54-2.2h.62l-4.95-2.36h.64l-6.09-2.86h1.03l-7.04-3.31 1.32.02-8.58-4.03h13.63l3.77 4.03 1.19-.01zm-16.6 8.46h.12l4.46 5.58h1.75l3.81 4.83h1.11l3.2 3.98h1.07l3.11 3.72 1.13.01 3.56 4.14.92.02c2.38 3.08 8.05 8.05 8.05 8.05s-.17-.1-.45-.28c.19.17.31.28.31.28s-7.98-4.97-14.06-8.06l.88-.02-7.82-4.14 1.1-.01-7.09-3.72h1.08l-7.72-3.98h1.11l-9.45-4.83h1.75l-10.86-5.58 2.21.04-13.13-6.79h22.34l5.52 6.79 1.99-.03zm215.44 19.78v-1.53c-.31-.16-.61-.31-.9-.45l-.77-.01-7.11-3.5-.95-.01-6.31-3.14h-.89l-6.63-3.37h-.93l-7.98-4.09h-1.46l-9.24-4.72h-.1l-1.63.03-11.29-5.75h-18.88l17.81 5.75-1.89-.03 14.66 4.72h-1.46l12.72 4.09h-.92l10.41 3.37h-.9l9.61 3.14-.9.01 10.64 3.5-.71.01c1.9.6 3.95 1.28 6 1.98zm0-9.7v-4.49h-.38l-11.93-5.58h-.12l-1.93.03-14.61-6.8h-22.34l22.23 6.81-2.26-.04 18.32 5.58h-1.75z"/><path class="st16" d="M283.77 66.08c-.26 0-.48.22-.48.48 0 .27.21.48.48.48s.48-.21.48-.48a.48.48 0 00-.48-.48zm-46.59-1.87c.16 0 .28-.13.28-.28 0-.16-.13-.29-.28-.29-.16 0-.28.13-.28.29 0 .15.12.28.28.28zm11.85 28.35c.16 0 .28-.13.28-.28 0-.16-.13-.29-.28-.29a.29.29 0 00-.29.29c.01.15.13.28.29.28zm57.67-12.47c-.16 0-.28.13-.28.29 0 .16.13.28.28.28.16 0 .29-.13.29-.28-.01-.16-.13-.29-.29-.29zm16.98-36.08c.16 0 .28-.13.28-.28 0-.16-.13-.29-.28-.29s-.28.13-.28.29c0 .15.13.28.28.28z"/><path class="st18" d="M322.02 64.32a.48.48 0 00-.48.48c0 .26.22.48.48.48a.48.48 0 000-.96z"/><path class="st19" d="M307.08 62.5a.73.73 0 00-.73.74.736.736 0 001.47 0c0-.41-.33-.74-.74-.74z"/><path class="st20" d="M280.22 101.26c-.41 0-.73.33-.73.73s.33.73.73.73c.41 0 .73-.33.73-.73s-.33-.73-.73-.73z"/><path class="st16" d="M327.86 60.39c.27 0 .48-.21.48-.48s-.21-.48-.48-.48-.48.21-.48.48c0 .26.21.48.48.48z"/><path class="st18" d="M300.7 94.42a.48.48 0 10.48.48c0-.27-.21-.48-.48-.48z"/><path class="st16" d="M276.76 95.31c-.41 0-.74.33-.74.73a.736.736 0 001.47 0c0-.4-.32-.73-.73-.73z"/><path class="st19" d="M294.42 78.62c-.41 0-.73.33-.73.73 0 .41.33.73.73.73.41 0 .73-.33.73-.73 0-.4-.33-.73-.73-.73z"/><path class="st20" d="M331.41 25.2c.41 0 .73-.33.73-.73 0-.41-.33-.73-.73-.73s-.74.33-.74.73c0 .4.33.73.74.73z"/><path class="st16" d="M206.07 63.01c-.27 0-.48.21-.48.48s.21.48.48.48.48-.21.48-.48-.21-.48-.48-.48z"/><path class="st18" d="M202.48 58.43a.48.48 0 00-.48.48c0 .27.21.48.48.48s.48-.21.48-.48c0-.26-.22-.48-.48-.48z"/><path class="st19" d="M234.11 83.54c.41 0 .74-.33.74-.73 0-.41-.33-.74-.74-.74a.73.73 0 00-.73.74c0 .4.33.73.73.73z"/><path class="st20" d="M323.54 97.55a.73.73 0 00-.73.74.736.736 0 001.47 0 .751.751 0 00-.74-.74z"/><path class="st16" d="M258.58 33.97c-.27 0-.48.21-.48.48s.21.48.48.48a.48.48 0 000-.96z"/><path class="st18" d="M302.62 46.44a.48.48 0 100 .96.48.48 0 000-.96z"/><path class="st16" d="M278.68 47.34a.73.73 0 100 1.46c.41 0 .73-.33.73-.73.01-.4-.32-.73-.73-.73z"/><path class="st19" d="M281.9 30.39c-.41 0-.73.33-.73.73 0 .41.33.73.73.73.41 0 .73-.33.73-.73 0-.4-.33-.73-.73-.73z"/><path class="st20" d="M329.49 73.18c.41 0 .73-.33.73-.74s-.33-.73-.73-.73c-.41 0-.73.33-.73.73-.01.41.32.74.73.74z"/><path class="st16" d="M325.94 93.65c-.27 0-.48.21-.48.48 0 .26.21.48.48.48.26 0 .48-.22.48-.48s-.22-.48-.48-.48z"/><path class="st18" d="M201.32 89.71a.48.48 0 100 .96.48.48 0 000-.96z"/><circle class="st16" cx="238.48" cy="34.58" r=".73"/><path class="st19" d="M235.26 52.26c.41 0 .73-.33.73-.73 0-.41-.33-.73-.73-.73-.41 0-.73.33-.73.73 0 .4.33.73.73.73z"/><path class="st20" d="M262.13 13.5c.41 0 .73-.33.73-.74s-.33-.73-.73-.73c-.41 0-.73.33-.73.73-.01.41.32.74.73.74z"/><path class="st16" d="M19.93 88.82c.16 0 .29-.13.29-.28a.29.29 0 00-.29-.29c-.16 0-.28.13-.28.29 0 .15.12.28.28.28zm74.65-48.55c.16 0 .28-.13.28-.29a.28.28 0 00-.28-.28c-.16 0-.29.13-.29.28.01.16.13.29.29.29z"/><path class="st18" d="M27.61 60.04c.27 0 .48-.21.48-.48a.48.48 0 00-.48-.48c-.27 0-.48.21-.48.48 0 .26.21.48.48.48z"/><path class="st20" d="M75.2 37.33c.41 0 .73-.33.73-.73 0-.41-.33-.73-.73-.73-.41 0-.73.33-.73.73-.01.4.32.73.73.73z"/><path class="st16" d="M98.76 56.65c.27 0 .48-.22.48-.48 0-.27-.21-.48-.48-.48s-.48.21-.48.48c0 .26.21.48.48.48zM78.65 43.28c.41 0 .73-.33.73-.73 0-.41-.33-.73-.73-.73-.41 0-.73.33-.73.73 0 .4.33.73.73.73z"/><circle class="st20" cx="102.31" cy="20.73" r=".73"/><circle class="st16" cx="28.33" cy="75.74" r=".48"/><path class="st20" d="M31.88 41.04a.736.736 0 000-1.47.73.73 0 00-.73.74c-.01.4.32.73.73.73z"/><path class="st16" d="M96.84 104.62c.27 0 .48-.21.48-.48a.48.48 0 00-.48-.48c-.27 0-.48.21-.48.48s.21.48.48.48z"/><path class="st18" d="M39.18 13.22c.27 0 .48-.21.48-.48a.48.48 0 10-.48.48z"/><path class="st16" d="M63.12 12.33c.41 0 .73-.33.73-.74s-.33-.73-.73-.73-.73.33-.73.73c-.01.41.32.74.73.74z"/><path class="st19" d="M59.9 29.28c.41 0 .73-.33.73-.73a.736.736 0 00-1.47 0c.01.4.34.73.74.73z"/><path class="st20" d="M100.39 69.44c.41 0 .73-.33.73-.74s-.33-.73-.73-.73a.736.736 0 000 1.47z"/><path class="st16" d="M29.48 44.94a.48.48 0 10-.48-.48c0 .27.21.48.48.48z"/><path class="st20" d="M33.03 9.76c.41 0 .73-.33.73-.74s-.33-.73-.73-.73c-.41 0-.73.33-.73.73-.01.41.32.74.73.74z"/><path class="st16" d="M135.99 65.68a.477.477 0 01-.34-.59c.07-.26.33-.41.59-.34.26.07.41.33.34.59-.07.25-.33.41-.59.34zm79.35-10.06c.15.04.24.2.2.35-.04.15-.2.24-.35.2a.288.288 0 01-.2-.35c.04-.15.19-.24.35-.2zm-33.53 39.06a.288.288 0 01-.2-.35c.04-.15.2-.24.35-.2.15.04.24.2.2.35-.04.15-.2.24-.35.2zM161.75 58a.288.288 0 01-.2-.35c.04-.15.2-.24.35-.2.15.04.24.2.2.35-.05.15-.2.24-.35.2zm-39.68-29.36a.288.288 0 01-.2-.35c.04-.15.2-.24.35-.2.15.04.24.2.2.35-.04.15-.19.24-.35.2z"/><path class="st18" d="M181.76 64.89a.477.477 0 01-.34-.59c.07-.26.33-.41.59-.34a.482.482 0 01-.25.93z"/><path class="st19" d="M157.61 75.11a.731.731 0 01-.52-.9c.1-.39.51-.63.9-.52a.735.735 0 11-.38 1.42z"/><path class="st20" d="M141.56 30.76a.731.731 0 01-.52-.9c.1-.39.51-.63.9-.52a.735.735 0 11-.38 1.42z"/><path class="st16" d="M113.85 43.4a.477.477 0 01-.34-.59c.07-.26.33-.41.59-.34a.482.482 0 01-.25.93z"/><path class="st18" d="M159.61 42.62a.477.477 0 01-.34-.59c.07-.26.33-.41.59-.34.26.07.41.33.34.59-.07.25-.33.41-.59.34z"/><path class="st16" d="M136.7 35.62a.731.731 0 01-.52-.9c.1-.39.51-.63.9-.52.39.1.63.51.52.9-.1.39-.51.63-.9.52z"/><path class="st19" d="M149.5 56.28a.731.731 0 01-.52-.9c.1-.39.51-.63.9-.52a.736.736 0 01-.38 1.42z"/><path class="st20" d="M119.42 8.48a.731.731 0 01-.52-.9c.1-.39.51-.63.9-.52a.736.736 0 01-.38 1.42z"/><path class="st16" d="M144 88.53a.477.477 0 01-.34-.59c.07-.26.33-.41.59-.34.26.07.41.33.34.59-.08.26-.34.41-.59.34z"/><path class="st18" d="M198.6 35.26c.26.07.41.33.34.59-.07.26-.33.41-.59.34a.477.477 0 01-.34-.59c.07-.25.33-.4.59-.34z"/><path class="st19" d="M217.32 36.14c.39.1.63.51.52.9-.1.39-.51.63-.9.52a.735.735 0 11.38-1.42z"/><path class="st20" d="M182.49 45.43a.731.731 0 01-.52-.9c.1-.39.51-.63.9-.52a.735.735 0 11-.38 1.42z"/><path class="st16" d="M103.42 90.27c-.26-.07-.41-.33-.34-.59s.33-.41.59-.34c.26.07.41.33.34.59-.07.26-.33.41-.59.34z"/><path class="st18" d="M130.43 67.04a.477.477 0 01-.34-.59c.07-.26.33-.41.59-.34s.41.33.34.59c-.07.26-.33.41-.59.34z"/><path class="st16" d="M126.28 82.49a.731.731 0 01-.52-.9c.1-.39.51-.63.9-.52a.736.736 0 01-.38 1.42z"/><path class="st19" d="M125.05 99.7a.731.731 0 01-.52-.9c.1-.39.51-.63.9-.52a.736.736 0 01-.38 1.42z"/><path class="st20" d="M109 55.35a.731.731 0 01-.52-.9c.1-.39.51-.63.9-.52a.736.736 0 01-.38 1.42z"/><path class="st16" d="M183.81 49.82a.477.477 0 01-.34-.59c.07-.26.33-.41.59-.34.26.07.41.33.34.59-.07.25-.33.41-.59.34z"/><path class="st18" d="M229.58 49.03a.477.477 0 01-.34-.59c.07-.26.33-.41.59-.34.26.07.41.33.34.59-.07.26-.33.41-.59.34z"/><path class="st16" d="M182.5 30.97a.731.731 0 01-.52-.9c.1-.39.51-.63.9-.52.39.1.63.51.52.9-.1.39-.51.63-.9.52z"/><path class="st19" d="M210.42 66.67c.39.1.63.51.52.9-.1.39-.51.63-.9.52a.731.731 0 01-.52-.9c.11-.39.51-.62.9-.52z"/><path class="st20" d="M189.39 14.9a.731.731 0 01-.52-.9c.1-.39.51-.63.9-.52.39.1.63.51.52.9-.11.39-.51.62-.9.52z"/><path class="st16" d="M97.72 45.7c-.16 0-.28-.13-.28-.28s.13-.28.28-.28c.16 0 .29.13.29.28s-.13.28-.29.28zM85.87 74.06a.29.29 0 01-.29-.29c0-.16.13-.28.29-.28.16 0 .29.13.29.28 0 .16-.13.29-.29.29zM11.22 25.5a.28.28 0 01-.28-.28c0-.16.13-.29.28-.29.16 0 .29.13.29.29 0 .16-.13.28-.29.28z"/><path class="st18" d="M12.89 45.82c.26 0 .48.21.48.48s-.21.48-.48.48-.48-.21-.48-.48.21-.48.48-.48z"/><circle class="st20" cx="54.69" cy="83.5" r=".73"/><path class="st16" d="M7.05 41.89a.48.48 0 01-.48-.48c0-.26.22-.48.48-.48.27 0 .48.21.48.48 0 .26-.22.48-.48.48z"/><path class="st18" d="M34.2 75.92c.26 0 .48.21.48.48s-.21.48-.48.48-.48-.21-.48-.48.22-.48.48-.48z"/><path class="st16" d="M58.14 76.81c.41 0 .73.33.73.73 0 .41-.33.73-.73.73s-.73-.33-.73-.73c0-.4.33-.73.73-.73z"/><path class="st20" d="M3.5 6.7c-.41 0-.73-.33-.73-.73 0-.41.33-.73.73-.73.41 0 .73.33.73.73 0 .4-.32.73-.73.73z"/><path class="st16" d="M128.83 44.5a.48.48 0 11-.48.48c0-.26.22-.48.48-.48z"/><circle class="st18" cx="132.43" cy="40.41" r=".48"/><path class="st19" d="M100.79 65.04c-.41 0-.73-.33-.73-.73 0-.41.33-.73.73-.73.41 0 .73.33.73.73.01.4-.32.73-.73.73z"/><path class="st20" d="M11.37 79.05c.41 0 .73.33.73.73a.736.736 0 01-1.47 0c0-.4.33-.73.74-.73z"/><path class="st16" d="M76.33 15.47c.27 0 .48.21.48.48s-.21.48-.48.48-.48-.21-.48-.48.21-.48.48-.48z"/><path class="st18" d="M32.28 27.94c.27 0 .48.21.48.48 0 .26-.21.48-.48.48s-.48-.21-.48-.48c.01-.27.22-.48.48-.48z"/><path class="st16" d="M56.22 28.84c.41 0 .74.33.74.73 0 .41-.33.74-.74.74a.73.73 0 01-.73-.74c0-.41.33-.73.73-.73z"/><path class="st19" d="M53.01 11.89a.736.736 0 010 1.47c-.4 0-.73-.33-.73-.74s.32-.73.73-.73z"/><path class="st20" d="M5.42 54.68c-.41 0-.73-.33-.73-.73 0-.41.33-.73.73-.73.41 0 .73.33.73.73 0 .4-.33.73-.73.73z"/><path class="st16" d="M8.97 75.15c.27 0 .48.22.48.48 0 .27-.21.48-.48.48s-.48-.21-.48-.48.21-.48.48-.48z"/><path class="st18" d="M133.58 71.21c.26 0 .48.22.48.48 0 .27-.21.48-.48.48s-.48-.21-.48-.48c0-.26.22-.48.48-.48z"/><path class="st16" d="M96.43 16.81a.736.736 0 010-1.47c.41 0 .73.33.73.74 0 .4-.33.73-.73.73z"/><path class="st19" d="M99.64 33.76a.736.736 0 010-1.47c.41 0 .73.33.73.74.01.4-.32.73-.73.73z"/><path class="st16" d="M314.97 70.31c-.16 0-.28-.13-.28-.29 0-.16.13-.28.28-.28s.28.13.28.28c.01.17-.12.29-.28.29zm-74.65-48.55a.28.28 0 01-.28-.28c0-.16.13-.29.28-.29.16 0 .29.13.29.29 0 .16-.13.28-.29.28z"/><path class="st18" d="M307.3 41.54c-.27 0-.48-.21-.48-.48s.21-.48.48-.48.48.21.48.48c0 .26-.22.48-.48.48z"/><path class="st20" d="M259.71 18.82a.73.73 0 110-1.46c.41 0 .73.33.73.73 0 .41-.33.73-.73.73z"/><path class="st16" d="M236.15 38.14a.48.48 0 01-.48-.48c0-.27.21-.48.48-.48s.48.21.48.48-.21.48-.48.48zm20.1-13.37c-.41 0-.73-.33-.73-.73 0-.41.33-.73.73-.73.41 0 .73.33.73.73.01.4-.32.73-.73.73zm50.33 32.95c-.27 0-.48-.21-.48-.48a.48.48 0 01.96 0c0 .26-.22.48-.48.48z"/><path class="st20" d="M303.03 22.53c-.41 0-.73-.33-.73-.73 0-.41.33-.73.73-.73.41 0 .73.33.73.73 0 .4-.33.73-.73.73z"/><path class="st16" d="M238.07 86.12c-.26 0-.48-.22-.48-.48 0-.27.22-.48.48-.48.27 0 .48.21.48.48 0 .26-.22.48-.48.48z"/><path class="st19" d="M275 10.77a.73.73 0 01-.73-.74c0-.41.33-.73.73-.73.41 0 .73.33.73.73.01.41-.32.74-.73.74z"/><circle class="st20" cx="234.52" cy="50.2" r=".73"/><path class="st16" d="M305.43 26.44a.48.48 0 01-.48-.48c0-.27.21-.48.48-.48s.48.21.48.48c0 .26-.22.48-.48.48zM198.92 47.18c.26-.07.41-.33.34-.59a.477.477 0 00-.59-.34c-.26.07-.41.33-.34.59.07.25.33.4.59.34zm-79.35-10.06c-.15.04-.24.2-.2.35.04.15.2.24.35.2.15-.04.24-.2.2-.35-.04-.15-.2-.25-.35-.2zm33.52 39.05c.15-.04.24-.2.2-.35a.288.288 0 00-.35-.2c-.15.04-.24.2-.2.35.05.15.2.24.35.2zm20.07-36.67c.15-.04.24-.2.2-.35a.288.288 0 00-.35-.2c-.15.04-.24.2-.2.35.04.15.2.24.35.2zm39.67-29.37c.15-.04.24-.2.2-.35a.288.288 0 00-.35-.2c-.15.04-.24.2-.2.35.04.15.2.24.35.2z"/><path class="st18" d="M153.15 46.39c.26-.07.41-.33.34-.59a.477.477 0 00-.59-.34c-.26.07-.41.33-.34.59.07.25.33.41.59.34z"/><path class="st19" d="M177.29 56.6c.39-.1.63-.51.52-.9a.731.731 0 00-.9-.52.736.736 0 00.38 1.42z"/><path class="st20" d="M193.34 12.25c.39-.1.63-.51.52-.9a.731.731 0 00-.9-.52.736.736 0 00.38 1.42z"/><path class="st16" d="M221.06 24.9c.26-.07.41-.33.34-.59a.477.477 0 00-.59-.34c-.26.07-.41.33-.34.59.07.26.33.41.59.34z"/><path class="st18" d="M175.29 24.11c.26-.07.41-.33.34-.59a.477.477 0 00-.59-.34.482.482 0 00.25.93z"/><path class="st16" d="M198.2 17.12c.39-.1.63-.51.52-.9a.731.731 0 00-.9-.52c-.39.1-.63.51-.52.9.11.39.51.62.9.52z"/><path class="st19" d="M185.41 37.78c.39-.1.63-.51.52-.9a.731.731 0 00-.9-.52c-.39.1-.63.51-.52.9.11.39.51.62.9.52z"/><path class="st16" d="M190.91 70.03c.26-.07.41-.33.34-.59-.07-.26-.33-.41-.59-.34s-.41.33-.34.59c.07.26.33.41.59.34z"/><path class="st18" d="M136.31 16.76c-.26.07-.41.33-.34.59.07.26.33.41.59.34.26-.07.41-.33.34-.59-.08-.25-.34-.41-.59-.34z"/><path class="st19" d="M117.59 17.64c-.39.1-.63.51-.52.9.1.39.51.63.9.52a.736.736 0 00-.38-1.42z"/><path class="st20" d="M152.41 26.93c.39-.1.63-.51.52-.9a.731.731 0 00-.9-.52c-.39.1-.63.51-.52.9.11.39.51.62.9.52z"/><path class="st16" d="M231.48 71.77c.26-.07.41-.33.34-.59a.477.477 0 00-.59-.34.482.482 0 00.25.93z"/><path class="st18" d="M204.47 48.54c.26-.07.41-.33.34-.59a.477.477 0 00-.59-.34c-.26.07-.41.33-.34.59.07.25.33.41.59.34z"/><path class="st16" d="M208.63 63.99c.39-.1.63-.51.52-.9a.731.731 0 00-.9-.52c-.39.1-.63.51-.52.9.1.39.51.62.9.52z"/><path class="st19" d="M209.86 81.2c.39-.1.63-.51.52-.9a.731.731 0 00-.9-.52c-.39.1-.63.51-.52.9.1.39.51.62.9.52z"/><path class="st20" d="M225.91 36.85c.39-.1.63-.51.52-.9a.731.731 0 00-.9-.52c-.39.1-.63.51-.52.9.11.39.51.62.9.52z"/><path class="st16" d="M151.09 31.32c.26-.07.41-.33.34-.59a.477.477 0 00-.59-.34c-.26.07-.41.33-.34.59.07.25.34.4.59.34z"/><path class="st18" d="M105.32 30.53c.26-.07.41-.33.34-.59a.477.477 0 00-.59-.34c-.26.07-.41.33-.34.59.08.25.34.41.59.34z"/><path class="st16" d="M152.4 12.47c.39-.1.63-.51.52-.9a.731.731 0 00-.9-.52c-.39.1-.63.51-.52.9.11.39.51.62.9.52z"/><path class="st19" d="M124.48 48.17c-.39.1-.63.51-.52.9.1.39.51.63.9.52.39-.1.63-.51.52-.9a.74.74 0 00-.9-.52z"/><linearGradient id="Group_1_" gradientUnits="userSpaceOnUse" x1=".069" y1="217.073" x2="335.996" y2="217.073"><stop offset=".003" stop-color="#351d4a"/><stop offset=".092" stop-color="#371e4d"/><stop offset=".208" stop-color="#3c2157"/><stop offset=".339" stop-color="#442668"/><stop offset=".48" stop-color="#502d80"/><stop offset=".523" stop-color="#552f88"/><stop offset=".68" stop-color="#513280"/><stop offset="1" stop-color="#47366a"/></linearGradient><path id="Group_31_" d="M164.05 212.47c-61.17-1.18-108.2-10.89-163.99-11.39v34.17H336V198.9c-58.79 3.13-113.53 14.7-171.95 13.57z" fill="url(#Group_1_)"/><path class="st17" d="M261.4 193.4l1.78-4-1.56-.86h-13.63l12.19 4.03-1.35-.02z"/><path d="M148.57 69.31c1.52 1.81-144.15 2.87-144.18.6-.03-2.27 142.66-2.41 144.18-.6zM.19 34.54v1.87c50.44 2.3 298.32 1.05 296.94-1.45-1.37-2.49-246.78-2.89-296.94-.42zm335.92 8.85c-89.14-.02-204.28.86-204.27 2.41.01 1.54 115.13 1.48 204.27.74v-3.15z" opacity=".3" fill="#fefbe3"/><path class="st9" d="M211.07 215.68l4.33.11-6.88-16.02h3.39l-5.77-13.87 2.09-.01-4.43-11.42 1.98.01-3.77-10.67 2-.03-3.92-11.89 1.58-.05c-3.28-8.85-5.27-23.13-5.27-23.13s-2 14.28-5.27 23.13l1.58.05-3.92 11.89 2 .03-3.77 10.67 1.98-.01-4.43 11.42 2.09.01-5.77 13.87h3.39l-6.88 16.02 4.33-.11-8.7 19.51h46.74l-8.7-19.51z"/><path class="st10" d="M197.77 151.68l2.77 12.4-1.99-.27 2.74 11.16-1.96-.31 3.33 12.01-2.07-.31 4.43 14.65-3.37-.51 5.33 16.95-4.29-.77 6.09 18.5H220l-8.7-19.51 4.33.11-6.88-16.02h3.39l-5.77-13.87 2.09-.01-4.43-11.42 1.98.01-3.77-10.67 2-.03-3.92-11.89 1.58-.05c-3.28-8.85-5.27-23.13-5.27-23.13s-.08.59-.24 1.58c.28 4.38 1.09 14.49 2.95 21.59l-1.57-.19z"/><path class="st9" d="M75.93 201.53l4.26.11-6.76-15.76h3.34l-5.68-13.65 2.05-.01-4.36-11.24 1.94.01-3.71-10.49 1.97-.03-3.85-11.7 1.55-.04c-3.22-8.7-5.19-22.75-5.19-22.75s-1.97 14.05-5.19 22.75l1.55.04-3.85 11.7 1.97.03-3.71 10.5 1.94-.01-4.36 11.24 2.05.01-5.68 13.65h3.34l-6.76 15.76 4.26-.11-8.55 19.19h45.99l-8.56-19.2z"/><path class="st10" d="M62.85 138.58l2.73 12.2-1.96-.26 2.7 10.98-1.93-.3 3.27 11.8-2.04-.3 4.36 14.41-3.32-.5 5.24 16.67-4.22-.75 5.99 18.2h11.05l-8.55-19.19 4.26.11-6.76-15.76H77l-5.68-13.65 2.05-.01-4.36-11.24 1.94.01-3.71-10.49 1.97-.03-3.85-11.7 1.55-.04c-3.22-8.7-5.19-22.75-5.19-22.75s-.08.58-.23 1.55c.28 4.31 1.07 14.26 2.9 21.24l-1.54-.2z"/><path class="st17" d="M96.12 235.29l-11.36-14.26H38.79l27.02 14.26z"/></g></switch></svg>