<svg version="1.1" id="Layer" xmlns="http://www.w3.org/2000/svg" x="0" y="0" viewBox="0 0 335.986 235.19" enable-background="new 0 0 335.986 235.19" xml:space="preserve"><switch><g><linearGradient id="SVGID_1_" gradientUnits="userSpaceOnUse" x1="168.204" y1="216.373" x2="168.204" y2="129.669" gradientTransform="rotate(180 168.177 182.43)"><stop offset="0" stop-color="#9a9acc"/><stop offset="1" stop-color="#eee4f2"/></linearGradient><path fill-rule="evenodd" clip-rule="evenodd" fill="url(#SVGID_1_)" d="M-.053 148.486h336.407v86.703H-.053z"/><linearGradient id="SVGID_2_" gradientUnits="userSpaceOnUse" x1="168.15" y1="148.486" x2="168.15" y2="0"><stop offset="0" stop-color="#bfb4d9"/><stop offset=".613" stop-color="#6eaee0"/><stop offset="1" stop-color="#39499a"/></linearGradient><path fill-rule="evenodd" clip-rule="evenodd" fill="url(#SVGID_2_)" d="M-.053 0h336.407v148.486H-.053z"/><g fill="none" stroke="#FFF" stroke-linecap="round" stroke-linejoin="round" stroke-miterlimit="10"><path d="M288.116 8.018v-.193m-7.112 21.281l-.129.193m-17.201-14.316h-.129m5.173 19.733v-.193m8.946 20.707c-.011.094.121.087.106-.006m-17.329-6.578v.193m8.665 31.729l.129-.193m37.245-27.666v-.193m24.055 4.836l.129-.193m-7.242-15.284v.193m5.819-25.151v-.193m3.751-5.417l.129-.387m3.233 7.739v-.193m-18.493-3.483h-.129m3.681 49.11v-.343m-8.706 33.247v-.343m-7.79 60.666h-.229m-18.558 8.911h.229m-7.331-12.682h.458m44.218 0v-.343m1.375 5.142v.343m-3.895 35.302l-.229-.343m12.142 5.142v.343M220.606 154.92h-.229m23.827-55.867v-.343m15.121 8.226h-.229M229.77 22.621l-.229.343m-8.935-9.597v-.343m-8.019 39.416h-.229m-5.04 17.48h.229m-29.326-40.101h.687m18.558-2.057h-.229m-54.986 23.65l.229-.343m-13.517-21.593l.229.343M99.179 89.114v-.343m-9.393 3.77h-.229m13.288 13.024h.229m-10.997 14.053v-.343m9.851 49.355c-.189 0-.189 0 0 0m8.706-5.484c-.189 0-.189 0 0 0m9.852-21.935c0-.283 0-.283 0 0m-18.787 73.347h.229m-14.433-37.359h.229m-22.453-7.883v-.343M21.741 214.9h.229m-8.706-25.705v-.343m-8.019 8.569v.343m13.288-36.332l-.229-.343m-5.04-16.108h-.229m33.679-45.585h.458m20.39-1.714l.229-.343m4.812 16.452l.229.343M29.76 88.085h.229m7.789-7.197h.229M17.388 68.549h.229m65.066-5.484c0-.283 0-.283 0 0M68.25 22.278h.229m18.557-11.996v.343M58.398 6.17l.229.343M40.528 3.085v-.343M10.744 18.851h-.229m8.018-16.452l.229-.343" stroke-width=".606"/><path d="M63.062 198.764v.178m6.532-19.544l.119-.178m15.795 13.148h.119m-4.75-18.122v.178m-8.216-19.017c.01-.087-.111-.08-.097.005m15.913 6.041v-.178m-7.957-29.138l-.119.178m-34.204 25.407v.178m-22.09-4.442l-.119.178m6.651 14.036v-.178m-5.344 23.097v.178m-3.445 4.975l-.119.355m-2.968-7.107v.178m16.983 3.198h.119m-3.381-45.101v.315m7.995-30.532v.315m7.154-55.712h.21m17.043-8.184h-.21m6.732 11.646h-.421m-40.607 0v.315m-1.263-4.721v-.315m3.577-32.42l.21.315m-11.151-4.722v-.315M125.06 63.856h.21m-21.881 51.306v.315m-13.887-7.555h.21m26.932 77.431l.21-.315m8.206 8.814v.315m7.364-36.198h.21m4.629-16.053h-.21m26.931 36.827h-.631m-17.042 1.889h.21m50.496-21.719l-.21.315m12.413 19.83l-.21-.315m27.563-54.453v.315m8.626-3.463h.21m-12.203-11.961h-.21m10.099-12.905v.315m-9.047-45.325c.173 0 .173 0 0 0m-7.995 5.036c.173 0 .173 0 0 0m-9.048 20.145c0 .259 0 .259 0 0m17.253-67.359h-.21m13.255 34.309h-.21m20.619 7.239v.315m39.976-42.178h-.21m7.995 23.607v.315m7.364-7.869v-.315m-12.203 33.365l.21.315m4.629 14.793h.21m-30.929 41.863h-.421m-18.725 1.574l-.21.315m-4.419-15.109l-.21-.315m39.555 23.922h-.21m-7.154 6.61h-.21m18.936 11.331h-.21m-59.755 5.037c0 .259 0 .259 0 0m13.256 37.456h-.21m-17.043 11.017v-.315m26.3 4.092l-.21-.315m16.621 3.147v.315m27.352-14.793h.21m-7.363 15.108l-.21.315" opacity=".4" stroke-width=".556"/></g><g opacity=".5"><path opacity=".3" d="M148.384 65.204c1.524 1.805-144.148 2.868-144.18.602-.032-2.266 142.657-2.407 144.18-.602zM.005 30.433v1.875c50.443 2.297 298.315 1.046 296.942-1.451-1.372-2.495-246.786-2.89-296.942-.424zm335.917 8.852c-89.143-.019-204.28.86-204.267 2.407.013 1.539 115.134 1.481 204.267.743v-3.15z" fill="#FEFBE3"/></g><path opacity=".5" fill="#FFF" d="M335.604 148.486v-30.837c-2.262.249-4.156 1.803-4.984 3.96a1.816 1.816 0 00-.847-.217c-.809 0-1.499.526-1.82 1.282a1.25 1.25 0 00-.609-.212c-.009-1.312-1.033-2.384-2.36-2.553.003-.062.021-.122.021-.182 0-2.89-2.541-5.234-5.671-5.234-.425 0-.835.05-1.232.134-.215-.642-.727-1.167-1.4-1.44a2.881 2.881 0 00.565-1.701c0-1.635-1.395-2.964-3.12-2.964-.255 0-.502.04-.746.095-.202-1.42-1.339-2.51-2.724-2.51-1.006 0-1.874.581-2.361 1.437a2.822 2.822 0 00-1.352-.363c-1.495 0-2.715 1.18-2.914 2.704-.044-.003-.084-.013-.13-.013-1.114 0-2.02.851-2.02 1.902 0 .095.019.189.036.284a7.974 7.974 0 00-2.11-.284c-3.718 0-6.774 2.564-7.098 5.828-1.959.074-3.575 1.399-4.054 3.19l-.739.424c-1.404-1.443-3.483-2.357-5.808-2.357-3.57 0-6.562 2.155-7.408 5.062-1.442.105-2.585 1.35-2.684 2.921a2.646 2.646 0 00-.811-.135c-1.201 0-2.186.803-2.333 1.842a8.365 8.365 0 00-4.49-1.308c-.736 0-1.448.104-2.13.282a4.252 4.252 0 00-3.418-1.692 4.292 4.292 0 00-2.699.96 10.82 10.82 0 00-4.055-.785c-.577 0-1.144.054-1.696.135-1.374-2.079-3.51-3.421-5.907-3.421-.442 0-.871.055-1.291.144-1.342-3.529-4.368-5.99-7.893-5.99-4.336 0-7.919 3.723-8.526 8.573-.186-.013-.363-.061-.553-.061-3.626 0-6.567 3.131-6.567 6.988 0 .209.042.409.061.614-1.935.266-3.415 1.701-3.415 3.441 0 .074.021.142.028.212a7.191 7.191 0 00-3.553-.914c-3.491 0-6.325 2.36-6.325 5.274 0 .183.044.355.064.535a5.484 5.484 0 00-2.364-.535c-2.549 0-4.611 1.633-4.611 3.65-1.391 0-2.243 1.214-2.842 2.38a4.883 4.883 0 00-.501 1.455h139.396z"/><linearGradient id="Group_1_" gradientUnits="userSpaceOnUse" x1="167.964" y1="235.19" x2="167.964" y2="176.791"><stop offset="0" stop-color="#717aba"/><stop offset="1" stop-color="#9a9acc"/></linearGradient><path id="Group_31_" fill="url(#Group_1_)" d="M163.986 190.363C102.814 189.179 55.787 179.469 0 178.971v56.218h335.927V176.79c-58.791 3.133-113.525 14.703-171.941 13.573z"/><defs><filter id="Adobe_OpacityMaskFilter" filterUnits="userSpaceOnUse" x=".283" y="150.664" width="336.071" height="4.635"><feFlood result="back" flood-color="#fff" flood-opacity="1"/><feBlend in="SourceGraphic" in2="back"/></filter></defs><mask maskUnits="userSpaceOnUse" x=".283" y="150.664" width="336.071" height="4.635" id="SVGID_3_"><g filter="url(#Adobe_OpacityMaskFilter)"><defs><filter id="Adobe_OpacityMaskFilter_1_" filterUnits="userSpaceOnUse" x=".283" y="150.664" width="336.071" height="4.635"><feFlood result="back" flood-color="#fff" flood-opacity="1"/><feBlend in="SourceGraphic" in2="back"/></filter></defs><linearGradient id="SVGID_4_" gradientUnits="userSpaceOnUse" x1="-253.59" y1="-89.956" x2="907.047" y2="-89.956" gradientTransform="translate(.86 242.938)"><stop offset=".099"/><stop offset=".2" stop-color="#2c2c2c"/><stop offset=".385" stop-color="#767676"/><stop offset=".551" stop-color="#b1b1b1"/><stop offset=".692" stop-color="#dbdbdb"/><stop offset=".802" stop-color="#f5f5f5"/><stop offset=".867" stop-color="#fff"/></linearGradient><path mask="url(#SVGID_3_)" fill="url(#SVGID_4_)" d="M336.354 150.664L.283 152.288v2.024l336.071.986z"/></g></mask><linearGradient id="SVGID_5_" gradientUnits="userSpaceOnUse" x1="-253.59" y1="-89.956" x2="907.047" y2="-89.956" gradientTransform="translate(.86 242.938)"><stop offset=".099" stop-color="#fff"/><stop offset=".867" stop-color="#fff"/></linearGradient><path opacity=".21" fill="url(#SVGID_5_)" d="M336.354 150.664L.283 152.288v2.024l336.071.986z"/><defs><filter id="Adobe_OpacityMaskFilter_2_" filterUnits="userSpaceOnUse" x=".283" y="158.992" width="336.071" height="4.635"><feFlood result="back" flood-color="#fff" flood-opacity="1"/><feBlend in="SourceGraphic" in2="back"/></filter></defs><mask maskUnits="userSpaceOnUse" x=".283" y="158.992" width="336.071" height="4.635" id="SVGID_6_"><g filter="url(#Adobe_OpacityMaskFilter_2_)"><defs><filter id="Adobe_OpacityMaskFilter_3_" filterUnits="userSpaceOnUse" x=".283" y="158.992" width="336.071" height="4.635"><feFlood result="back" flood-color="#fff" flood-opacity="1"/><feBlend in="SourceGraphic" in2="back"/></filter></defs><linearGradient id="SVGID_7_" gradientUnits="userSpaceOnUse" x1="-250.068" y1="151.747" x2="910.569" y2="151.747" gradientTransform="rotate(180 169.65 156.528)"><stop offset=".099"/><stop offset=".2" stop-color="#2c2c2c"/><stop offset=".385" stop-color="#767676"/><stop offset=".551" stop-color="#b1b1b1"/><stop offset=".692" stop-color="#dbdbdb"/><stop offset=".802" stop-color="#f5f5f5"/><stop offset=".867" stop-color="#fff"/></linearGradient><path mask="url(#SVGID_6_)" fill="url(#SVGID_7_)" d="M.283 163.627l336.071-.893v-2.739L.283 158.992z"/></g></mask><linearGradient id="SVGID_8_" gradientUnits="userSpaceOnUse" x1="-250.068" y1="151.747" x2="910.569" y2="151.747" gradientTransform="rotate(180 169.65 156.528)"><stop offset=".099" stop-color="#fff"/><stop offset=".867" stop-color="#fff"/></linearGradient><path opacity=".5" fill="url(#SVGID_8_)" d="M.283 163.627l336.071-.893v-2.739L.283 158.992z"/><defs><filter id="Adobe_OpacityMaskFilter_4_" filterUnits="userSpaceOnUse" x="0" y="169.368" width="285.869" height="3.039"><feFlood result="back" flood-color="#fff" flood-opacity="1"/><feBlend in="SourceGraphic" in2="back"/></filter></defs><mask maskUnits="userSpaceOnUse" x="0" y="169.368" width="285.869" height="3.039" id="SVGID_9_"><g filter="url(#Adobe_OpacityMaskFilter_4_)"><defs><filter id="Adobe_OpacityMaskFilter_5_" filterUnits="userSpaceOnUse" x="0" y="169.368" width="285.869" height="3.039"><feFlood result="back" flood-color="#fff" flood-opacity="1"/><feBlend in="SourceGraphic" in2="back"/></filter></defs><linearGradient id="SVGID_10_" gradientUnits="userSpaceOnUse" x1="-596.071" y1="-72.051" x2="814.798" y2="-72.051" gradientTransform="translate(.86 242.938)"><stop offset=".099"/><stop offset=".2" stop-color="#2c2c2c"/><stop offset=".385" stop-color="#767676"/><stop offset=".551" stop-color="#b1b1b1"/><stop offset=".692" stop-color="#dbdbdb"/><stop offset=".802" stop-color="#f5f5f5"/><stop offset=".867" stop-color="#fff"/></linearGradient><path mask="url(#SVGID_9_)" fill="url(#SVGID_10_)" d="M0 169.368v3.038l285.869-2.151z"/></g></mask><linearGradient id="SVGID_11_" gradientUnits="userSpaceOnUse" x1="-596.071" y1="-72.051" x2="814.798" y2="-72.051" gradientTransform="translate(.86 242.938)"><stop offset=".099" stop-color="#fff"/><stop offset=".867" stop-color="#fff"/></linearGradient><path opacity=".21" fill="url(#SVGID_11_)" d="M0 169.368v3.038l285.869-2.151z"/><defs><filter id="Adobe_OpacityMaskFilter_6_" filterUnits="userSpaceOnUse" x="77.227" y="156.134" width="258.721" height="2.238"><feFlood result="back" flood-color="#fff" flood-opacity="1"/><feBlend in="SourceGraphic" in2="back"/></filter></defs><mask maskUnits="userSpaceOnUse" x="77.227" y="156.134" width="258.721" height="2.238" id="SVGID_12_"><g filter="url(#Adobe_OpacityMaskFilter_6_)"><defs><filter id="Adobe_OpacityMaskFilter_7_" filterUnits="userSpaceOnUse" x="77.227" y="156.134" width="258.721" height="2.238"><feFlood result="back" flood-color="#fff" flood-opacity="1"/><feBlend in="SourceGraphic" in2="back"/></filter></defs><linearGradient id="SVGID_13_" gradientUnits="userSpaceOnUse" x1="-528.741" y1="168.953" x2="748.145" y2="168.953" gradientTransform="rotate(180 172.947 163.103)"><stop offset=".099"/><stop offset=".2" stop-color="#2c2c2c"/><stop offset=".385" stop-color="#767676"/><stop offset=".551" stop-color="#b1b1b1"/><stop offset=".692" stop-color="#dbdbdb"/><stop offset=".802" stop-color="#f5f5f5"/><stop offset=".867" stop-color="#fff"/></linearGradient><path mask="url(#SVGID_12_)" fill="url(#SVGID_13_)" d="M335.948 158.371v-2.237l-258.721 1.091z"/></g></mask><linearGradient id="SVGID_14_" gradientUnits="userSpaceOnUse" x1="-528.741" y1="168.953" x2="748.145" y2="168.953" gradientTransform="rotate(180 172.947 163.103)"><stop offset=".099" stop-color="#fff"/><stop offset=".867" stop-color="#fff"/></linearGradient><path opacity=".21" fill="url(#SVGID_14_)" d="M335.948 158.371v-2.237l-258.721 1.091z"/><defs><filter id="Adobe_OpacityMaskFilter_8_" filterUnits="userSpaceOnUse" x="77.227" y="174.091" width="258.721" height="2.238"><feFlood result="back" flood-color="#fff" flood-opacity="1"/><feBlend in="SourceGraphic" in2="back"/></filter></defs><mask maskUnits="userSpaceOnUse" x="77.227" y="174.091" width="258.721" height="2.238" id="SVGID_15_"><g filter="url(#Adobe_OpacityMaskFilter_8_)"><defs><filter id="Adobe_OpacityMaskFilter_9_" filterUnits="userSpaceOnUse" x="77.227" y="174.091" width="258.721" height="2.238"><feFlood result="back" flood-color="#fff" flood-opacity="1"/><feBlend in="SourceGraphic" in2="back"/></filter></defs><linearGradient id="SVGID_16_" gradientUnits="userSpaceOnUse" x1="-528.741" y1="150.996" x2="748.145" y2="150.996" gradientTransform="rotate(180 172.947 163.103)"><stop offset=".099"/><stop offset=".2" stop-color="#2c2c2c"/><stop offset=".385" stop-color="#767676"/><stop offset=".551" stop-color="#b1b1b1"/><stop offset=".692" stop-color="#dbdbdb"/><stop offset=".802" stop-color="#f5f5f5"/><stop offset=".867" stop-color="#fff"/></linearGradient><path mask="url(#SVGID_15_)" fill="url(#SVGID_16_)" d="M335.948 176.329v-2.238l-258.721 1.091z"/></g></mask><linearGradient id="SVGID_17_" gradientUnits="userSpaceOnUse" x1="-528.741" y1="150.996" x2="748.145" y2="150.996" gradientTransform="rotate(180 172.947 163.103)"><stop offset=".099" stop-color="#fff"/><stop offset=".867" stop-color="#fff"/></linearGradient><path opacity=".8" fill="url(#SVGID_17_)" d="M335.948 176.329v-2.238l-258.721 1.091z"/><path fill="#406DB4" d="M210.203 184.184c.062 0 .12-.015.181-.018a4.407 4.407 0 00-.181 1.189c0 2.055 1.401 3.767 3.295 4.276l-.024.024 122.881.074V122.98c-.062-.008-.123-.017-.185-.024a3.622 3.622 0 00-1.191-.215 3.66 3.66 0 00-3.327 2.145 3.664 3.664 0 00-2.591-2.071c.038-.213.066-.429.066-.653a3.665 3.665 0 00-3.665-3.665 3.647 3.647 0 00-2.643 1.136 4.804 4.804 0 00-3.485-1.714c-.042-.004-.085-.01-.126-.013-.025 0-.048-.007-.073-.007-.024 0-.047.007-.071.007a1.94 1.94 0 00-.448.045c-2.427.262-4.323 2.293-4.323 4.79 0 .1.023.193.029.291l-.042.13c-1.012-1.584-2.608-2.612-4.41-2.612-3.059 0-5.539 2.949-5.539 6.587 0 2.018.765 3.822 1.967 5.03.019.089.033.177.046.265a2.812 2.812 0 00-2.219-1.094 2.827 2.827 0 00-2.827 2.827c0 .845.379 1.596.967 2.114.07.12.147.24.233.363a3.725 3.725 0 00-2.997 3.652c0 .433.088.842.224 1.228-.075-.006-.147-.023-.224-.023a2.823 2.823 0 00-2.633 1.816 2.823 2.823 0 00-2.633-1.816 2.79 2.79 0 00-.79.126 1.789 1.789 0 00-.963.274c.014-.133.04-.263.04-.4a3.725 3.725 0 00-3.725-3.725c-.783 0-1.508.244-2.107.656-.904-1.126-2.275-1.862-3.831-1.862-1.834 0-3.415 1.013-4.265 2.498a3.735 3.735 0 00-.79-.088 3.725 3.725 0 00-3.725 3.725c0 .937.357 1.782.928 2.437-2.534.205-4.534 2.303-4.534 4.891a4.91 4.91 0 002.049 3.985 3.712 3.712 0 00-2.044 3.307c0 .343.061.669.148.984a2.803 2.803 0 00-.776-.121c-.538 0-1.037.159-1.465.42a3.711 3.711 0 00-2.637-2.937c-.068-.035-.123-.067-.196-.103a1.361 1.361 0 00-.407-.016c-.14-.016-.278-.042-.422-.042-.472 0-.919.097-1.335.257a2.817 2.817 0 00-2.683-1.979c-.355 0-.691.073-1.003.192a4.477 4.477 0 00-4.364-3.498c-2.273 0-4.13 1.699-4.421 3.892a3.68 3.68 0 00-.973-.145 3.725 3.725 0 00-3.725 3.725c0 .344.062.671.149.987a3.715 3.715 0 00-1.719 3.131c0 .942.361 1.792.938 2.448a3.725 3.725 0 00-1.044 1.228c-.25.28-.396.636-.377 1.034-.018.095-.019.196-.03.294a2.818 2.818 0 00-1.996-.826c-.435 0-.842.106-1.21.281.16-.397.253-.828.253-1.282a3.42 3.42 0 00-2.948-3.381c-.813-.176-1.677-.037-2.256.459l-.052.028a2.82 2.82 0 00-2.545-1.617c-.798 0-1.516.333-2.03.865-.349-.483-.812-.719-1.289-.75a2.784 2.784 0 00-.757-.115c-.344 0-.67.071-.975.183a4.473 4.473 0 00-8.884.76c0 .182.033.355.054.532-.136-.015-.268-.041-.408-.041a3.72 3.72 0 00-3.62 2.879 3.683 3.683 0 00-.826-.099 3.725 3.725 0 00-3.725 3.725c0 1.178.558 2.216 1.412 2.899-.122-.012-.239-.037-.364-.037a3.725 3.725 0 00-3.725 3.725c0 .648.18 1.248.471 1.779a3.724 3.724 0 00-2.24 3.414 3.728 3.728 0 003.727 3.729zm86.57-38.635c-.004.112-.02.209-.019.327-.015-.064-.035-.131-.052-.196.024-.044.05-.086.071-.131z"/><path id="XMLID_17_" fill="#717ABA" d="M219.089 182.429a1.905 1.905 0 00-1.497-3.412l.001-.038a4.193 4.193 0 00-5.014-4.112 4.193 4.193 0 00-5.486-4.888 1.906 1.906 0 00-3.765.165 4.193 4.193 0 00-5.887 4.723 4.194 4.194 0 00-5.014 4.112l.001.038a1.905 1.905 0 00-1.497 3.412 4.193 4.193 0 002.414 7.621h23.331a4.193 4.193 0 002.413-7.621z"/><path fill="#FFF" d="M-.174 148.486v-19.541c1.434.158 2.634 1.143 3.158 2.509.165-.086.345-.138.537-.138.512 0 .95.334 1.153.812a.795.795 0 01.386-.135c.006-.831.655-1.511 1.495-1.618-.002-.039-.014-.077-.014-.116 0-1.831 1.61-3.316 3.593-3.316.269 0 .529.032.781.085.136-.407.461-.739.887-.912a1.823 1.823 0 01-.358-1.078c0-1.036.884-1.878 1.977-1.878.162 0 .318.025.472.06.128-.9.848-1.59 1.726-1.59.637 0 1.188.368 1.496.911.259-.141.547-.23.857-.23.947 0 1.72.748 1.847 1.713.028-.002.053-.008.082-.008.706 0 1.28.539 1.28 1.205 0 .06-.012.12-.023.18.424-.116.87-.18 1.337-.18 2.356 0 4.293 1.625 4.498 3.693a2.75 2.75 0 012.569 2.021l.468.269c.89-.914 2.207-1.494 3.68-1.494 2.262 0 4.158 1.365 4.694 3.208.914.067 1.638.855 1.701 1.851.159-.051.333-.085.514-.085.761 0 1.385.509 1.478 1.167a5.3 5.3 0 012.845-.829c.466 0 .918.066 1.35.179a2.72 2.72 0 013.876-.464 6.864 6.864 0 013.644-.411c.87-1.317 2.224-2.168 3.743-2.168.28 0 .552.035.818.091.85-2.236 2.768-3.796 5.001-3.796 2.747 0 5.018 2.359 5.403 5.433.118-.008.23-.039.351-.039 2.298 0 4.161 1.984 4.161 4.428 0 .132-.026.259-.039.389 1.226.169 2.164 1.078 2.164 2.18 0 .047-.014.09-.018.135a4.553 4.553 0 012.251-.579c2.212 0 4.008 1.496 4.008 3.342 0 .116-.028.225-.041.339.439-.21.949-.339 1.498-.339 1.615 0 2.922 1.035 2.922 2.313.881 0 1.422.769 1.801 1.508.178.347.274.65.318.922H-.174z"/><path id="XMLID_15_" fill="#39499A" d="M326.819 176.486a3.26 3.26 0 00-2.56-5.838l.002-.066a7.175 7.175 0 00-8.58-7.037 7.175 7.175 0 00-9.389-8.364 3.26 3.26 0 00-6.442.282 7.175 7.175 0 00-10.073 8.082 7.175 7.175 0 00-8.58 7.037l.002.066a3.26 3.26 0 00-2.561 5.838 7.175 7.175 0 004.13 13.04h39.919a7.175 7.175 0 004.132-13.04z"/><path fill="#4B5EA8" d="M228.771 189.684h106.622c.207-.93.271-1.907.148-2.906-.546-4.445-4.397-7.675-8.79-7.534-.985-2.695-3.719-4.466-6.69-4.101a6.338 6.338 0 00-2.122.66 4.431 4.431 0 00-4.914-3.648c-.076.009-.145.017-.218.038-.768-4.491-4.924-7.633-9.501-7.072a8.57 8.57 0 00-7.15 5.997c-.135.012-.288.018-.422.034a5.38 5.38 0 00-4.691 5.993c.054.445.168.865.324 1.273a8.764 8.764 0 00-.841.384 4.43 4.43 0 00-4.836-3.29c-.075.009-.144.017-.219.037a8.573 8.573 0 00-16.65-1.074c-.135.01-.289.018-.422.034a5.378 5.378 0 00-3.392 1.798 4.426 4.426 0 00-4.856-3.383c-.075.009-.144.017-.219.036-.767-4.49-4.924-7.633-9.5-7.07a8.568 8.568 0 00-7.15 5.996c-.134.012-.288.019-.422.035a5.38 5.38 0 00-4.691 5.993c.055.444.17.865.325 1.273a8.614 8.614 0 00-4.839 4.756 4.211 4.211 0 00-1.204-.021 4.454 4.454 0 00-3.868 4.956c.036.28.104.547.188.806z"/><path fill="#FFF" d="M267.501 84.719h-34.255l-5.114 112.275h-.283 44.056z"/><path d="M247.487 97.498h5.915v12.777h-5.915z"/><path fill="#202B52" d="M235.167 59.715h30.864v4.218h-30.864z"/><path fill="#FFF" d="M235.167 35.041h30.864v24.651h-30.864z"/><g opacity=".5"><linearGradient id="SVGID_18_" gradientUnits="userSpaceOnUse" x1="258.012" y1="140.857" x2="271.905" y2="140.857"><stop offset="0" stop-color="#fff"/><stop offset=".095" stop-color="#f0f0f2"/><stop offset=".371" stop-color="#cacbce"/><stop offset=".623" stop-color="#afb2b6"/><stop offset=".841" stop-color="#9fa3a8"/><stop offset="1" stop-color="#999ea3"/></linearGradient><path fill="url(#SVGID_18_)" d="M258.012 196.994h13.893l-4.404-112.275-8.226.047z"/></g><path fill="#202B52" d="M266.914 77.654H233.87c-.905 0-1.641.735-1.641 1.64v3.783c0 .905.736 1.64 1.641 1.64h33.044c.905 0 1.641-.735 1.641-1.64v-3.783c0-.905-.736-1.64-1.641-1.64z"/><path d="M270.993 66.005c0-1.153-.937-2.09-2.089-2.09H231.6c-1.152 0-2.09.938-2.09 2.09v6.539h41.514v-2.12l-.031-4.419zm-6.001-1.131v5.551h-3.299v-5.551h3.299zm-4.258 0v5.551h-3.299v-5.551h3.299zm-4.258 0v5.551h-3.299v-5.551h3.299zm-4.258 0v5.551h-3.299v-5.551h3.299zm-4.257 0v5.551h-3.299v-5.551h3.299zm-4.258 0v5.551h-3.299v-5.551h3.299zm-4.258 0v5.551h-3.299v-5.551h3.299zm-8.976 1.131c0-.624.508-1.131 1.131-1.131h3.587v5.551h-4.719v-4.42zm35.482 4.419v-5.551h2.954c.622 0 1.129.508 1.129 1.131v4.419h-4.083z"/><path fill="#39499A" d="M271.024 72.544H229.51c-.029.131-.032 4.759-.032 4.759 0 1.021.83 1.851 1.851 1.851h37.854c1.021 0 1.851-.83 1.851-1.851-.001 0 .02-4.628-.01-4.759z"/><path fill="#202B52" d="M250.589 16.849l-18.36 18.192 18.36-.029 18.359.029zM-.053 212.532h336.408v5.106H-.053z"/><linearGradient id="SVGID_19_" gradientUnits="userSpaceOnUse" x1="105.303" y1="217.638" x2="110.309" y2="217.638"><stop offset="0" stop-color="#fff"/><stop offset="1" stop-color="#c1cac7"/></linearGradient><path fill="url(#SVGID_19_)" d="M110.309 235.184h-5.006v-32.013l2.503-3.079 2.503 3.079z"/><linearGradient id="SVGID_20_" gradientUnits="userSpaceOnUse" x1="94.34" y1="217.638" x2="99.346" y2="217.638"><stop offset="0" stop-color="#fff"/><stop offset="1" stop-color="#c1cac7"/></linearGradient><path fill="url(#SVGID_20_)" d="M99.346 235.184H94.34v-32.013l2.503-3.079 2.503 3.079z"/><linearGradient id="SVGID_21_" gradientUnits="userSpaceOnUse" x1="83.376" y1="217.638" x2="88.382" y2="217.638"><stop offset="0" stop-color="#fff"/><stop offset="1" stop-color="#c1cac7"/></linearGradient><path fill="url(#SVGID_21_)" d="M88.382 235.184h-5.006v-32.013l2.503-3.079 2.503 3.079z"/><linearGradient id="SVGID_22_" gradientUnits="userSpaceOnUse" x1="72.413" y1="217.638" x2="77.419" y2="217.638"><stop offset="0" stop-color="#fff"/><stop offset="1" stop-color="#c1cac7"/></linearGradient><path fill="url(#SVGID_22_)" d="M77.419 235.184h-5.006v-32.013l2.503-3.079 2.503 3.079z"/><linearGradient id="SVGID_23_" gradientUnits="userSpaceOnUse" x1="61.449" y1="217.638" x2="66.455" y2="217.638"><stop offset="0" stop-color="#fff"/><stop offset="1" stop-color="#c1cac7"/></linearGradient><path fill="url(#SVGID_23_)" d="M66.455 235.184h-5.006v-32.013l2.503-3.079 2.503 3.079z"/><linearGradient id="SVGID_24_" gradientUnits="userSpaceOnUse" x1="50.486" y1="217.638" x2="55.492" y2="217.638"><stop offset="0" stop-color="#fff"/><stop offset="1" stop-color="#c1cac7"/></linearGradient><path fill="url(#SVGID_24_)" d="M55.492 235.184h-5.006v-32.013l2.503-3.079 2.503 3.079z"/><linearGradient id="SVGID_25_" gradientUnits="userSpaceOnUse" x1="39.522" y1="217.638" x2="44.528" y2="217.638"><stop offset="0" stop-color="#fff"/><stop offset="1" stop-color="#c1cac7"/></linearGradient><path fill="url(#SVGID_25_)" d="M44.528 235.184h-5.006v-32.013l2.503-3.079 2.503 3.079z"/><linearGradient id="SVGID_26_" gradientUnits="userSpaceOnUse" x1="28.559" y1="217.638" x2="33.565" y2="217.638"><stop offset="0" stop-color="#fff"/><stop offset="1" stop-color="#c1cac7"/></linearGradient><path fill="url(#SVGID_26_)" d="M33.565 235.184h-5.006v-32.013l2.503-3.079 2.503 3.079z"/><linearGradient id="SVGID_27_" gradientUnits="userSpaceOnUse" x1="17.595" y1="217.638" x2="22.601" y2="217.638"><stop offset="0" stop-color="#fff"/><stop offset="1" stop-color="#c1cac7"/></linearGradient><path fill="url(#SVGID_27_)" d="M22.601 235.184h-5.006v-32.013l2.503-3.079 2.503 3.079z"/><linearGradient id="SVGID_28_" gradientUnits="userSpaceOnUse" x1="6.632" y1="217.638" x2="11.638" y2="217.638"><stop offset="0" stop-color="#fff"/><stop offset="1" stop-color="#c1cac7"/></linearGradient><path fill="url(#SVGID_28_)" d="M11.638 235.184H6.632v-32.013l2.503-3.079 2.503 3.079z"/><linearGradient id="SVGID_29_" gradientUnits="userSpaceOnUse" x1="116.266" y1="217.638" x2="121.273" y2="217.638"><stop offset="0" stop-color="#fff"/><stop offset="1" stop-color="#c1cac7"/></linearGradient><path fill="url(#SVGID_29_)" d="M121.273 235.184h-5.007v-32.013l2.504-3.079 2.503 3.079z"/><linearGradient id="SVGID_30_" gradientUnits="userSpaceOnUse" x1="127.23" y1="217.638" x2="132.236" y2="217.638"><stop offset="0" stop-color="#fff"/><stop offset="1" stop-color="#c1cac7"/></linearGradient><path fill="url(#SVGID_30_)" d="M132.236 235.184h-5.006v-32.013l2.503-3.079 2.503 3.079z"/><linearGradient id="SVGID_31_" gradientUnits="userSpaceOnUse" x1="138.194" y1="217.638" x2="143.2" y2="217.638"><stop offset="0" stop-color="#fff"/><stop offset="1" stop-color="#c1cac7"/></linearGradient><path fill="url(#SVGID_31_)" d="M143.2 235.184h-5.007v-32.013l2.504-3.079 2.503 3.079z"/><linearGradient id="SVGID_32_" gradientUnits="userSpaceOnUse" x1="149.157" y1="217.638" x2="154.163" y2="217.638"><stop offset="0" stop-color="#fff"/><stop offset="1" stop-color="#c1cac7"/></linearGradient><path fill="url(#SVGID_32_)" d="M154.163 235.184h-5.006v-32.013l2.503-3.079 2.503 3.079z"/><linearGradient id="SVGID_33_" gradientUnits="userSpaceOnUse" x1="160.12" y1="217.638" x2="165.127" y2="217.638"><stop offset="0" stop-color="#fff"/><stop offset="1" stop-color="#c1cac7"/></linearGradient><path fill="url(#SVGID_33_)" d="M165.127 235.184h-5.007v-32.013l2.503-3.079 2.504 3.079z"/><linearGradient id="SVGID_34_" gradientUnits="userSpaceOnUse" x1="171.084" y1="217.638" x2="176.09" y2="217.638"><stop offset="0" stop-color="#fff"/><stop offset="1" stop-color="#c1cac7"/></linearGradient><path fill="url(#SVGID_34_)" d="M176.09 235.184h-5.006v-32.013l2.503-3.079 2.503 3.079z"/><linearGradient id="SVGID_35_" gradientUnits="userSpaceOnUse" x1="182.047" y1="217.638" x2="187.054" y2="217.638"><stop offset="0" stop-color="#fff"/><stop offset="1" stop-color="#c1cac7"/></linearGradient><path fill="url(#SVGID_35_)" d="M187.053 235.184h-5.006v-32.013l2.503-3.079 2.503 3.079z"/><linearGradient id="SVGID_36_" gradientUnits="userSpaceOnUse" x1="193.011" y1="217.638" x2="198.017" y2="217.638"><stop offset="0" stop-color="#fff"/><stop offset="1" stop-color="#c1cac7"/></linearGradient><path fill="url(#SVGID_36_)" d="M198.017 235.184h-5.006v-32.013l2.503-3.079 2.503 3.079z"/><linearGradient id="SVGID_37_" gradientUnits="userSpaceOnUse" x1="203.974" y1="217.638" x2="208.981" y2="217.638"><stop offset="0" stop-color="#fff"/><stop offset="1" stop-color="#c1cac7"/></linearGradient><path fill="url(#SVGID_37_)" d="M208.98 235.184h-5.006v-32.013l2.503-3.079 2.503 3.079z"/><linearGradient id="SVGID_38_" gradientUnits="userSpaceOnUse" x1="214.938" y1="217.638" x2="219.944" y2="217.638"><stop offset="0" stop-color="#fff"/><stop offset="1" stop-color="#c1cac7"/></linearGradient><path fill="url(#SVGID_38_)" d="M219.944 235.184h-5.006v-32.013l2.503-3.079 2.503 3.079z"/><linearGradient id="SVGID_39_" gradientUnits="userSpaceOnUse" x1="324.572" y1="217.638" x2="329.579" y2="217.638"><stop offset="0" stop-color="#fff"/><stop offset="1" stop-color="#c1cac7"/></linearGradient><path fill="url(#SVGID_39_)" d="M329.579 235.184h-5.007v-32.013l2.504-3.079 2.503 3.079z"/><linearGradient id="SVGID_40_" gradientUnits="userSpaceOnUse" x1="313.609" y1="217.638" x2="318.615" y2="217.638"><stop offset="0" stop-color="#fff"/><stop offset="1" stop-color="#c1cac7"/></linearGradient><path fill="url(#SVGID_40_)" d="M318.615 235.184h-5.006v-32.013l2.503-3.079 2.503 3.079z"/><linearGradient id="SVGID_41_" gradientUnits="userSpaceOnUse" x1="302.646" y1="217.638" x2="307.652" y2="217.638"><stop offset="0" stop-color="#fff"/><stop offset="1" stop-color="#c1cac7"/></linearGradient><path fill="url(#SVGID_41_)" d="M307.652 235.184h-5.006v-32.013l2.503-3.079 2.503 3.079z"/><linearGradient id="SVGID_42_" gradientUnits="userSpaceOnUse" x1="291.682" y1="217.638" x2="296.688" y2="217.638"><stop offset="0" stop-color="#fff"/><stop offset="1" stop-color="#c1cac7"/></linearGradient><path fill="url(#SVGID_42_)" d="M296.688 235.184h-5.006v-32.013l2.503-3.079 2.503 3.079z"/><linearGradient id="SVGID_43_" gradientUnits="userSpaceOnUse" x1="280.719" y1="217.638" x2="285.725" y2="217.638"><stop offset="0" stop-color="#fff"/><stop offset="1" stop-color="#c1cac7"/></linearGradient><path fill="url(#SVGID_43_)" d="M285.725 235.184h-5.006v-32.013l2.503-3.079 2.503 3.079z"/><linearGradient id="SVGID_44_" gradientUnits="userSpaceOnUse" x1="269.755" y1="217.638" x2="274.761" y2="217.638"><stop offset="0" stop-color="#fff"/><stop offset="1" stop-color="#c1cac7"/></linearGradient><path fill="url(#SVGID_44_)" d="M274.761 235.184h-5.006v-32.013l2.503-3.079 2.503 3.079z"/><linearGradient id="SVGID_45_" gradientUnits="userSpaceOnUse" x1="258.792" y1="217.638" x2="263.798" y2="217.638"><stop offset="0" stop-color="#fff"/><stop offset="1" stop-color="#c1cac7"/></linearGradient><path fill="url(#SVGID_45_)" d="M263.798 235.184h-5.006v-32.013l2.503-3.079 2.503 3.079z"/><linearGradient id="SVGID_46_" gradientUnits="userSpaceOnUse" x1="247.828" y1="217.638" x2="252.834" y2="217.638"><stop offset="0" stop-color="#fff"/><stop offset="1" stop-color="#c1cac7"/></linearGradient><path fill="url(#SVGID_46_)" d="M252.834 235.184h-5.006v-32.013l2.503-3.079 2.503 3.079z"/><linearGradient id="SVGID_47_" gradientUnits="userSpaceOnUse" x1="236.865" y1="217.638" x2="241.871" y2="217.638"><stop offset="0" stop-color="#fff"/><stop offset="1" stop-color="#c1cac7"/></linearGradient><path fill="url(#SVGID_47_)" d="M241.871 235.184h-5.006v-32.013l2.503-3.079 2.503 3.079z"/><linearGradient id="SVGID_48_" gradientUnits="userSpaceOnUse" x1="225.901" y1="217.638" x2="230.907" y2="217.638"><stop offset="0" stop-color="#fff"/><stop offset="1" stop-color="#c1cac7"/></linearGradient><path fill="url(#SVGID_48_)" d="M230.907 235.184h-5.006v-32.013l2.503-3.079 2.503 3.079z"/><circle fill="#979696" cx="9.135" cy="215.085" r=".746"/><circle fill="#FFF" cx="9.135" cy="215.085" r=".373"/><circle fill="#979696" cx="20.098" cy="215.085" r=".746"/><circle fill="#FFF" cx="20.098" cy="215.085" r=".373"/><path fill="#979696" d="M31.808 215.085a.746.746 0 11-1.492 0 .746.746 0 011.492 0z"/><path fill="#FFF" d="M31.435 215.085a.373.373 0 11-.746 0 .373.373 0 01.746 0z"/><path fill="#979696" d="M42.771 215.085a.746.746 0 11-1.492 0 .746.746 0 011.492 0z"/><path fill="#FFF" d="M42.398 215.085a.373.373 0 11-.746 0 .373.373 0 01.746 0z"/><path fill="#979696" d="M53.735 215.085a.746.746 0 11-1.492 0 .746.746 0 011.492 0z"/><path fill="#FFF" d="M53.362 215.085a.373.373 0 11-.746 0 .373.373 0 01.746 0z"/><circle fill="#979696" cx="63.952" cy="215.085" r=".746"/><circle fill="#FFF" cx="63.952" cy="215.085" r=".373"/><path fill="#979696" d="M75.661 215.085a.746.746 0 11-1.492 0 .746.746 0 011.492 0z"/><circle fill="#FFF" cx="74.916" cy="215.085" r=".373"/><path fill="#979696" d="M86.625 215.085a.746.746 0 11-1.492 0 .746.746 0 011.492 0z"/><path fill="#FFF" d="M86.252 215.085a.373.373 0 11-.746 0 .373.373 0 01.746 0z"/><path fill="#979696" d="M97.589 215.085a.746.746 0 11-1.492 0 .746.746 0 011.492 0z"/><path fill="#FFF" d="M97.216 215.085a.373.373 0 11-.746 0 .373.373 0 01.746 0z"/><circle fill="#979696" cx="107.806" cy="215.085" r=".746"/><circle fill="#FFF" cx="107.806" cy="215.085" r=".373"/><path fill="#979696" d="M119.515 215.085a.746.746 0 11-1.492 0 .746.746 0 011.492 0z"/><circle fill="#FFF" cx="118.77" cy="215.085" r=".373"/><path fill="#979696" d="M130.479 215.085a.746.746 0 11-1.492 0 .746.746 0 011.492 0z"/><path fill="#FFF" d="M130.106 215.085a.373.373 0 11-.746 0 .373.373 0 01.746 0z"/><path fill="#979696" d="M141.442 215.085a.746.746 0 11-1.492 0 .746.746 0 011.492 0z"/><path fill="#FFF" d="M141.07 215.085a.373.373 0 11-.746 0 .373.373 0 01.746 0z"/><circle fill="#979696" cx="151.66" cy="215.085" r=".746"/><path fill="#FFF" d="M152.033 215.085a.373.373 0 11-.746 0 .373.373 0 01.746 0z"/><path fill="#979696" d="M163.369 215.085a.746.746 0 11-1.492 0 .746.746 0 011.492 0z"/><circle fill="#FFF" cx="162.623" cy="215.085" r=".373"/><path fill="#979696" d="M174.333 215.085a.746.746 0 11-1.492 0 .746.746 0 011.492 0z"/><path fill="#FFF" d="M173.96 215.085a.373.373 0 11-.746 0 .373.373 0 01.746 0z"/><path fill="#979696" d="M185.296 215.085a.746.746 0 11-1.492 0 .746.746 0 011.492 0z"/><path fill="#FFF" d="M184.923 215.085a.373.373 0 11-.746 0 .373.373 0 01.746 0z"/><circle fill="#979696" cx="195.514" cy="215.085" r=".746"/><circle fill="#FFF" cx="195.514" cy="215.085" r=".373"/><path fill="#979696" d="M207.223 215.085a.746.746 0 11-1.492 0 .746.746 0 011.492 0z"/><circle fill="#FFF" cx="206.477" cy="215.085" r=".373"/><path fill="#979696" d="M218.187 215.085a.746.746 0 11-1.492 0 .746.746 0 011.492 0z"/><path fill="#FFF" d="M217.814 215.085a.373.373 0 11-.746 0 .373.373 0 01.746 0z"/><path fill="#979696" d="M229.15 215.085a.746.746 0 11-1.492 0 .746.746 0 011.492 0z"/><path fill="#FFF" d="M228.777 215.085a.373.373 0 11-.746 0 .373.373 0 01.746 0z"/><circle fill="#979696" cx="239.368" cy="215.085" r=".746"/><circle fill="#FFF" cx="239.368" cy="215.085" r=".373"/><path fill="#979696" d="M251.077 215.085a.746.746 0 11-1.492 0 .746.746 0 011.492 0z"/><circle fill="#FFF" cx="250.331" cy="215.085" r=".373"/><path fill="#979696" d="M262.041 215.085a.746.746 0 11-1.492 0 .746.746 0 011.492 0z"/><path fill="#FFF" d="M261.668 215.085a.373.373 0 11-.746 0 .373.373 0 01.746 0z"/><path fill="#979696" d="M273.004 215.085a.746.746 0 11-1.492 0 .746.746 0 011.492 0z"/><path fill="#FFF" d="M272.631 215.085a.373.373 0 11-.746 0 .373.373 0 01.746 0z"/><circle fill="#979696" cx="283.222" cy="215.085" r=".746"/><circle fill="#FFF" cx="283.222" cy="215.085" r=".373"/><path fill="#979696" d="M294.931 215.085a.746.746 0 11-1.492 0 .746.746 0 011.492 0z"/><circle fill="#FFF" cx="294.185" cy="215.085" r=".373"/><path fill="#979696" d="M305.895 215.085a.746.746 0 11-1.492 0 .746.746 0 011.492 0z"/><path fill="#FFF" d="M305.522 215.085a.373.373 0 11-.746 0 .373.373 0 01.746 0z"/><path fill="#979696" d="M316.858 215.085a.746.746 0 11-1.492 0 .746.746 0 011.492 0z"/><path fill="#FFF" d="M316.485 215.085a.373.373 0 11-.746 0 .373.373 0 01.746 0z"/><circle fill="#979696" cx="327.076" cy="215.085" r=".746"/><circle fill="#FFF" cx="327.076" cy="215.085" r=".373"/><linearGradient id="SVGID_49_" gradientUnits="userSpaceOnUse" x1="319.164" y1="218.056" x2="319.298" y2="217.278"><stop offset="0" stop-color="#137a36"/><stop offset="1" stop-color="#809851"/></linearGradient><path fill="url(#SVGID_49_)" d="M321.086 218.544c-1.138-.928-2.37-1.658-3.655-2.073a46.784 46.784 0 013.655 2.073z"/><linearGradient id="SVGID_50_" gradientUnits="userSpaceOnUse" x1="15.627" y1="215.445" x2="15.385" y2="214.801"><stop offset=".011" stop-color="#989c26"/><stop offset="1" stop-color="#cfcc2d"/></linearGradient><path fill="url(#SVGID_50_)" d="M13.668 216.246c1.166-.848 2.355-1.666 3.614-2.411-1.238.472-2.461 1.323-3.614 2.411z"/><path fill="#39499A" d="M55.129 170.352c-.693 0-1.358.117-1.982.325a3.509 3.509 0 00-3.16-2c-.557 0-1.076.141-1.544.372a4.622 4.622 0 00-3.131-3.131c.011-.115.035-.226.035-.344a3.517 3.517 0 00-3.517-3.517c-.569 0-1.099.148-1.574.388-.148-4.084-3.496-7.352-7.616-7.352-3.361 0-6.208 2.176-7.225 5.193a4.629 4.629 0 00-3.133-2.826c-.486-.182-.977-.249-1.445-.15a4.64 4.64 0 00-1.559.34c-.613-1.847-2.335-3.188-4.387-3.188-.31 0-.612.033-.905.091a4.627 4.627 0 00-3.738-1.911 4.627 4.627 0 00-3.303 1.384 6.7 6.7 0 00-6.197-4.156c-.027 0-.053.004-.08.004H.666c-.134-.008-.255-.001-.382-.001v.02c-.114.008-.224.026-.337.04L0 182.658c19.196.189 54.049.227 55.129.227a6.267 6.267 0 000-12.533z"/><path fill="#406DB4" d="M28.181 176.898a1.893 1.893 0 00-1.487-3.391l.001-.038a4.168 4.168 0 00-4.984-4.088 4.168 4.168 0 00-5.454-4.858 1.894 1.894 0 00-3.743.163 4.168 4.168 0 00-5.851 4.694 4.168 4.168 0 00-4.984 4.088l.001.038a1.881 1.881 0 00-1.678.483v9.556a4.128 4.128 0 002.591.927h23.188a4.168 4.168 0 002.4-7.574z"/><path id="XMLID_13_" fill="#4B5EA8" d="M26.809 178.69a1.445 1.445 0 00-1.134-2.588l.001-.029a3.18 3.18 0 00-3.804-3.12 3.18 3.18 0 00-4.163-3.709 1.446 1.446 0 00-2.857.126 3.18 3.18 0 00-4.466 3.584 3.18 3.18 0 00-3.804 3.12l.001.029a1.445 1.445 0 00-1.135 2.588 3.18 3.18 0 001.831 5.782H24.98a3.18 3.18 0 001.829-5.783z"/><path id="XMLID_12_" fill="#4B5EA8" d="M50.979 179.385a1.272 1.272 0 00-.999-2.278l.001-.026a2.799 2.799 0 00-3.347-2.745 2.796 2.796 0 00-2.728-3.423c-.328 0-.642.057-.934.16a1.273 1.273 0 00-2.514.11 2.799 2.799 0 00-3.929 3.152 2.799 2.799 0 00-3.347 2.745l.001.026a1.27 1.27 0 00-1.528 1.246c0 .425.208.801.528 1.032a2.799 2.799 0 001.611 5.087h15.574a2.799 2.799 0 001.611-5.086z"/><path fill="#717ABA" d="M23.096 184.517h51.467c.1-.449.131-.92.072-1.403a4.144 4.144 0 00-4.243-3.637 3.046 3.046 0 00-3.229-1.98 3.054 3.054 0 00-1.024.318 2.14 2.14 0 00-2.477-1.743 4.14 4.14 0 00-4.586-3.414 4.135 4.135 0 00-3.451 2.895c-.065.006-.139.009-.204.017a2.596 2.596 0 00-2.108 3.508 4.383 4.383 0 00-.406.185 2.138 2.138 0 00-2.439-1.57 4.14 4.14 0 00-8.037-.518c-.065.005-.139.008-.204.016a2.594 2.594 0 00-1.637.868 2.137 2.137 0 00-2.45-1.616 4.14 4.14 0 00-8.038-.519c-.065.006-.139.009-.204.017a2.597 2.597 0 00-2.264 2.893c.027.214.082.418.157.614a4.163 4.163 0 00-2.336 2.296 2.014 2.014 0 00-.581-.01 2.149 2.149 0 00-1.867 2.392c.016.137.049.266.089.391z"/><path opacity=".3" fill="#554596" d="M24.629 193.878c0 .843 9.273 1.526 20.711 1.526 11.439 0 20.712-.682 20.712-1.526s-9.273-1.527-20.712-1.527c-11.438 0-20.711.684-20.711 1.527z"/><path fill="#202B52" d="M34.583 193.854h.371v-14.165h-1.037v14.165zm-4.854 0h.371v-6.772h-1.037v6.772zm31.803 0h.371v-6.772h-1.037v6.772zm-5.07 0h.37v-14.165h-1.036v14.165z"/><linearGradient id="SVGID_51_" gradientUnits="userSpaceOnUse" x1="27.694" y1="181.015" x2="63.04" y2="181.015"><stop offset="0" stop-color="#fff"/><stop offset="1" stop-color="#c1cac7"/></linearGradient><path fill="url(#SVGID_51_)" d="M27.694 179.342v3.346H63.04v-3.346z"/><linearGradient id="SVGID_52_" gradientUnits="userSpaceOnUse" x1="27.694" y1="188.099" x2="63.04" y2="188.099"><stop offset="0" stop-color="#fff"/><stop offset="1" stop-color="#c1cac7"/></linearGradient><path fill="url(#SVGID_52_)" d="M27.694 186.99H63.04v2.217H27.694z"/><path d="M34.715 180.479a.277.277 0 11-.554 0 .277.277 0 01.554 0zm0 1.155a.277.277 0 11-.554 0 .277.277 0 01.554 0zm21.842-1.155a.277.277 0 11-.554 0 .277.277 0 01.554 0zm0 1.155a.277.277 0 11-.554 0 .277.277 0 01.554 0z" fill="#202B52"/><path fill="#FFF" d="M27.694 186.99l2.585-.713h30.704l2.057.713z"/><path opacity=".3" fill="#554596" d="M282.557 193.878c0 .843 9.273 1.526 20.711 1.526 11.439 0 20.712-.682 20.712-1.526s-9.273-1.527-20.712-1.527c-11.438 0-20.711.684-20.711 1.527z"/><path fill="#202B52" d="M292.512 193.854h.37v-14.165h-1.037v14.165zm-4.854 0h.371v-6.772h-1.037v6.772zm31.802 0h.371v-6.772h-1.037v6.772zm-5.07 0h.371v-14.165h-1.037v14.165z"/><linearGradient id="SVGID_53_" gradientUnits="userSpaceOnUse" x1="285.622" y1="181.015" x2="320.969" y2="181.015"><stop offset="0" stop-color="#fff"/><stop offset="1" stop-color="#c1cac7"/></linearGradient><path fill="url(#SVGID_53_)" d="M285.622 179.342v3.346h35.347v-3.346z"/><linearGradient id="SVGID_54_" gradientUnits="userSpaceOnUse" x1="285.622" y1="188.099" x2="320.969" y2="188.099"><stop offset="0" stop-color="#fff"/><stop offset="1" stop-color="#c1cac7"/></linearGradient><path fill="url(#SVGID_54_)" d="M285.622 186.99h35.346v2.217h-35.346z"/><path d="M292.644 180.479a.277.277 0 11-.554 0 .277.277 0 01.554 0zm0 1.155a.277.277 0 11-.554 0 .277.277 0 01.554 0zm21.842-1.155a.277.277 0 11-.554 0 .277.277 0 01.554 0zm0 1.155a.277.277 0 11-.554 0 .277.277 0 01.554 0z" fill="#202B52"/><path fill="#FFF" d="M285.622 186.99l2.585-.713h30.705l2.057.713z"/><path opacity=".8" fill="#FFF" d="M-.053 148.486h150.661c-.349-1.647-2.062-2.906-4.137-2.906-.523 0-1.019.095-1.484.242-.923-1.742-2.9-2.955-5.209-2.955-.333 0-.657.04-.98.087-1.49-3.013-5.171-5.149-9.483-5.149-.505 0-.999.041-1.483.095 0-.028.003-.06.003-.095 0-4.943-3.858-8.956-8.636-9-.671-4.393-4.859-7.776-9.942-7.776-2.593 0-4.943.882-6.725 2.325-.661-1.624-2.264-2.834-4.23-3.109-.934-2.629-3.313-4.511-6.122-4.511-2.743 0-5.087 1.789-6.063 4.334a1.978 1.978 0 00-.915-.235c-.873 0-1.62.569-1.966 1.385a1.35 1.35 0 00-.658-.23c-.01-1.418-1.116-2.575-2.549-2.758.003-.067.023-.132.023-.197 0-3.123-2.746-5.655-6.127-5.655-.459 0-.902.054-1.331.145-.233-.693-.785-1.26-1.513-1.556a3.11 3.11 0 00.611-1.838c0-1.767-1.507-3.202-3.371-3.202a3.61 3.61 0 00-.806.103c-.218-1.535-1.446-2.712-2.944-2.712-1.087 0-2.025.627-2.551 1.553a3.047 3.047 0 00-1.461-.393c-1.615 0-2.933 1.275-3.148 2.921-.048-.004-.091-.014-.14-.014-1.204 0-2.183.919-2.183 2.055 0 .103.02.204.039.307a8.6 8.6 0 00-2.279-.307c-4.018 0-7.319 2.77-7.669 6.297-2.116.08-3.863 1.511-4.38 3.447l-.799.459c-1.517-1.559-3.764-2.547-6.276-2.547-3.857 0-7.09 2.328-8.003 5.469-1.558.113-2.793 1.458-2.9 3.156a2.872 2.872 0 00-.876-.146c-1.298 0-2.362.868-2.52 1.99a9.037 9.037 0 00-4.851-1.413c-.796 0-1.565.112-2.301.305a4.595 4.595 0 00-3.693-1.828 4.64 4.64 0 00-2.916 1.037 11.689 11.689 0 00-4.381-.848c-.453 0-.896.037-1.335.088v23.58z"/><path d="M52.041 71.541c1.701-.117 2.507-.697 3.917-.978 1.592-.311 2.859.382 3.757.749.201-.276.487-.448.803-.45.309-.002.59.156.791.414.899-.372 2.193-1.147 3.844-.854 1.413.251 2.226.817 3.928.903.194.01.357.012.357.012s-.162.035-.357.074a8.618 8.618 0 01-1.83.11c-.699-.028-1.37-.143-2.092-.103-.845.05-1.424.3-1.873.525-.719.363-1.256.764-1.852 1.152-.286.121-1.068.372-1.899-.032-.536-.343-1.041-.692-1.694-1.009a4.544 4.544 0 00-1.877-.493c-.723-.025-1.394.102-2.09.143a8.677 8.677 0 01-1.832-.079c-.195-.031-.357-.064-.357-.064s.162-.006.356-.02zm41.12 94.734c2.258-.155 3.325-.926 5.197-1.298 2.111-.412 3.792.508 4.982.994.268-.366.646-.594 1.066-.597.411-.002.781.206 1.049.548 1.192-.494 2.909-1.521 5.099-1.134 1.874.336 2.952 1.086 5.21 1.201.258.013.474.015.474.015s-.214.048-.474.099c-.803.13-1.547.185-2.427.145-.927-.038-1.817-.189-2.775-.137-1.122.067-1.889.397-2.485.697-.953.479-1.666 1.012-2.455 1.527-.38.162-1.417.494-2.521-.044-.71-.454-1.38-.916-2.247-1.336-.598-.29-1.369-.605-2.49-.655-.958-.034-1.848.135-2.773.189-.882.055-1.626.008-2.43-.105-.258-.042-.473-.084-.473-.084s.214-.008.473-.025zm83.555-69.584c1.383-.095 2.039-.567 3.185-.795 1.294-.253 2.325.311 3.054.609.164-.224.396-.364.653-.366.252-.002.479.126.643.337.731-.303 1.783-.933 3.125-.695 1.149.204 1.809.665 3.193.735.158.007.29.009.29.009s-.131.029-.29.061a6.961 6.961 0 01-1.488.088c-.569-.023-1.114-.116-1.701-.084a3.693 3.693 0 00-1.523.428c-.584.294-1.021.62-1.505.936-.233.098-.868.303-1.545-.026-.435-.279-.846-.562-1.378-.82a3.659 3.659 0 00-1.526-.401c-.588-.02-1.133.082-1.699.116a7.08 7.08 0 01-1.49-.064c-.159-.025-.29-.052-.29-.052s.135-.006.292-.016z" fill-rule="evenodd" clip-rule="evenodd" fill="#FFF"/><path fill-rule="evenodd" clip-rule="evenodd" fill="#4B5EA8" d="M149.157 235.387c-3.331-2.524-5.988-4.242-9.047-4.242a7.99 7.99 0 00-6.772 3.744 7.466 7.466 0 00-5.517-2.018 7.682 7.682 0 00-6.9-4.3 7.683 7.683 0 00-7.023 4.564 7.31 7.31 0 00-5.184-2.147 7.303 7.303 0 00-3.167.718 5.456 5.456 0 00-3.264-1.077 5.474 5.474 0 00-4.276 2.051 9.15 9.15 0 00-5.445-2.044 5.305 5.305 0 00-5.006-3.547 5.28 5.28 0 00-3.855 1.675c.873-2.894 3.022-5.308 4.134-6.41.23-.217.451-.437.694-.651-5.132 0-10.326 8.898-10.421 9.059a.055.055 0 00-.008.006c.002-5.644 2.209-7.74 2.209-7.74-.215 0-.436.048-.66.117.009-.186-.16-.1-.451.172-1.889.916-3.9 3.793-4.928 5.42-.038-.001-.073-.011-.111-.011-.187 0-.365.032-.545.055.229-3.522 1.502-4.403 1.502-4.403-2.84 0-4.307 1.264-4.307 1.264.992-2.995 2.748-4.07 2.748-4.07-6.32 0-9.794 3.858-9.811 3.878l-.001.001c1.608-6.483 8.009-9.628 8.818-10.002l.086-.039c-7.566 0-12.431 5.686-14.506 8.755-.347.479-.662.961-.895 1.432-.147.259-.229.418-.251.462l.008-.032a44.427 44.427 0 015.468-11.138c2.817-3.553 6.748-6.296 9.53-9.82l-.144.122.144-.122c-16.886 3.422-21.246 18.094-22.201 22.632-.129.45-.216.9-.239 1.345 0-8.213-3.005-12.05-3.005-12.05-.453 1.247-.611 2.638-.78 4.025-.669 2.5-1.597 4.962-2.279 6.631-.364.67-.694 1.352-.897 2.089.064-.673.028-1.355-.048-2.041-.202-4.374-.977-7.433-.977-7.433-.118.584-.208 1.231-.305 1.883-.703 2.43-2.47 4.932-3.409 6.145a6.02 6.02 0 00-.607.753c.114-1.21.175-2.407.253-3.594 1.022-7.254 4.973-12.201 7.867-14.934 1.136-.924 2.258-1.789 3.208-2.558-13.132 2.904-20.745 16.068-20.745 16.068a9.448 9.448 0 00-1.417 2.822v-.006c1.055-6.916 3.218-10.898 4.686-12.908a87.57 87.57 0 011.963-2.202c-.151.172-.307.337-.46.505-12.271 2.35-13.877 18.721-13.877 18.721 0-7.024-4.227-9.276-4.227-9.276-.049 1.069-.215 2.212-.431 3.358a54.781 54.781 0 01-.646 2.879c-.112.433-.223.87-.339 1.283-1.547-1.563-.975-4.33-.604-6.253-1.454 1.24-4.217 2.946-5.265 4.733l-.124-.032c.4-1.576 1.09-3.338 2-5.105 3.606-6.315 8.835-9.518 8.835-9.518-10.443 0-17.983 13.944-17.983 13.944l.003.385-.003.003v7.814h.055v.006h49.561v-.006h17.765c.036.071.052.137.103.211h81.723zm-77.412-30.101l-.103.087.103-.087zm-39.136 6.956c-.369.406-.742.805-1.121 1.197.666-.834 1.116-1.194 1.121-1.197z"/><g fill-rule="evenodd" clip-rule="evenodd" fill="#39499A"><path d="M278.694 208.684c.906.189 1.767.4 2.608.62-1.51-.613-2.608-.62-2.608-.62z"/><path d="M335.22 228.546c-2.418-3.545-10.776-14.63-20.772-14.63 0 0 4.777 2.133 8.27 6.956 1.331 1.962 2.339 4.051 2.896 5.939.155.553.294 1.121.4 1.713-.12-.38-.366-.759-.692-1.134-1.013-1.514-3.04-4.009-5.405-4.009.24 1.825.628 4.452-1.396 5.909 0 0-.762-3.913-.887-6.181-.004-.32-.023-.647-.006-.956 0 0-6.067 2.963-6.067 8.718 0 0-.124-11.305-15.14-18.396 0 0 .743.539 1.722 1.64a45.982 45.982 0 01-1.722-1.64c.767.747 1.498 1.458 2.176 2.173 1.397 1.712 3.08 4.483 3.884 8.42.162 1.571.242 3.145.477 4.726 0 0-.012-.066-.04-.183a5.463 5.463 0 00-.335-1.144c-1.194-3.498-5.842-12.993-21.766-17.164.175.071.355.151.54.239a64.218 64.218 0 00-3.148-.86c2.712 1.904 11.329 8.562 11.329 20.116-.313-.434-.712-.804-1.13-1.158-1.062-1.215-2.542-3.296-2.978-5.801-.035-.489-.072-.97-.134-1.413 0 0-2.247 4.922-2.247 8.951-.126-.536-.346-1.042-.604-1.537-.616-1.674-1.587-4.627-2.363-8.392-.063-.756-.173-1.496-.413-2.189-1.894 3.481-3.856 7.595-4.898 11.36 0 0 0-.082-.008-.223a4.613 4.613 0 00-.174-1.219c-.743-3.609-4.561-13.356-24.17-21.566 0 0 .27.188.728.529-.242-.176-.488-.353-.728-.529 2.367 1.787 5.704 4.946 8.476 7.482 2.108 2.277 4.167 4.938 5.599 7.788.628 1.298 1.161 2.634 1.498 3.957l.032.12c.093.379.172.758.231 1.133-.59-2.258-3.98-5.136-6.048-6.366-4.949-2.942-5.645-3.274-11.673-4.34 9.351 3.294 8.621 7.83 10.791 9.815 0 0-7.654-4.208-11.9-4.208 0 0 1.864 3.286 2.126 4.055.192.059.413.14.013.036-.257-.097-.224-.096-.118-.067-.973-.592-3.977-1.654-5.083-1.654 0 0 .741 1.116 1.486 2.634a6.089 6.089 0 00-1.418.576c-1.627-1.736-3.56-3.311-5.055-3.636 0 0 1.803 2.959 2.542 5.91.021.098.027.2.046.299-.12.238-.234.479-.323.733-.084.003-.165.014-.248.019-2.797-3.106-8.886-8.784-12.591-8.784 0 0 4.341 3.517 6.215 7.892.306.84.554 1.714.716 2.649-.229-.467-.583-.818-1.014-1.097-1.148-1.123-3.44-2.259-8.033-2.259 0 0 1.21.536 2.558 1.68a6.312 6.312 0 00-2.644 1.139 8.45 8.45 0 00-3.668-.831c-1.546 0-2.991.42-4.239 1.141a37.656 37.656 0 01-2.965-.598c-1.631-2.034-4.125-3.344-6.935-3.344a8.9 8.9 0 00-7.992 4.981 8.646 8.646 0 00-6.391 2.337 9.252 9.252 0 00-7.844-4.336c-3.543 0-6.621 1.99-10.48 4.914h94.663c.053-.076.093-.15.133-.224h65.042v-5.537a6.079 6.079 0 00-.704-1.074z"/><path d="M249.553 225.052a2.149 2.149 0 00-.105-.031c.035.021.088.047.118.067l-.013-.036z"/></g><path fill="#FFF" d="M188.651 137.962H169.44v-27.51z"/><circle fill="#FFF" cx="185.356" cy="142.993" r="1.162"/><circle fill="#406DB4" cx="185.356" cy="142.993" r=".728"/><circle fill="#FFF" cx="181.195" cy="142.993" r="1.162"/><circle fill="#406DB4" cx="181.195" cy="142.993" r=".728"/><path fill="#FFF" d="M175.871 142.993a1.162 1.162 0 102.323 0 1.162 1.162 0 00-2.323 0z"/><path fill="#406DB4" d="M176.305 142.993a.728.728 0 101.456 0 .728.728 0 00-1.456 0z"/><path fill="#FFF" d="M146.872 145.94h39.293c-.312.268-.63.526-.955.759h-37.971c-.127-.245-.25-.5-.367-.759z"/><path fill="#202B52" d="M190.331 140.082h-16.789s.086 2.561-4.088 2.561h-23.8s0 5.881 3.32 5.881h32.802c5.997 0 8.555-3.447 8.555-8.442z"/><linearGradient id="SVGID_55_" gradientUnits="userSpaceOnUse" x1="169.084" y1="126.459" x2="190.192" y2="126.459"><stop offset="0" stop-color="#fff"/><stop offset=".095" stop-color="#f0f0f2"/><stop offset=".371" stop-color="#cacbce"/><stop offset=".623" stop-color="#afb2b6"/><stop offset=".841" stop-color="#9fa3a8"/><stop offset="1" stop-color="#999ea3"/></linearGradient><path fill="url(#SVGID_55_)" d="M169.44 142.643v-31.57l4.102 29.031v-.022h.409l-4.358-29.025 11.893 29.025h.478l-12.226-29.013 19.955 29.013h.5c-1.037-1.487-20.799-29.807-20.852-29.807h-.157a.1.1 0 00-.099.099v32.269h.355z"/><circle fill="#406DB4" cx="181.099" cy="142.993" r=".728"/><circle fill="#406DB4" cx="184.301" cy="142.993" r=".728"/><circle fill="#406DB4" cx="187.503" cy="142.993" r=".728"/><circle fill="#406DB4" cx="177.92" cy="142.993" r=".728"/><circle fill="#406DB4" cx="174.741" cy="142.993" r=".728"/><path d="M146.949 147.458h39.668a6.733 6.733 0 001.134-.759h-41.267c.132.274.289.527.465.759zm-.98-2.277c.059.252.131.506.215.759h42.314c.203-.239.388-.492.556-.759h-43.085z" fill="#554596"/><defs><filter id="Adobe_OpacityMaskFilter_10_" filterUnits="userSpaceOnUse" x="145.655" y="148.486" width="44.677" height="37.471"><feFlood result="back" flood-color="#fff" flood-opacity="1"/><feBlend in="SourceGraphic" in2="back"/></filter></defs><mask maskUnits="userSpaceOnUse" x="145.655" y="148.486" width="44.677" height="37.471" id="SVGID_56_"><g filter="url(#Adobe_OpacityMaskFilter_10_)"><defs><filter id="Adobe_OpacityMaskFilter_11_" filterUnits="userSpaceOnUse" x="145.655" y="148.486" width="44.677" height="37.471"><feFlood result="back" flood-color="#fff" flood-opacity="1"/><feBlend in="SourceGraphic" in2="back"/></filter></defs><linearGradient id="SVGID_57_" gradientUnits="userSpaceOnUse" x1="167.993" y1="185.957" x2="167.993" y2="148.486"><stop offset=".204"/><stop offset=".335" stop-color="#030303"/><stop offset=".448" stop-color="#0e0e0e"/><stop offset=".554" stop-color="#202020"/><stop offset=".656" stop-color="#393939"/><stop offset=".756" stop-color="#595959"/><stop offset=".852" stop-color="gray"/><stop offset=".946" stop-color="#aeaeae"/><stop offset=".999" stop-color="#ccc"/></linearGradient><path mask="url(#SVGID_56_)" fill="url(#SVGID_57_)" d="M187.462 150.062c-.086-.062-.167-.128-.257-.187a6.892 6.892 0 00-.587-.344c-1.262-.67-2.86-1.045-4.841-1.045h-32.802c-1.23 0-2.003.792-2.49 1.788-.828 1.692-.83 3.973-.83 3.973h23.429v31.612c0 .054.045.097.099.097h.157c.053 0 19.814-27.744 20.852-29.201h.139c0-2.89-.902-5.244-2.869-6.693zm-13.829 8.771l.318-2.077h7.535l-.869 2.077h-6.984zm-4.179-4.585c4.008 0 4.088 2.307 4.088 2.491v-.004l-.303 2.099h-3.8v-4.586h.015zm18.78 4.585h-7.164l.893-2.077h7.729l-1.458 2.077z"/></g></mask><linearGradient id="SVGID_58_" gradientUnits="userSpaceOnUse" x1="167.993" y1="185.957" x2="167.993" y2="148.486"><stop offset=".204" stop-color="#554596"/><stop offset=".423" stop-color="#534393"/><stop offset=".611" stop-color="#4c3d8a"/><stop offset=".788" stop-color="#41347d"/><stop offset=".957" stop-color="#322a6d"/><stop offset=".999" stop-color="#2e2868"/></linearGradient><path opacity=".3" fill="url(#SVGID_58_)" d="M187.462 150.062c-.086-.062-.167-.128-.257-.187a6.892 6.892 0 00-.587-.344c-1.262-.67-2.86-1.045-4.841-1.045h-32.802c-1.23 0-2.003.792-2.49 1.788-.828 1.692-.83 3.973-.83 3.973h23.429v31.612c0 .054.045.097.099.097h.157c.053 0 19.814-27.744 20.852-29.201h.139c0-2.89-.902-5.244-2.869-6.693zm-13.829 8.771l.318-2.077h7.535l-.869 2.077h-6.984zm-4.179-4.585c4.008 0 4.088 2.307 4.088 2.491v-.004l-.303 2.099h-3.8v-4.586h.015zm18.78 4.585h-7.164l.893-2.077h7.729l-1.458 2.077z"/><path fill="#FCE1DB" d="M87.906 42.766a7.558 7.558 0 00.249 14.681 7.558 7.558 0 11-.249-14.681z"/><path fill-rule="evenodd" clip-rule="evenodd" fill="#39499A" d="M214.393 197.01c-.832-1.199.587-2.014 2.198-2.176a3.866 3.866 0 017.731.04l-.001.085c.489.04.959.146 1.402.308a3.912 3.912 0 012.146-2.029 4.78 4.78 0 019.169-.51 8.241 8.241 0 014.906 1.842 4.931 4.931 0 013.853-1.848 4.92 4.92 0 012.942.971 6.588 6.588 0 012.854-.647c1.824 0 3.475.739 4.671 1.934a6.924 6.924 0 0112.546-.238c.117-.006.236-.01.354-.01 1.786 0 2.853 1.129 4.06 2.262l-58.831.016z"/><ellipse transform="rotate(-49.855 85.63 50.138)" opacity=".04" fill="#E5EED5" cx="85.627" cy="50.137" rx="44.573" ry="44.204"/><ellipse transform="rotate(-48.264 85.62 50.138)" opacity=".04" fill="#E5EED5" cx="85.627" cy="50.137" rx="36.394" ry="35.947"/><ellipse opacity=".04" fill="#E5EED5" cx="85.627" cy="50.137" rx="28.028" ry="28.067"/><ellipse opacity=".04" fill="#E5EED5" cx="85.627" cy="50.137" rx="19.026" ry="19.053"/><ellipse opacity=".15" fill="#FFF" cx="85.759" cy="49.945" rx="13.819" ry="13.839"/><ellipse transform="rotate(-49.855 251.084 49.946)" opacity=".04" fill="#E5EED5" cx="251.077" cy="49.945" rx="44.573" ry="44.204"/><ellipse transform="rotate(-48.264 251.062 49.953)" opacity=".04" fill="#E5EED5" cx="251.077" cy="49.945" rx="36.394" ry="35.947"/><ellipse opacity=".04" fill="#E5EED5" cx="251.077" cy="49.945" rx="28.028" ry="28.067"/><ellipse opacity=".04" fill="#E5EED5" cx="251.077" cy="49.945" rx="19.026" ry="19.053"/><ellipse opacity=".15" fill="#FFF" cx="251.209" cy="49.752" rx="13.819" ry="13.839"/></g></switch></svg>