<svg version="1.1" id="Layer_1_1_" xmlns="http://www.w3.org/2000/svg" x="0" y="0" viewBox="0 0 2850 1800" xml:space="preserve"><linearGradient id="SVGID_1_" gradientUnits="userSpaceOnUse" x1="1425" y1="0" x2="1425" y2="1342.814"><stop offset=".001" stop-color="#001c8c"/><stop offset=".192" stop-color="#062090"/><stop offset=".434" stop-color="#152a9c"/><stop offset=".705" stop-color="#2f3cb0"/><stop offset=".994" stop-color="#5355cb"/><stop offset=".998" stop-color="#5455cc"/></linearGradient><path fill="url(#SVGID_1_)" d="M0 0h2850v1800H0z"/><g fill="none" stroke="#FFF" stroke-linecap="round" stroke-linejoin="round" stroke-miterlimit="10"><path d="M2415.972 51.992v-1.153m-60.279 126.788l-1.096 1.153m-145.764-85.294h-1.096m43.839 117.566v-1.153m75.815 123.366c-.094.563 1.027.521.895-.034m-146.853-39.191v1.153m73.431 189.029l1.096-1.153m315.641-164.824v-1.153m203.851 28.816l1.096-1.153m-61.375-91.056v1.153m49.319-149.84v-1.153m31.784-32.273l1.096-2.305m27.399 46.105v-1.153m-156.725-20.747h-1.096m31.199 292.582v-2.042m-73.78 198.069v-2.042m-66.015 361.423h-1.941m-157.27 53.091h1.942m-62.132-75.552h3.883m374.729 0v-2.042m11.65 30.629v2.042m-33.007 210.32l-1.942-2.042m102.905 30.629v2.042m-953.327-263.41h-1.942m201.927-332.837v-2.042m128.146 49.007h-1.942m-248.525-502.317l-1.942 2.042m-75.722-57.175v-2.042m-67.956 234.823h-1.942m-42.715 104.139h1.942m-248.526-238.907h5.825m157.27-12.251h-1.942m-465.984 140.894l1.942-2.042m-114.555-128.643l1.942 2.042M814.794 535.13v-2.042m-79.605 22.461h-1.942m112.613 77.594h1.942m-93.197 83.72v-2.042m83.489 294.039c-1.603 0-1.603 0 0 0m73.781-32.671c-1.603 0-1.603 0 0 0m83.488-130.684c0-1.686 0-1.686 0 0M836.152 1282.48h1.942m-122.321-222.571h1.942m-190.278-46.965v-2.042m-368.904 273.62h1.942m-73.782-153.145v-2.042m-67.956 51.048v2.042M131.35 965.979l-1.942-2.042m-42.715-95.971h-1.942m285.416-271.578h3.883m172.803-10.209l1.942-2.042m40.773 98.013l1.942 2.042M226.489 529.004h1.942m66.014-42.88h1.942m-174.745-73.51h1.942m551.415-32.671c0-1.686 0-1.686 0 0M552.678 136.952h1.942m157.269-71.468v2.042m-242.7-26.546l1.942 2.042M317.744 22.603v-2.042M65.336 116.532h-1.942m67.956-98.013l1.942-2.042" stroke-width="2.96"/><path d="M508.713 1188.389v1.058m55.357-116.435l1.006-1.059m133.864 78.33h1.006m-40.26-107.968v1.058m-69.625-113.292c.087-.517-.943-.478-.822.031m134.863 35.991v-1.059M656.667 791.45l-1.006 1.058m-289.87 151.366v1.058M178.584 918.47l-1.006 1.058m56.363 83.623v-1.059m-45.292 137.606v1.058m-29.189 29.638l-1.007 2.117m-25.161-42.34v1.058m143.928 19.054h1.006m-28.651-268.694v1.875m67.757-181.896v1.875m60.624-331.913h1.783m144.429-48.756h-1.783m57.058 69.383h-3.566m-344.133 0v1.875m-10.698-28.128v-1.875m30.312-193.148l1.783 1.875m-94.503-28.128v-1.875m875.489 241.903h1.783M850.471 690.317v1.875m-117.683-45.005h1.783m228.233 461.303l1.783-1.875m69.54 52.506v1.875m62.408-215.65h1.783m39.227-95.636h-1.783m228.234 219.401h-5.349m-144.429 11.251h1.783m427.937-129.39l-1.783 1.875m105.202 118.139l-1.783-1.875m233.582-324.413v1.875m73.106-20.627h1.783m-103.418-71.258h-1.783m85.588-76.884v1.875m-76.673-270.032c1.472 0 1.472 0 0 0m-67.757 30.004c1.472 0 1.472 0 0 0m-76.672 120.014c0 1.548 0 1.548 0 0m146.212-401.297h-1.783m112.334 204.399h-1.783m174.741 43.13v1.875m338.784-251.279h-1.783m67.757 140.641v1.875m62.407-46.88v-1.875m-103.418 198.773l1.783 1.875m39.228 88.135h1.783M2387.48 688.442h-3.566m-158.694 9.376l-1.783 1.875m-37.444-90.011l-1.783-1.875m335.217 142.517h-1.783m-60.624 39.379h-1.783m160.476 67.508h-1.783m-506.392 30.004c0 1.548 0 1.548 0 0m112.333 223.151h-1.783m-144.429 65.632v-1.875m222.884 24.378l-1.783-1.875m140.863 18.752v1.875m231.8-88.135h1.783m-62.408 90.01l-1.783 1.875" opacity=".4" stroke-width="2.719"/></g><path opacity=".05" fill="#E5EDD4" d="M318.441 1796.84h1557.18c446.928-265.893 746.4-753.734 746.4-1311.524 0-169.671-27.716-332.867-78.855-485.316H0v1544.62c94.178 97.511 201.241 182.494 318.441 252.22z"/><path opacity=".05" fill="#E5EDD4" d="M2175.987 0H18.072A1174.977 1174.977 0 000 42.309v885.989c175.326 433.765 600.429 739.815 1097.029 739.815 653.241 0 1182.798-529.557 1182.798-1182.798 0-172.954-37.13-337.234-103.84-485.315z"/><path opacity=".05" fill="#E5EDD4" d="M296.89 0c-93.46 145.352-147.68 318.33-147.68 503.975 0 515.337 417.763 933.099 933.099 933.099s933.1-417.763 933.1-933.099c0-185.645-54.22-358.624-147.68-503.975H296.89z"/><path opacity=".05" fill="#E5EDD4" d="M521.636 0c-120.117 133.543-193.22 310.219-193.22 503.975 0 416.364 337.53 753.894 753.894 753.894s753.894-337.53 753.894-753.894c0-193.757-73.103-370.432-193.221-503.975H521.636z"/><path fill="#EBEBEC" d="M1528.405 0h-892.19c-139.2 123.305-226.947 303.392-226.947 503.975 0 371.711 301.331 673.042 673.042 673.042s673.042-301.331 673.042-673.042c0-200.583-87.747-380.67-226.947-503.975z"/><path fill="#DFDFE0" d="M1114.645 653.011c35.887-14.122 81.532 8.44 92.108 45.527 8.287 29.062-2.75 61.715 8.672 89.694 8.363 20.485 27.903 34.938 49.035 41.493 19.961 6.192 42.864 6.824 58.476 20.717 16.776 14.929 19.127 41.579 10.275 62.217-8.852 20.639-26.725 36.075-45.682 48.114-35.293 22.414-77.08 35.639-118.826 33.356-41.746-2.283-83.144-20.963-109.436-53.469-37.589-46.472-39.646-112.755-27.15-171.205 8.766-41.007 27.046-84.41 64.824-102.61m197.777-219.13c-5.838 5.012-11.643 10.254-15.711 16.785-4.068 6.531-6.248 14.604-4.241 22.032 1.052 3.893 3.188 7.42 5.693 10.58 10.032 12.66 27.342 19.837 42.999 15.865 15.657-3.971 27.887-20.126 25.516-36.103-1.827-12.307-11.46-22.475-22.82-27.55-11.36-5.075-24.225-5.712-36.629-4.736m49.73 289.286c-1.56-2.786-5.733-.16-7.553 2.463-9.251 13.331-18.787 27.393-20.624 43.515-.435 3.817-.398 7.81 1.127 11.336 4.157 9.612 17.866 11.56 27.162 6.738s15.239-14.126 21.008-22.866c5.47-8.286 11.277-16.67 13.567-26.331 2.29-9.661.211-21.095-7.737-27.044-7.948-5.95-21.885-2.906-24.266 6.733M834.851 949.567c-13.467-17.169-25.596-36.315-29.069-57.858-3.472-21.543 3.475-45.918 21.596-58.073 9.302-6.239 20.569-8.78 31.655-10.378 15.894-2.291 32.44-2.842 47.689 2.19 15.249 5.032 29.072 16.448 33.653 31.839 4.008 13.468.66 27.855-.256 41.877a119.86 119.86 0 004.215 40.189c3.651 12.976 8.613 29.273-1.629 38.038-4.809 4.116-11.571 4.895-17.896 5.16-38.998 1.633-67.197-2.379-89.958-32.984M634.267 538.688c-6.24 21.99-30.624 34.715-53.478 35.12-4.977.088-9.988-.284-14.809-1.523-16.588-4.265-29.594-19.336-32.284-36.252-2.69-16.915 4.608-34.836 17.77-45.797 9.87-8.22 22.317-12.552 34.467-16.72 12.114-4.156 25.525-8.298 37.39-3.478 7.639 3.103 13.385 9.49 18.775 15.728 4.272 4.944 8.758 10.662 8.282 17.179-.427 5.847-4.726 10.536-8.038 15.374-3.311 4.838-5.729 11.514-2.392 16.334m150.936 44.036a93.834 93.834 0 00-21.435 27.491c-4.602 8.952-7.783 18.96-6.883 28.985.9 10.025 6.48 20.006 15.614 24.234 14.013 6.487 30.488-2.141 41.503-12.964 9.479-9.313 17.389-21.047 18.774-34.263 1.385-13.216-5.26-27.826-17.663-32.596-7.267-2.794-15.354-2.006-23.095-1.176m-77.15-199.281c-38.631 3.561-76.277-24.452-89.162-61.045-12.885-36.592-3.237-78.828 19.74-110.087 22.977-31.258 57.831-52.319 94.702-64.383 36.792-12.038 82.421-13.654 108.901 14.583 19.909 21.231 22.96 53.71 17.165 82.233-5.795 28.523-19.085 54.897-28.228 82.529-3.473 10.497-6.424 21.351-12.381 30.665-10.497 16.414-29.385 26.105-48.608 29.281-19.223 3.177-38.922.553-58.045-3.179m280.673-189.666c-22.715 13.771-40.484 35.519-49.449 60.523-4.885 13.625-6.796 30.037 1.947 41.572 6.166 8.135 16.417 12.101 26.445 14.007 32.11 6.104 65.426-5.267 92.855-23.043 14.92-9.669 29.117-21.938 35.732-38.44 2.124-5.298 3.419-11.046 2.796-16.72-.708-6.454-3.844-12.412-7.627-17.689-21.243-29.63-66.221-38.932-97.474-20.16M748.593.021c.944 4.788 3.758 9.546 7.364 12.909 8.266 7.71 19.973 11.244 31.255 10.539 11.282-.705 22.103-5.408 31.093-12.26 3.969-3.026 7.734-6.731 9.785-11.188h-79.497zm376.939 0c-6.288 17.245-7.417 36.401-1.308 53.618 7.644 21.547 25.383 37.923 44.023 51.162 9.819 6.974 20.148 13.382 31.405 17.663 43.423 16.512 97.731-5.156 117.862-47.024 11.272-23.443 10.9-51.297 1.371-75.419h-193.353zm338.513 207.096c-16.254 9.417-22.762 29.379-26.281 47.831-1.686 8.844-2.982 18.064-.679 26.768 3.699 13.98 16.032 24.069 29.023 30.423 9.455 4.625 20.859 7.746 30.305 3.104 12.107-5.95 15.448-21.586 15.524-35.076a151.59 151.59 0 00-5.076-39.727c-2.288-8.61-5.473-17.249-11.405-23.896-5.932-6.648-15.111-10.975-23.822-9.108m207.011 286.594c-11.364-8.535-24.88-10.834-38.927-12.995-13.427-2.065-27.344-3.135-40.442.468-13.098 3.603-25.347 12.63-29.711 25.494-2.646 7.801-2.242 16.276-1.508 24.481 2.748 30.737 7.179 49.254 29.602 70.456 17.841 16.87 55.313 22.05 55.313 22.05 8.726-24.522 22.749-87.54 25.673-129.954"/><path fill="#DFDFE0" d="M1630.317 113.163c36.427 82.83 56.654 174.395 56.654 270.686 0 371.711-301.331 673.042-673.042 673.042-225.982 0-425.946-111.378-548.007-282.229 104.193 236.919 340.968 402.357 616.388 402.357 371.711 0 673.042-301.331 673.042-673.042 0-145.73-46.321-280.638-125.035-390.814z"/><path fill="#4080C0" d="M608.924 1405.402l204.026 87.381 113.893-43.691 71.395 88.629 73.741-14.549 34.173 6.084 91.13-66.92 161.548 91.254 98.379-62.357 56.956-11.737 39.352-24.765 54.885 69.962 85.952 39.544 46.6 33.46 104.592-73.004 26.925 10.646 100.45-47.148 70.418 60.836 142.909-62.357 50.742-3.042 35.209-27.376 60.063 45.297 99.415 24.665 127.374-95.817 95.272 100.38 43.494-29.228 43.494 6.414 55.92-66.92 52.769 71.483v280.043H608.924z"/><path fill="#40B1DF" d="M2797.231 1441.043l-55.92 66.92-43.494-6.414-43.494 29.228-95.272-100.381-127.374 95.818-99.415-24.665-60.063-45.297-35.209 27.377-50.742 3.041-142.909 62.357-70.418-60.836-100.45 47.148-26.925-10.646-104.592 73.003-46.6-33.459-85.952-39.544-54.885-69.962-39.352 24.765-56.956 11.737-98.379 62.357-161.548-91.254-91.13 66.92-34.173-6.084-73.741 14.549-71.395-88.629-113.893 43.691-204.026-87.381v20.997l83.737 42.232 54.96 71.547 10.618-16.511 55.585 75.318-30.603-94.58 140.525-39.443-17.487 44.539 29.354-37.201 21.235 26.601-4.997 10.6-19.986 12.332 29.355-5.504 6.245-6.828 22.484 32.512-54.961 22.931 135.529-31.187 10.617 26.601-9.368 28.435 24.982-22.014-3.747-23.849 23.108 11.007-10.617 34.856 91.185-110.072 135.529 87.141-54.337 33.123 181.121-93.663 51.214-11.007 41.221-27.518 53.712 66.043 49.875 36.436 3.448-7.877 21.456 46.704v-37.701l15.325 6.752 37.547 28.135-51.723 30.949 108.81-54.582-4.214 17.329 32.566-41.525-2.299 12.942 30.268-32.074 17.241 4.502-27.586 22.508 82.374-37.211v15.828l32.95-35.45v19.622l17.624-19.622 14.176 15.193v-21.945l54.022 51.205-30.268 23.634 178.157-83.843 45.593 10.692 40.996-38.827v24.196l7.112-16.895 2.239 10.523 5.821-4.823 42.248 28.263 98.576 22.874-22.178 18.16 148.508-103.531 93.928 89.8-25.345 18.461 42.036-21.789 4.534 3.934 11.333-12.967 2.267 5.703 14.836-18.763 35.716 7.48-18.624 33.956 55.873-63.195-2.569 21.694 19.909-36.785.642 17.921 14.129-21.694 47.534 45.389z"/><path fill="#356FBA" d="M2850 1564.367l-204.026 53.18-113.893-26.59-71.395 53.94-73.741-8.854-34.174 3.702-91.129-40.728-161.548 55.538-98.379-37.951-56.956-7.143-39.352-15.072-54.885 42.579-85.952 24.067-46.6 20.364-104.592-44.431-26.925 6.48-100.45-28.695-70.419 37.026-142.908-37.951-50.742-1.852-35.21-16.661-60.063 27.568-99.414 15.011-127.374-58.315-95.272 61.092-43.494-17.788-43.494 3.903-55.92-40.728-52.769 43.505V1800H2850z"/><path fill="#4087E3" d="M661.693 1586.058l55.92 40.728 43.494-3.903 43.494 17.788 95.272-61.092 127.374 58.315 99.414-15.011 60.063-27.568 35.21 16.661 50.742 1.851 142.908 37.951 70.419-37.025 100.45 28.695 26.924-6.48 104.593 44.431 46.6-20.364 85.952-24.067 54.885-42.579 39.352 15.072 56.956 7.143 98.379 37.951 161.548-55.538 91.129 40.728 34.174-3.702 73.74 8.854 71.396-53.94 113.893 26.59 204.026-53.18v12.779l-83.737 25.703-54.961 43.544-10.617-10.049-55.586 45.839 30.604-57.562-140.525-24.005 17.487 27.106-29.354-22.64-21.235 16.189 4.997 6.451 19.985 7.506-29.354-3.35-6.245-4.156-22.484 19.787 54.961 13.957-135.529-18.981-10.617 16.19 9.368 17.306-24.982-13.399 3.747-14.514-23.109 6.699 10.618 21.214-91.185-66.991-135.529 53.034 54.336 20.159-181.121-57.004-51.213-6.699-41.221-16.748-53.712 40.195-49.875 22.175-3.448-4.794-21.456 28.424v-22.945l-15.325 4.11-37.547 17.123 51.723 18.835-108.81-33.218 4.214 10.546-32.566-25.272 2.299 7.876-30.268-19.52-17.241 2.739 27.586 13.699-82.374-22.647v9.634l-32.95-21.576v11.942l-17.624-11.942-14.176 9.247v-13.356l-54.022 31.164 30.268 14.383-178.158-51.027-45.593 6.507-40.995-23.63v14.726l-7.112-10.282-2.239 6.404-5.821-2.936-42.248 17.201-98.576 13.922 22.178 11.052-148.508-63.01-93.929 54.654 25.346 11.235-42.037-13.261-4.533 2.394-11.333-7.892-2.267 3.471-14.836-11.419-35.717 4.552 18.624 20.666-55.872-38.461 2.569 13.203-19.909-22.388-.642 10.907-14.129-13.203-47.534 27.624z"/><path fill="#19529C" d="M608.924 1704.855l116.952-22.672 106.964 46.515h59.674l29.275 23.392 93.794-27.816 69.466 49.259h123.853l177.898-29.24 182.402 29.24 160.26 26.467 161.757-28.416 104.712 3.898 70.934-34.39h118.223l77.69 28.542 63.052-28.542 59.928 12.947 95.451 40.937 160.229-36.997 63.064 42.021H608.924z"/><path d="M1891.219 1784.953l104.712 3.899 70.934-34.391h118.223l77.69 28.543 63.053-28.543 59.927 12.948 75.993 32.591h55.6l124.087-28.652 43 28.652h20.064l-63.064-42.021-160.229 36.997-95.451-40.937-59.927-12.947-63.053 28.542-77.69-28.542h-118.223l-70.934 34.39-104.712-3.899L1729.462 1800h76.103zm-1282.295-75.12l116.952-14.28 107.249 39.95 59.389 6.564 29.71 15.703 92.731-21.956 70.218 43.161 124.111-.828 177.516-20.485 182.62 21.313 79.09 21.025h80.952l-160.26-26.467-182.402-29.24-177.898 29.24h-123.853l-69.466-49.259-93.794 27.816-29.275-23.392H832.84l-106.964-46.515-116.952 22.672V1800z" fill="#3B7BCF"/><path fill="#4067C0" d="M1358.646 744.698l-26.428 35.864-37.23 6.287-21.802 39.907-467.049 131.972-10.305 168.164-33.064 18.699 15.804 74.975L669.7 1562.299 849.921 1800H0V853.404z"/><path fill="#130046" d="M1345.11 756.652l-64.531 11.071 14.718 11.994-5.661 9.541-266.585 65.17-565.886 36 132.896 39.653-401.412 68.57H0v137.388l233.941-16.661 572.196-160.65 467.049-131.972 21.802-39.907 37.23-6.287 26.428-35.864z"/><path fill="#130046" d="M897.432 930.057l-663.491 189.321L0 1130.277V1800h849.921l-240.997-245.998-78.928 10.909 73.862-22.277 79.146-56.344 13.9-29.349-146.774 46.791-166.66 14.46 155.474-24.471 153.42-52.309-162.368 20.051-326.607 32.258 323.252-42.27 177.179-40.419 50.89-165.739 23.778-25.38-2.521-11.89-158.834 41.713 145.248-46.527 8.701-18.234-76.415 28.108-325.491 83.479-107.926 8.518 371.745-97.108-493.376 110.738 592.736-155.033-340.908 64.739 371.189-83.291 33.164-18.653 3.32-52.706-169.032 33.277 169.976-48.28 1.003-15.919-131.311 26.161 132.058-38.02 1.137-18.041 87.644-50.874z"/><path fill="#4067C0" d="M0 831.876l864.354-87.178h494.292l-13.536 11.954-64.531 11.071 14.718 11.994-5.661 9.541-266.585 65.17-578.688 33.304 261.545 22.124L901.937 900l-3.269 14.654-664.727 204.724L0 1130.277zm386.878 685.121l348.194-77.267 137.316 7.994 11.443 15.986-111.161 37.301-255.015 31.973z"/><path fill="#130046" d="M883.831 1463.71l-53.806 57.601-81.616 39.67-55.112 89.891-67.331 35.903L513.734 1571.2l3.921-38.216 255.015-31.973z"/><linearGradient id="SVGID_2_" gradientUnits="userSpaceOnUse" x1="564.469" y1="1531.497" x2="597.584" y2="1682.631"><stop offset=".001" stop-color="#1b005e"/><stop offset="1" stop-color="#140045"/></linearGradient><path fill="url(#SVGID_2_)" d="M399.461 1759.114l235.893-104.264 137.316-153.839-255.015 31.973z"/><linearGradient id="SVGID_3_" gradientUnits="userSpaceOnUse" x1="452.883" y1="1522.578" x2="378.622" y2="1756.663"><stop offset=".001" stop-color="#1f0062"/><stop offset="1" stop-color="#140045"/></linearGradient><path fill="url(#SVGID_3_)" d="M386.878 1516.057l-21.087 242.117h33.67l118.194-225.19z"/><path fill="#4067C0" d="M221.521 1386.699l-117.046 86.275 54.134 9.539 227.936-77.111z"/><linearGradient id="SVGID_4_" gradientUnits="userSpaceOnUse" x1="127.247" y1="1485.726" x2="69.981" y2="1592.174"><stop offset=".001" stop-color="#1f0062"/><stop offset="1" stop-color="#140045"/></linearGradient><path fill="url(#SVGID_4_)" d="M104.475 1472.974l-48.929 126.385 103.063-116.846z"/><linearGradient id="SVGID_5_" gradientUnits="userSpaceOnUse" x1="273.071" y1="1431.94" x2="267.007" y2="1579.484"><stop offset=".001" stop-color="#1f0062"/><stop offset="1" stop-color="#140045"/></linearGradient><path fill="url(#SVGID_5_)" d="M158.609 1482.513l65.957 72.014 115.002 60.797 46.977-209.922z"/><path fill="#130046" d="M158.609 1482.513L55.546 1599.359l169.02-44.832 18.191-100.482z"/><ellipse fill="#3040A3" cx="962.403" cy="775.122" rx="109.5" ry="12.918"/><path fill="#130046" d="M1070.816 621.842a146.842 146.842 0 00-3.198-38.449c-2.128-9.749 1.042-20.53 3.62-30.169.92-3.439 2.124-6.796 3.428-10.109.545-1.385 1.117-2.894.7-4.322-.509-1.746-2.355-2.845-2.879-4.586l-6.516 8.955a46.305 46.305 0 013.427-10.848c.197-.43.405-.88.375-1.352-.03-.474-.297-.897-.559-1.293a62.496 62.496 0 00-3.653-4.958c-.531-.651-1.115-1.319-1.911-1.586s-.905-.454-1.422.208l-15.954 20.439c-.939 1.203-1.928 2.448-3.305 3.108-1.54.739-3.407.663-4.857 1.567-1.228.766-1.955 2.107-2.627 3.388l-7.815 14.892c-.549 1.045-1.104 2.101-1.873 2.997-.767.894-1.723 1.601-2.636 2.345a37.12 37.12 0 00-9.612 11.924 49.397 49.397 0 0012.034-3.458 53.002 53.002 0 01-14.547 17.145c-.978.747-2.012 1.494-2.614 2.568-.283.504-.467 1.076-.862 1.499-.289.31-.669.516-1.043.716l-12.557 6.738 1.896 1.422-17.26 6.561c-5.09 1.935-8.805 5.694-14.007 7.3l-3.003.927-23.372 7.217c-16.232 5.012-32.673 10.118-47.07 19.137l2.746 1.839c-4.194 2.514-7.351 6.406-10.376 10.248-6.985 8.873-14.135 18.234-24.3 23.151-11.956 5.783-26.085 4.428-39.055 1.567 4.005 7.157 11.429 12.297 19.538 13.526l-3.453 1.318a34.06 34.06 0 007.503 3.135c.344-.216.862-.201.818.225-.274-.07-.546-.147-.818-.225-.193.121-.332.313-.286.549.129.655.907.921 1.562 1.049a36.526 36.526 0 0015.846-.436l-2.774 2.565a33.44 33.44 0 0013.851-4.739l-1.579 2.954a203.807 203.807 0 0018.442-9.819c-.92 8.127-1.546 15.765-1.595 21.44 0 0 .76-2.908 1.393-4.064-.119 2.929-.362 4.452-.495 7.237a40.289 40.289 0 01-2.304 11.629c-1.326 3.711-2.362 7.207-3.234 11.092-.549 2.447-1.718 6.49-1.585 8.997l.042.753c.531-.09.531-.09 0 0 .292 5.071.734 8.603.811 13.85.008.518.053 1.064.125 1.62.465 3.619 2.071 7.692 2.071 7.692s4.584.619 8.126.895c.992.077 1.992.011 2.988.016.31.002.646-.006.898-.234.308-.279.783-.794.837-1.249.255-2.169.112-4.328.367-6.497.115-.978.227-1.998-.036-2.92-.262-.92-1.46-2.704-2.119-3.259-.763-.643-1.099-1.494-1.199-2.541-.184-1.928.437-4.521.685-7.71.267-3.435 4.384-6.959 6.488-9.358.212-.242.43-.499.654-.769 1.886-1.991 4.061-5.036 6.365-8.765-.466.968-.972 1.905-1.558 2.78 1.666-.13 3.309-.897 4.634-2.164l-1.814 4.223 2.006-1.542a32.243 32.243 0 01-3.523 5.769c.591-.479 1.414-1.078 2.005-1.557l-.132 1.584-1.393 6.916c-.045.224-.089.466-.015.675.062.174.195.291.32.406 2.157 1.996 2.971 5.43 3.526 8.667.159.929.313 1.875.493 2.811.446 2.323 1.052 4.582 2.315 6.354 2.335 3.278 6.283 4.342 6.283 4.342s7.91.877 9.936-.051c.383-.175.776-.417.988-.841.18-.361.202-.797.218-1.214l.153-3.873c.019-.479.034-.983-.144-1.405-.288-.683-.971-.936-1.574-1.187-2.072-.861-3.925-2.423-5.296-4.466-.565-.841-1.059-1.791-1.22-2.866-.143-.954-.014-1.949-.12-2.912-.183-1.656-1.437-4.221-1.27-5.208l-.005.012c.021-.091.044-.183.063-.272.233-1.093.514-2.16.965-3.156 2.238-4.95 4.523-9.979 5.512-15.452l-1.529.946.205-.171c1.176-.973 2.743-1.823 4.063-2.455 2.632-1.259 5.424-1.484 7.956-3.026 2.905-1.769 5.643-4.611 7.574-7.78.877-1.439 1.602-2.934 2.255-4.471 1.695-2.974 3.053-5.094 4.368-5.407 9.577-2.285 17.831-1.643 30.746-9.973-.001.009 1.474-.196 3.198-.439-.925 8.5-2.227 20.865-3.136 25.765a11.32 11.32 0 01-1.285-2.76c-.261 2.379-.186 5.359.271 7.633-.496-.379-1.095-1.042-1.258-1.792.109 2.007.596 3.458.959 5.392l-1.061-1.371c.079 1.808.55 3.554 1.34 4.964.346.617.764 1.207.875 1.981.128.894-.418 2.963-.553 3.873-.376 2.536.809 2.967 1.448 5.333.697 2.579.809 5.873.874 9.053.038 1.856.061 3.674.174 5.288.307 4.382 1.406 8.347 3.405 11.694.448.751 2.184 1.883 2.907 1.939l10.243.797c2.432.189 3.797-7.495 1.966-10.861-1.423-2.616-2.953-4.457-3.898-7.469-1.232-3.928-.904-8.497-.506-12.839.082-.896.167-1.795.257-2.693.626-6.271 1.496-12.554 3.462-18.352.435-1.282.923-2.539 1.538-3.684.649-1.208 1.429-2.275 2.139-3.419 1.472-2.372 2.621-5.047 3.575-7.856.178.165.359.326.543.483-1.56 6.638-3.939 15.034-5.308 17.872-.234-.669-.808-1.553-.716-2.304a30.256 30.256 0 00-.755 5.337c-.214-.281-.317-.713-.269-1.126a28.318 28.318 0 00-.154 3.564c-.319-.221-.542-.669-.579-1.163-.749 2.771 1.688 5.27 1.454 8.174-.065.81-.341 1.614-.255 2.409.078.72.437 1.294.749 1.869 1.236 2.275 1.885 5.004 2.401 7.807.24 1.303.451 2.622.679 3.919.718 4.084.666 6.962 3.106 9.436 1.288 1.305 4.212 3.512 4.908 3.799.182.076.37.12.562.135 1.287.102 6.722.502 8.947.148.612-.097 1.285-.264 1.691-.919.207-.335.316-.757.412-1.17.347-1.499.584-3.039.707-4.587.038-.48.063-.978-.061-1.419-.166-.593-.57-.978-.954-1.33-1.949-1.787-3.688-2.905-5.637-4.692-.427-.391-1.074-1.467-1.343-2.066-.199-.444-.316-.956-.381-1.476-.278-2.223-.232-3.719-1.077-6.154-.157-.454-.237-.951-.284-1.461-.04-.439-.056-.888-.072-1.327-.135-3.698 1.611-7.078 2.949-10.4 1.679-4.17 2.797-8.679 3.906-13.16l2.094-8.46c8.1-11.414 12.12-34.786 13.581-37.485.718-1.325 1.499-2.718 2.808-3.465 1.309-.747 3.301-.505 3.916.872a62.095 62.095 0 006.474-12.297 3.809 3.809 0 001.035 2.937 33.72 33.72 0 004.704-12.453l1.312 3.456a77.395 77.395 0 003.563-18.106l1.784 4.249a231.54 231.54 0 00.857-21.735l1.502 3.391z"/><path fill="#4067C0" d="M2850 1002.571l-205.899-14.094-104.274 50.225-384.26 17.857v35.094l416.459 72.619L2850 1177.965z"/><path fill="#130046" d="M2850 1800v-622.035l-277.974-13.693-416.459-72.619 62.495 110.87 73.186 43.689 64.445 331.865L2218.062 1800z"/><path fill="#4067C0" d="M2459.707 1229.246l210.341.64-212.459 8.773-124.527-5.028 141.061 28.762h195.925l-195.979 9.826-161.026-17.979 144.488 42.691h89.719l-86.924 12.19-138.162-26.131 53.487 270.127 46.964 11.25 39.354 2.469-40.812 3.973-36.958-.365 35.013 6.45 119.079 2.469-123.507 14.757-23.444-2.678-99.187 153.891 76.068 13.153-84.413 6.739-5.085 13.478h73.226L2273.638 1800h-55.576l137.631-221.923-64.445-331.865-73.186-43.689z"/><path fill="#4067C0" d="M2474.375 1484.673l117.046 86.275-54.133 9.539-227.937-77.111z"/><linearGradient id="SVGID_6_" gradientUnits="userSpaceOnUse" x1="2547.201" y1="1583.7" x2="2489.936" y2="1690.148" gradientTransform="matrix(-1 0 0 1 5115.85 0)"><stop offset=".007" stop-color="#22005e"/><stop offset="1" stop-color="#140045"/></linearGradient><path fill="url(#SVGID_6_)" d="M2591.421 1570.948l48.929 126.386-103.062-116.847z"/><linearGradient id="SVGID_7_" gradientUnits="userSpaceOnUse" x1="2693.025" y1="1529.914" x2="2686.962" y2="1677.458" gradientTransform="matrix(-1 0 0 1 5115.85 0)"><stop offset=".005" stop-color="#220062"/><stop offset="1" stop-color="#140045"/></linearGradient><path fill="url(#SVGID_7_)" d="M2537.288 1580.487l-65.957 72.014-115.003 60.797-46.977-209.922z"/><path fill="#130046" d="M2537.288 1580.487l103.062 116.847-169.019-44.833-18.192-100.481zm85.445-595.726l-8.443-8.279 16.091-46.921-5.901-56.629-6.005-2.798 2.321 61.887-17.657 33.527-20.183-19.791s-.692-3.192-1.78-8.277c-3.855-18.265-11.684-55.867-13.463-67.346l-5.884 25.611c1.431 10.919 4.436 31.222 6.705 46.337l-57.278-16.401-14.866-48.479h-3.812l12.198 58.319 66.5 24.69 31.199 31.515.414 85.431 31.224-3.929-11.38-88.467z"/><path d="M2570.847 942.081c-2.27-15.115-5.274-35.418-6.705-46.337l4.561-19.852a235.534 235.534 0 01-.99-5.758l-5.884 25.611c1.409 10.755 4.344 30.606 6.601 45.645l2.417.691zm33.08 21.971l1.525 1.495 17.657-33.526-2.28-60.791-2.353-1.096 2.321 61.887zm.861 27.673l-31.199-31.515-66.5-24.69-12.197-58.319h-2.313l12.198 58.319 66.5 24.69 31.199 31.515.413 85.431 2.311-.29z" fill="#4067C0"/><path fill="#130046" d="M2602.42 1083.205c-15.639-6.858-28.29-20.249-34.249-36.252 10.168.228 18.358 8.021 25.45 15.311a1767.32 1767.32 0 01-13.612-27.967c-1.09-2.291-2.204-4.785-1.721-7.276 3.879 1.472 6.855 4.649 9.316 7.989 6.68 9.065 10.531 19.851 14.293 30.464a1910.81 1910.81 0 01-1.434-24.166c8.888 11.124 13.325 25.706 12.138 39.895m11.187-6.676c2.168-12.715 11.69-36.56 20.397-46.076l-8.257 25.844c6.246-14.386 16.316-27.091 28.897-36.456a135.81 135.81 0 00-18.762 29.202c-1.763 3.717-3.371 7.566-3.975 11.635a34.062 34.062 0 0114.357-13.998 76.893 76.893 0 00-11.464 18.328 48.485 48.485 0 0112.718-9.611 224.88 224.88 0 00-13.492 22.013m99.355-232.932c-1.795-.661-3.675-1.593-4.5-3.319-.925-1.936-.235-4.209.295-6.288 3.467-13.594-1.195-28.94-11.637-38.309-1.792-1.608-3.782-3.106-4.933-5.221-2.624-4.822.072-10.87 3.687-15.001 3.615-4.131 8.259-7.582 10.433-12.624 4.911-11.389-6.28-24.48-18.541-26.346-10.555-1.606-20.933 2.366-30.684 7.059-2.345 1.129-5.117-.289-5.59-2.849-4.13-22.376-10.865-45.116-26.942-60.99-11.464-11.32-26.7-18.067-42.161-22.596-30.379-8.899-63.203-9.999-93.761-1.736-30.558 8.263-58.688 26.062-78.127 51.046-8.086 10.393-14.787 22.323-16.495 35.38-1.44 11.011 1.186 22.913 8.163 31.366 1.722 2.087.962 5.223-1.551 6.226-15.59 6.218-27.714 20.876-30.411 37.504-2.43 14.983 2.906 30.868 13.369 41.786 2.323 2.424.728 6.474-2.624 6.66-7.599.421-15.122 2.246-22.05 5.398-4.497 2.045-9.046 4.989-10.728 9.634-.747 2.064-.59 4.469.248 6.509 1.006 2.448-.455 5.181-3.085 5.473a473.433 473.433 0 00-23.898 3.271c-4.419.72-4.387 7.079.029 7.821 33.174 5.578 67.932 1.744 99-11.194 5.008-2.086 10.721-4.408 15.629-2.097 2.51 1.182 4.365 3.423 6.752 4.837 4.652 2.755 10.53 1.987 15.789.732a106.755 106.755 0 0034.507-15.092c1.417-.949 3.293-.842 4.626.221 25.054 19.988 65.459 17.305 87.709-5.737 1.3-1.346 3.358-1.624 4.939-.622 8.554 5.417 19.523 6.542 29.57 4.707 11.121-2.031 21.363-7.306 31.182-12.911 2.651-1.513 5.412-3.096 8.459-3.285 2.518-.156 4.981.657 7.397 1.385 26.466 7.974 55.701 6.394 81.156-4.378.212-.09.428-.159.654-.209l.045-.01c3.557-.79 4.232-5.562 1.05-7.337-10.45-5.83-25.113-4.495-36.97-8.864z"/><path fill="#4067C0" d="M2479.257 887.033c-4.841-1.902-8.835-7.383-8.195-13.278-11.169 5.671-23.6 10.287-34.752 3.112-3.786-3.164-6.414-6.432-4.512-11.273 2.957-6.103 9.492-11.359 17.704-10.927-22.321-1.504-28.078-26.678-22.684-44.676 5.394-17.998 22.459-23.029 38.676-24.482-20.419-6.345-36.394-28.268-28.994-49.949 25.937-68.388 106.846-91.574 175.908-79.729-30.216-8.744-62.815-9.786-93.179-1.576-30.558 8.263-58.688 26.062-78.127 51.046-8.086 10.393-14.787 22.323-16.495 35.38-1.44 11.011 1.186 22.913 8.163 31.366 1.722 2.087.962 5.223-1.551 6.226-15.59 6.218-27.714 20.876-30.411 37.504-2.43 14.983 2.906 30.868 13.369 41.786 2.323 2.424.728 6.474-2.624 6.66-7.599.421-15.122 2.246-22.05 5.398-4.497 2.045-9.046 4.989-10.728 9.634-.747 2.064-.59 4.469.248 6.509 1.006 2.448-.454 5.181-3.085 5.473a473.433 473.433 0 00-23.898 3.271c-4.419.72-4.387 7.079.029 7.821 33.174 5.578 67.932 1.744 99-11.194 5.008-2.086 10.721-4.408 15.629-2.097 2.51 1.182 4.365 3.423 6.752 4.837 4.652 2.755 10.53 1.987 15.789.732a106.755 106.755 0 0034.507-15.092c1.417-.949 3.293-.842 4.626.221 4.223 3.369 8.888 6.078 13.823 8.17-6.098-5.951-11.379-12.707-15.531-19.13-11.705 12.724-29.306 24.809-47.407 18.257z"/></svg>